<svg xmlns="http://www.w3.org/2000/svg" xmlns:xlink="http://www.w3.org/1999/xlink" width="101.8" height="101.8" viewBox="0 0 101.8 101.8">
  <defs>
    <clipPath id="clip-path">
      <rect id="Rectángulo_403975" data-name="Rectángulo 403975" width="63.24" height="63.27" fill="#fff"/>
    </clipPath>
  </defs>
  <g id="Grupo_1103295" data-name="Grupo 1103295" transform="translate(-258.711 -4357.94)">
    <g id="Grupo_156312" data-name="Grupo 156312" transform="translate(258.711 4357.94)">
      <g id="Grupo_1103294" data-name="Grupo 1103294">
        <path id="Elipse_5845" data-name="Elipse 5845" d="M50.9,0A50.9,50.9,0,1,1,0,50.9,50.9,50.9,0,0,1,50.9,0Z" fill="#006d36"/>
      </g>
    </g>
    <g id="Grupo_1103194" data-name="Grupo 1103194" transform="translate(277.991 4376.729)">
      <g id="Grupo_1103193" data-name="Grupo 1103193" clip-path="url(#clip-path)">
        <path id="Trazado_882928" data-name="Trazado 882928" d="M2.114,57.651a14.974,14.974,0,0,0,.017,2.015A1.9,1.9,0,0,0,3.8,61.172a10.126,10.126,0,0,0,1.2.037l47.005,0a9.4,9.4,0,0,1,1.111.027.994.994,0,0,1,.924.984,1,1,0,0,1-.905,1,4.967,4.967,0,0,1-.74.028q-23.92,0-47.84.018a4.2,4.2,0,0,1-4.353-2.9,7.1,7.1,0,0,1-.2-1.922Q0,40.181.006,21.91c0-3.153.022-6.307-.006-9.46a4.134,4.134,0,0,1,2.869-4.1c.379-.119.78-.167,1.187-.251.283-.868.5-1.767.861-2.607A9.106,9.106,0,0,1,18.463,1.626a3.362,3.362,0,0,1,.643.527.942.942,0,0,1,.054,1.273A.972.972,0,0,1,18,3.744a1.71,1.71,0,0,1-.474-.283A7.109,7.109,0,0,0,6.253,8.149a9.251,9.251,0,0,0,1.709-.034c.231-.044.46-.43.573-.707a5.085,5.085,0,0,1,9.684.632,5.272,5.272,0,0,1-2.558,5.848c-.245.131-.507.227-.751.36a1.135,1.135,0,0,0-.527,1.494c.237.537.716.675,1.417.408a7.37,7.37,0,0,0,4.366-8.629c-.1-.357-.212-.71-.3-1.068a1,1,0,0,1,.6-1.276.965.965,0,0,1,1.24.515,5.93,5.93,0,0,1,.376,1.042c.128.439.226.887.348,1.373H40.843a9.528,9.528,0,0,1,4.1-6.571A8.95,8.95,0,0,1,50.475.022c4.333.2,7.364,3.006,8.674,8.072.215.04.451.088.689.127A4.057,4.057,0,0,1,63.2,11.8c.038.4.039.8.039,1.2q0,22.722-.012,45.445a6.515,6.515,0,0,1-.333,2.263,3.752,3.752,0,0,1-3.377,2.5,18.314,18.314,0,0,1-2.316.024,1.015,1.015,0,0,1-1.09-1.013,1.026,1.026,0,0,1,1.105-1c.555-.029,1.112,0,1.668-.014A2.081,2.081,0,0,0,61.2,58.932c.008-.36,0-.72,0-1.212-.347.209-.554.326-.754.454a5.9,5.9,0,0,1-3.046.978q-.695.02-1.39.02-23.735,0-47.469,0c-2.22,0-4.473.2-6.423-1.525M21.378,44.921c-.344-.015-.65-.03-.957-.042a6.192,6.192,0,0,1-5.028-2.7c-1.232-1.7-1.18-3.654-1.069-5.608a.889.889,0,0,1,.945-.848c.955-.017,1.915-.007,2.867.069a6.491,6.491,0,0,1,3.218,1.425A1.437,1.437,0,0,0,20.9,35.6a7.984,7.984,0,0,1-1.1-1.127,5.838,5.838,0,0,1-1.132-5.73c.535-1.752,1.923-2.839,3.168-4.026.4-.382.94-.286,1.411.165a23.774,23.774,0,0,1,1.816,1.853,5.813,5.813,0,0,1,1.122,5.814,6.85,6.85,0,0,1-2.13,2.98,1.4,1.4,0,0,0-.51,1.651c.138-.073.274-.137.4-.214a.93.93,0,0,1,1.313.238.958.958,0,0,1-.1,1.342c-.161.186-.364.334-.533.514a4.278,4.278,0,0,0-1.118,3.722,4.172,4.172,0,0,0,4.88-5.031c-.19,0-.4.015-.614,0-.716-.06-1.191-.507-1.154-1.07a1.1,1.1,0,0,1,1.168-.96c.525-.023,1.051-.02,1.576,0,.842.029,1.187.353,1.215,1.179.023.71.022,1.423-.02,2.132a6.08,6.08,0,0,1-4.331,5.545,20.763,20.763,0,0,1-2.714.444v2.477c1.764-1.563,3.784-1.666,5.848-1.578.842.036,1.188.354,1.216,1.18.024.71.022,1.423-.02,2.132a6.082,6.082,0,0,1-4.329,5.547,21.063,21.063,0,0,1-2.734.447v1.847H39.741V55.192a.612.612,0,0,0-.125-.05c-.369-.027-.738-.05-1.106-.076a6.133,6.133,0,0,1-4.806-2.75c-1.2-1.718-1.15-3.668-1-5.622a.858.858,0,0,1,.918-.764c.956-.014,1.916-.009,2.867.068a6.5,6.5,0,0,1,3.244,1.443V44.986a.536.536,0,0,0-.116-.046c-.369-.027-.737-.05-1.106-.077a6.135,6.135,0,0,1-4.806-2.75c-1.2-1.717-1.15-3.668-1-5.622a.858.858,0,0,1,.918-.764c.956-.014,1.916-.01,2.868.068a6.393,6.393,0,0,1,3.221,1.432,1.425,1.425,0,0,0-.444-1.626,7.979,7.979,0,0,1-1.037-1.058,5.824,5.824,0,0,1-1.169-5.887c.559-1.734,1.942-2.83,3.213-3.992a.9.9,0,0,1,1.265.146,26,26,0,0,1,2.107,2.21,5.708,5.708,0,0,1,.934,5.428,6.96,6.96,0,0,1-2.222,3.134,1.431,1.431,0,0,0-.438,1.664c1.658-1.458,3.627-1.631,5.667-1.544,1.028.044,1.345.319,1.369,1.316.015.618,0,1.236-.012,1.854a6.221,6.221,0,0,1-6.007,6c-.357.008-.713.042-1.033.061V47.5c1.77-1.612,3.8-1.67,5.867-1.589.829.032,1.154.364,1.182,1.214.021.648.006,1.3-.009,1.947a6.221,6.221,0,0,1-6.006,6c-.357.008-.713.041-1.059.062v1.951c.328.015.6.038.876.038,4.666,0,9.334-.048,14,.021a4.294,4.294,0,0,0,4.466-4.465c-.051-9.769-.02-19.537-.023-29.306,0-.294-.037-.588-.06-.933-.482,0-.851,0-1.22,0-.247,0-.5.011-.741-.014a1.024,1.024,0,0,1-1.023-.99,1,1,0,0,1,.987-1.019c.662-.051,1.329-.046,2.011-.066.021-.363.047-.606.047-.85q0-3.432,0-6.863a4.463,4.463,0,0,0-.057-.831,1.774,1.774,0,0,0-2-1.471c-.021.108-.046.225-.068.343a9.285,9.285,0,0,1-6.158,7.487,2.931,2.931,0,0,1-3.917-2.506,3.057,3.057,0,0,1,2.016-3.378,2.9,2.9,0,0,0,1.815-2.028H22.431c-.036.194-.06.34-.089.486a9.273,9.273,0,0,1-5.863,7.312,2.879,2.879,0,0,1-3.954-1.476,3.15,3.15,0,0,1,1.48-4.177,6.771,6.771,0,0,0,1.129-.621,1.892,1.892,0,0,0,.9-1.476.986.986,0,0,0-.235-.082c-3.924-.006-7.849-.03-11.773,0a1.928,1.928,0,0,0-1.966,2.031c-.029,2.6,0,5.193.005,7.789a1.542,1.542,0,0,0,.125.357H53.971c.371,0,.744-.017,1.112.017a1,1,0,1,1,0,2.008c-.4.036-.8.017-1.2.017q-25.263,0-50.527,0c-.416,0-.833.028-1.249.042-.024.317-.051.5-.051.684q0,14.839.007,29.677A4.637,4.637,0,0,0,2.27,54.3a4,4,0,0,0,4.111,2.821c4.759.014,9.518.006,14.278,0,.234,0,.469-.042.723-.067V55.135c-.47-.027-.9-.046-1.33-.076A6.177,6.177,0,0,1,14.4,50.013a18.735,18.735,0,0,1-.09-3.145.908.908,0,0,1,.958-.937A27.755,27.755,0,0,1,18.138,46a6.535,6.535,0,0,1,3.24,1.441ZM42.989,8.107c.247.021.427.029.606.052a1.5,1.5,0,0,0,1.853-1.1,4.979,4.979,0,0,1,6.465-2.527,5.232,5.232,0,0,1,.049,9.571c-.882.411-1.16.971-.863,1.642.272.616.777.69,1.752.257A7.445,7.445,0,0,0,57,7.887a7.3,7.3,0,0,0-6.1-5.794,7.127,7.127,0,0,0-7.918,6.015M22.446,34.185c2.788-2.094,2.637-5.251-.005-7.149-2.676,1.954-2.752,5.086.005,7.149m18.363,0c2.894-2.2,2.513-5.4-.026-7.14-2.7,1.988-2.7,5.123.026,7.14M16.4,37.829a4.173,4.173,0,0,0,4.954,4.887A4.221,4.221,0,0,0,16.4,37.829m18.352.014c-.518,3.431,2.666,5.6,4.975,4.852a4.217,4.217,0,0,0-4.975-4.852m-18.323,10.2a4.17,4.17,0,0,0,4.9,4.905,4.168,4.168,0,0,0-4.9-4.905m18.328-.017a4.17,4.17,0,0,0,4.96,4.882,4.2,4.2,0,0,0-4.96-4.882M46.813,37.839a4.168,4.168,0,0,0-4.886,4.921,4.168,4.168,0,0,0,4.886-4.921M28.492,48.03a4.173,4.173,0,0,0-4.9,4.96,4.24,4.24,0,0,0,4.9-4.96m18.34-.013a4.159,4.159,0,0,0-4.86,4.978,4.225,4.225,0,0,0,4.86-4.978M16.006,8.107a2.919,2.919,0,0,0-3.155-1.894,2.492,2.492,0,0,0-2.19,1.947c1.519,0,3.028,0,4.536,0,.243,0,.485-.03.808-.051M52.667,8.1a2.835,2.835,0,0,0-5.355,0Z" transform="translate(0 0)" fill="#fff"/>
        <path id="Trazado_882929" data-name="Trazado 882929" d="M49.569,133.642a3.175,3.175,0,0,1,.005-.549.992.992,0,0,1,1.013-.874.976.976,0,0,1,.98.908,5.279,5.279,0,0,1,.012,1.1,1.022,1.022,0,0,1-.98,1.021,1.036,1.036,0,0,1-1.043-1.054c-.017-.182,0-.367,0-.551h.015" transform="translate(-40.364 -107.712)" fill="#fff"/>
        <path id="Trazado_882930" data-name="Trazado 882930" d="M282.649,144.762a3.858,3.858,0,0,1,0,.55,1.03,1.03,0,0,1-.966.94,1.015,1.015,0,0,1-1.044-.951,5.377,5.377,0,0,1-.008-1.009,1.006,1.006,0,0,1,1.017-1.069c.578,0,.952.4,1.01,1.08.013.152,0,.306,0,.459Z" transform="translate(-228.599 -116.678)" fill="#fff"/>
        <path id="Trazado_882931" data-name="Trazado 882931" d="M34.714,148.567a3.984,3.984,0,0,1,.639.04,1,1,0,0,1-.023,1.979,5.126,5.126,0,0,1-1.19.015.989.989,0,0,1-.97-1.017,1,1,0,0,1,.993-1,4.784,4.784,0,0,1,.55,0v-.015" transform="translate(-27.023 -121.031)" fill="#fff"/>
        <path id="Trazado_882932" data-name="Trazado 882932" d="M62.142,150.641c-1.028.011-1.537-.335-1.525-1.027s.512-1.008,1.558-1a3.739,3.739,0,0,1,.55.016,1.007,1.007,0,0,1-.033,2.009,4.059,4.059,0,0,1-.55,0" transform="translate(-49.382 -121.066)" fill="#fff"/>
        <path id="Trazado_882933" data-name="Trazado 882933" d="M51.528,161.152a4.3,4.3,0,0,1-.005.641,1,1,0,0,1-2-.049,5.283,5.283,0,0,1,0-1.1,1.008,1.008,0,0,1,1.029-.967,1.033,1.033,0,0,1,.98.925,3.624,3.624,0,0,1,0,.55h0" transform="translate(-40.318 -130.082)" fill="#fff"/>
        <path id="Trazado_882934" data-name="Trazado 882934" d="M265.831,161.666c-1.048,0-1.538-.313-1.548-1s.478-1.036,1.514-1.036,1.534.355,1.512,1.048c-.021.663-.506.988-1.478.992" transform="translate(-215.299 -130.04)" fill="#fff"/>
        <path id="Trazado_882935" data-name="Trazado 882935" d="M293.221,161.6a3.862,3.862,0,0,1-.55,0,1.029,1.029,0,0,1-.939-.966,1.012,1.012,0,0,1,.95-1.044,5.387,5.387,0,0,1,1.008-.008,1.007,1.007,0,0,1,1.069,1.017c0,.577-.4.953-1.079,1.01-.152.013-.306,0-.459,0Z" transform="translate(-237.66 -129.989)" fill="#fff"/>
        <path id="Trazado_882936" data-name="Trazado 882936" d="M282.651,172.218a3.914,3.914,0,0,1,0,.55,1,1,0,0,1-1.046.94.98.98,0,0,1-.959-.93,5.419,5.419,0,0,1-.013-1.008,1.017,1.017,0,1,1,2.029-.01c.013.152,0,.306,0,.459h-.01" transform="translate(-228.603 -139.046)" fill="#fff"/>
      </g>
    </g>
  </g>
</svg>
