<svg xmlns="http://www.w3.org/2000/svg" xmlns:xlink="http://www.w3.org/1999/xlink" width="298.578" height="518.774" viewBox="0 0 298.578 518.774">
  <defs>
    <clipPath id="clip-path">
      <rect id="Rectángulo_403696" data-name="Rectángulo 403696" width="298.578" height="518.597" fill="none"/>
    </clipPath>
  </defs>
  <g id="Grupo_1103294" data-name="Grupo 1103294" transform="translate(-989.47 -4270.329)">
    <g id="Grupo_1103019" data-name="Grupo 1103019" transform="translate(989.47 4270.329)">
      <g id="Grupo_1102678" data-name="Grupo 1102678" transform="translate(0)">
        <g id="Grupo_1102677" data-name="Grupo 1102677" clip-path="url(#clip-path)">
          <path id="Trazado_881238" data-name="Trazado 881238" d="M52.554,93.1h0c.365,11.365-2.015,14.893-9.532,17.691-10.289,3.832-21.106,7.663-23.465,10.514-4.2,5.064-3.847,7.825-3.894,12.482,7.079.026,28.873.12,71.93.125-.778-4.672-2.558-36.573-2.558-36.573-.757-4.651-18.1.752-19.675-3.32-1.065-2.762-13.792-4.322-12.805-.919" transform="translate(66.098 384.69)" fill="#b96855"/>
          <path id="Trazado_881239" data-name="Trazado 881239" d="M26.693,106.92a.559.559,0,0,0,.532-.381A15.13,15.13,0,0,1,39.389,96.474a.564.564,0,0,0,.475-.637.558.558,0,0,0-.632-.47,16.272,16.272,0,0,0-13.072,10.816.559.559,0,0,0,.355.7.53.53,0,0,0,.177.031" transform="translate(110.292 402.448)" fill="#944c47"/>
          <path id="Trazado_881240" data-name="Trazado 881240" d="M23.813,104.531a5.157,5.157,0,0,0,1.577-.318l.2-.063c6.014-1.858,13.4-5.116,16.078-8.676a.557.557,0,1,0-.887-.673c-2.532,3.351-9.945,6.557-15.52,8.285l-.209.063a3.717,3.717,0,0,1-1.357.261c-1.263-.089-2.245-1.352-3.116-2.709a.559.559,0,0,0-.94.606c.981,1.519,2.219,3.1,3.978,3.221.068.005.131.005.2.005" transform="translate(82.498 399.142)" fill="#944c47"/>
          <path id="Trazado_881241" data-name="Trazado 881241" d="M24.475,103.721a.554.554,0,0,0,.5-.3A21.989,21.989,0,0,0,27.32,92.351a.559.559,0,0,0-1.117.026,20.613,20.613,0,0,1-2.224,10.529.559.559,0,0,0,.5.814" transform="translate(100.932 387.454)" fill="#944c47"/>
          <path id="Trazado_881242" data-name="Trazado 881242" d="M22.139,97.522a2.566,2.566,0,0,0,.621-.078A2.089,2.089,0,0,0,24.227,96.2a.559.559,0,0,0-.318-.72.565.565,0,0,0-.726.318.993.993,0,0,1-.7.564,1.273,1.273,0,0,1-1.112-.224.557.557,0,0,0-.788.073.551.551,0,0,0,.073.783,2.289,2.289,0,0,0,1.483.527" transform="translate(86.317 402.799)" fill="#944c47"/>
          <path id="Trazado_881243" data-name="Trazado 881243" d="M23.02,96.949a1.943,1.943,0,0,0,.809-.183,1.694,1.694,0,0,0,.981-1.232.559.559,0,1,0-1.1-.193.591.591,0,0,1-.355.412.744.744,0,0,1-.673-.01.555.555,0,0,0-.762.2.561.561,0,0,0,.2.767,1.826,1.826,0,0,0,.9.24" transform="translate(92.176 400.413)" fill="#944c47"/>
          <path id="Trazado_881244" data-name="Trazado 881244" d="M23.691,96.99a2.37,2.37,0,0,0,1.436-.5,2.229,2.229,0,0,0,.893-1.827.571.571,0,0,0-.585-.538.555.555,0,0,0-.532.579,1.1,1.1,0,0,1-.454.9,1.189,1.189,0,0,1-1.07.219.56.56,0,0,0-.329,1.07,2.248,2.248,0,0,0,.642.094" transform="translate(95.619 397.249)" fill="#944c47"/>
          <path id="Trazado_881245" data-name="Trazado 881245" d="M24.021,96.227a.544.544,0,0,0,.355-.131,1.868,1.868,0,0,0,.647-1.362,2.091,2.091,0,0,0-.59-1.571.559.559,0,1,0-.793.788.956.956,0,0,1,.266.731.774.774,0,0,1-.24.559.551.551,0,0,0-.073.783.544.544,0,0,0,.428.2" transform="translate(99.02 392.474)" fill="#944c47"/>
          <path id="Trazado_881246" data-name="Trazado 881246" d="M24.681,94.958a.559.559,0,0,0,.47-.256,2.191,2.191,0,0,0-.538-2.814.558.558,0,1,0-.689.877,1.076,1.076,0,0,1,.292,1.331.553.553,0,0,0,.162.773.582.582,0,0,0,.3.089" transform="translate(100.063 387.28)" fill="#944c47"/>
          <path id="Trazado_881247" data-name="Trazado 881247" d="M28.942,93.417A.559.559,0,0,0,29.5,92.9a.565.565,0,0,0-.522-.6c-.835-.057-1.827-.141-2.819-.219s-1.984-.162-2.829-.224a.567.567,0,0,0-.6.522.556.556,0,0,0,.517.6c.84.057,1.827.141,2.819.219s1.989.162,2.829.224h.042" transform="translate(95.943 387.656)" fill="#944c47"/>
          <path id="Trazado_881248" data-name="Trazado 881248" d="M27.824,95.713a.551.551,0,0,0,.522-.365.559.559,0,0,0-.334-.72c-.381-.136-.867-.339-1.383-.548A21.269,21.269,0,0,0,23.2,92.873a.558.558,0,0,0-.653.444.551.551,0,0,0,.438.653,20.749,20.749,0,0,1,3.21,1.143c.527.214,1.023.418,1.43.564a.507.507,0,0,0,.193.037" transform="translate(95.124 391.907)" fill="#944c47"/>
          <path id="Trazado_881249" data-name="Trazado 881249" d="M26.086,98.556a.551.551,0,0,0,.334-.115.563.563,0,0,0,.125-.757l-.292-.433a.543.543,0,0,0-.219-.188c-.162-.214-.339-.433-.517-.663a19.285,19.285,0,0,0-2.286-2.6.555.555,0,1,0-.731.835,18.751,18.751,0,0,1,2.135,2.454c.355.454.689.882,1.023,1.268a.555.555,0,0,0,.428.2" transform="translate(94.142 395.271)" fill="#944c47"/>
          <path id="Trazado_881250" data-name="Trazado 881250" d="M24.087,98.536a.558.558,0,0,0,.48-.846l-1.853-3.069a.554.554,0,0,0-.767-.188.563.563,0,0,0-.188.767l1.848,3.064a.555.555,0,0,0,.48.271" transform="translate(91.495 398.183)" fill="#944c47"/>
          <path id="Trazado_881251" data-name="Trazado 881251" d="M22.758,99.192a.476.476,0,0,0,.266-.073.548.548,0,0,0,.214-.757L21.495,95.24a.561.561,0,0,0-.981.543L22.273,98.9a.549.549,0,0,0,.485.287" transform="translate(86.283 400.732)" fill="#944c47"/>
          <path id="Trazado_881252" data-name="Trazado 881252" d="M30.222,107.272a.624.624,0,0,0,.214-.042.561.561,0,0,0,.3-.731,34.142,34.142,0,0,0-7.053-10.185.558.558,0,0,0-.809.767,33.19,33.19,0,0,1,6.828,9.845.56.56,0,0,0,.517.345" transform="translate(95.895 405.734)" fill="#944c47"/>
          <path id="Trazado_881253" data-name="Trazado 881253" d="M44.244,95.773a.58.58,0,0,0,.287-.078.564.564,0,0,0,.193-.767c-.7-1.185-3.315-1.477-7.293-1.566-.3-.005-.553-.01-.736-.021-.642-.026-1.53-.016-2.553,0-2.688.031-6.745.078-8.3-.673a.556.556,0,0,0-.746.261.565.565,0,0,0,.261.747c1.791.867,5.674.82,8.8.778,1.013-.01,1.885-.021,2.5.005.188.01.449.016.757.021,3.868.089,6.009.428,6.358,1.023a.567.567,0,0,0,.48.271" transform="translate(105.687 390.84)" fill="#944c47"/>
          <path id="Trazado_881254" data-name="Trazado 881254" d="M29.695,105.55l.11-.01a.558.558,0,0,0,.439-.658c-.955-4.771-2.4-7.34-4.281-7.627a9.923,9.923,0,0,0-3.205.188c-.386.063-.783.131-1.164.172a4.341,4.341,0,0,1-3.581-.9.558.558,0,0,0-.809.767,5.287,5.287,0,0,0,4.521,1.242c.412-.047.82-.12,1.216-.183a9.038,9.038,0,0,1,2.855-.183c.621.094,2.193.94,3.351,6.739a.558.558,0,0,0,.548.449" transform="translate(71.949 407.435)" fill="#944c47"/>
          <path id="Trazado_881255" data-name="Trazado 881255" d="M15.41,102.374c-.047.423-.078.825-.094,1.279a1.759,1.759,0,0,0,1.733,1.8c9.877.037,32.486.11,72.128.115a1.48,1.48,0,0,0,1.493-1.7c-.172-1.362-.376-3.143-.553-4.609a1.609,1.609,0,0,0-1.571-1.389h-19.9a4.585,4.585,0,0,0-3.518,1.587,4.583,4.583,0,0,1-3.524,1.592H16.908a1.483,1.483,0,0,0-1.5,1.326" transform="translate(64.632 413.034)" fill="#8a4340"/>
          <path id="Trazado_881256" data-name="Trazado 881256" d="M32.666,131.557l-.026.031c.11-3.868.266-7.147,2.464-10.79,2.307-3.811,11.1-7.674,18.475-13.661a9.571,9.571,0,0,0,3.284-9.595c-.532-2.313-1.044-4.087-1.044-4.087-.606-3.409,19.179-2.595,19.889.172,1.049,4.088,12.341-.626,12.68,4.041,0,0,1.42,31.311,1.775,36-35.378-.005-51.811-.1-57.627-.125.047-.7.089-1.357.131-1.984" transform="translate(137.306 384.931)" fill="#b96855"/>
          <path id="Trazado_881257" data-name="Trazado 881257" d="M42.634,106.937a.555.555,0,0,0,.548-.465c.872-5.241,2.934-9.271,5.132-10.039a.558.558,0,1,0-.365-1.054c-2.61.908-4.912,5.189-5.868,10.91a.564.564,0,0,0,.459.642l.094.005" transform="translate(177.562 402.399)" fill="#944c47"/>
          <path id="Trazado_881258" data-name="Trazado 881258" d="M48.488,103.751a8.946,8.946,0,0,0,4.646-1.4c3.727-2.219,5.6-3.331,7.554-6.959a.558.558,0,0,0-.981-.532c-1.811,3.357-3.482,4.354-7.141,6.531-2.9,1.728-5.356,1.686-8.754-.146a17.171,17.171,0,0,0-8.546-2.14.56.56,0,0,0,.089,1.117c2.887-.235,6.343,1.154,7.93,2.01a10.945,10.945,0,0,0,5.2,1.524" transform="translate(146.661 399.086)" fill="#944c47"/>
          <path id="Trazado_881259" data-name="Trazado 881259" d="M40.5,103.871a.557.557,0,0,0,.517-.355A32.117,32.117,0,0,0,43.066,92.5a.556.556,0,0,0-1.112-.037,31.26,31.26,0,0,1-1.978,10.649.559.559,0,0,0,.318.72.608.608,0,0,0,.209.037" transform="translate(168.553 387.957)" fill="#944c47"/>
          <path id="Trazado_881260" data-name="Trazado 881260" d="M38.527,97.422a1.193,1.193,0,0,0,.235-.021A1.819,1.819,0,0,0,40.13,96.06a.558.558,0,0,0-1.07-.318.732.732,0,0,1-.486.559c-.047.01-.177.031-.318-.162a.557.557,0,1,0-.9.658,1.442,1.442,0,0,0,1.169.626" transform="translate(157.201 402.367)" fill="#944c47"/>
          <path id="Trazado_881261" data-name="Trazado 881261" d="M39.067,96.845a1.234,1.234,0,0,0,.376-.063,1.692,1.692,0,0,0,1.023-1.363.555.555,0,1,0-1.1-.177c-.057.339-.251.485-.313.485a.566.566,0,0,0-.793.021.558.558,0,0,0,.021.783,1.147,1.147,0,0,0,.783.313" transform="translate(160.848 399.978)" fill="#944c47"/>
          <path id="Trazado_881262" data-name="Trazado 881262" d="M39.63,96.98a1.427,1.427,0,0,0,.736-.214,2.5,2.5,0,0,0,1.06-2.078.559.559,0,0,0-.543-.574h-.016a.564.564,0,0,0-.559.548,1.422,1.422,0,0,1-.527,1.148c-.13.078-.188.052-.214.037a.559.559,0,0,0-.485,1.008,1.257,1.257,0,0,0,.548.125" transform="translate(163.6 397.186)" fill="#944c47"/>
          <path id="Trazado_881263" data-name="Trazado 881263" d="M39.937,96.222a.544.544,0,0,0,.428-.2,2.628,2.628,0,0,0,.162-2.762.557.557,0,1,0-.955.574,1.6,1.6,0,0,1-.063,1.477.551.551,0,0,0,.073.783.544.544,0,0,0,.355.131" transform="translate(166.19 392.421)" fill="#944c47"/>
          <path id="Trazado_881264" data-name="Trazado 881264" d="M40.292,95.081a.567.567,0,0,0,.48-.271,2.39,2.39,0,0,0-.3-2.756.557.557,0,1,0-.793.783,1.291,1.291,0,0,1,.131,1.4.558.558,0,0,0,.48.846" transform="translate(166.781 387.784)" fill="#944c47"/>
          <path id="Trazado_881265" data-name="Trazado 881265" d="M46.6,99.25a.566.566,0,0,0,.339-.115.557.557,0,0,0,.1-.783c-1.383-1.817-6.275-3.978-11.1-3.383a.56.56,0,0,0,.136,1.112c4.7-.585,9.052,1.608,10.075,2.949a.551.551,0,0,0,.444.219" transform="translate(149.642 400.371)" fill="#944c47"/>
          <path id="Trazado_881266" data-name="Trazado 881266" d="M47.54,98.555a.7.7,0,0,0,.177-.026.569.569,0,0,0,.355-.715c-.224-.7-1.67-1.644-3.007-2.266-1.43-.668-5.126-2.078-8.5-.71a.561.561,0,1,0,.423,1.039c4.39-1.785,9.7,1.639,10.028,2.3a.542.542,0,0,0,.522.381" transform="translate(152.851 397.809)" fill="#944c47"/>
          <path id="Trazado_881267" data-name="Trazado 881267" d="M48.134,98.125a.657.657,0,0,0,.172-.026.564.564,0,0,0,.36-.71c-.407-1.258-5.69-4.521-11.344-3.545a.559.559,0,0,0,.188,1.1c5.137-.882,9.809,2.161,10.1,2.8a.553.553,0,0,0,.527.381" transform="translate(155.561 395.29)" fill="#944c47"/>
          <path id="Trazado_881268" data-name="Trazado 881268" d="M48.993,95.573c-.642-.694-6.708-1.978-11.244-1.378a.558.558,0,0,1-.626-.475.564.564,0,0,1,.48-.632c4.244-.564,11.871.5,12.429,2.062a.565.565,0,0,1-.345.715.538.538,0,0,1-.183.031.57.57,0,0,1-.512-.324m-.016-.047Z" transform="translate(156.644 392.209)" fill="#944c47"/>
          <path id="Trazado_881269" data-name="Trazado 881269" d="M50.033,93.572a.56.56,0,0,0,.052-1.117l-.224-.016A52.055,52.055,0,0,0,37.6,92.356a.559.559,0,0,0,.151,1.107,51.624,51.624,0,0,1,12.007.084l.224.026h.052" transform="translate(156.648 388.352)" fill="#944c47"/>
          <path id="Trazado_881270" data-name="Trazado 881270" d="M47.939,109.845a.529.529,0,0,0,.151-.021.558.558,0,0,0,.386-.689c-.8-2.871-4-10.253-8.29-13.494a.557.557,0,1,0-.673.887c3.832,2.9,7.026,9.84,7.888,12.91a.558.558,0,0,0,.538.407" transform="translate(165.816 403.145)" fill="#944c47"/>
          <path id="Trazado_881271" data-name="Trazado 881271" d="M52.335,95.542a.559.559,0,0,0,.527-.741c-.48-1.4-2.8-1.6-4.949-1.67-.188-.01-.35-.016-.47-.021a13.2,13.2,0,0,0-1.822.063c-1.357.1-3.054.224-3.884-.412a.559.559,0,1,0-.679.887c1.169.893,3.017.757,4.646.637a13.9,13.9,0,0,1,1.665-.063c.125.01.3.016.506.021,2.427.084,3.748.4,3.931.924a.56.56,0,0,0,.527.376" transform="translate(172.355 390.982)" fill="#944c47"/>
          <path id="Trazado_881272" data-name="Trazado 881272" d="M53.666,105.491h.042a.564.564,0,0,0,.517-.6,7.385,7.385,0,0,0-4.85-6.745c-2.469-.971-4.9-.835-7.966-.658-.658.037-1.352.073-2.088.1-2.454.1-4.187-.209-5.011-.908a.555.555,0,0,0-.783.063.561.561,0,0,0,.063.788c1.054.9,3,1.289,5.779,1.175.741-.031,1.441-.073,2.1-.11,3.049-.172,5.257-.292,7.491.585a6.328,6.328,0,0,1,4.145,5.789.562.562,0,0,0,.559.517" transform="translate(140.93 407.474)" fill="#944c47"/>
          <path id="Trazado_881273" data-name="Trazado 881273" d="M32.433,102.385c-.063.428-.115.83-.157,1.279a1.533,1.533,0,0,0,1.316,1.8c14.121.068,31.222.115,57.788.12a1.517,1.517,0,0,0,1.336-1.7c-.063-1.368-.12-3.148-.183-4.62a1.345,1.345,0,0,0-1.206-1.4h-8.88a3.779,3.779,0,0,0-2.991,1.6,3.766,3.766,0,0,1-2.991,1.592H33.744a1.439,1.439,0,0,0-1.31,1.331" transform="translate(136.181 413.012)" fill="#8a4340"/>
          <path id="Trazado_881274" data-name="Trazado 881274" d="M17.087,96.294c4.03,3.163,14.841,2.621,19.049-.9,5.053-4.239,15.024-19.164,33.5-51.78C79.156,26.8,61.892,11.12,57.507,17.217,41.079,40.061,16.523,82.246,16.22,82.8c-1.284,2.662-3.785,9.84.867,13.494" transform="translate(60.721 66.991)" fill="#ffbca8"/>
          <path id="Trazado_881275" data-name="Trazado 881275" d="M18.265,49.514C18.438,50.678,40.185,66,42.425,67.274c.517.3,5.043-5.8,5.21-9.84C48.2,44,41.715,16.021,41.715,16.021c-5.393,3.816-16.59,20.991-21.3,29.228a21.245,21.245,0,0,0-2.146,4.265" transform="translate(77.078 67.613)" fill="#859fda"/>
          <path id="Trazado_881276" data-name="Trazado 881276" d="M77.029,161.763S66.3,192.546,62.522,205.529c1.811,8.78,4.944,19.832,4.818,32.6-.266,25.339,5.069,110.7,5.429,114.982.219,2.626-30.82,1.253-37.7-.731-.647-.188-1.227-.543-1.295-1.211-.919-9.182-8.363-93.182-11.808-135.341-.089-1.013-.167-2-.245-2.96-.423-5.241-3.007-12.544-2.485-16.2q.454-3.179.908-6.379C29.712,123.665,41.1,53.238,42.335,42.626c.423-3.623.71-6.082.835-7.178l.078-.658C45.19,30.165,48.933,32.477,54,31.882c4.061-.47,10.837-.454,15.066,1.744a8.33,8.33,0,0,1,1.911,1.321,31.947,31.947,0,0,1,2.412,4.824c.94,2.078,2.078,4.667,3.284,7.486C81.194,57.79,86.78,71.394,87.182,72.444l.005.016A52.7,52.7,0,0,1,90.93,90.7Z" transform="translate(80.885 133.512)" fill="#5f4268"/>
          <path id="Trazado_881277" data-name="Trazado 881277" d="M33.617,237.475a.559.559,0,0,0,.559-.543c.177-6.1-.82-28.419-1.879-52.057-1.148-25.71-2.339-52.291-2.041-58.947.157-3.5-.715-7.783-1.561-11.923-1.42-6.979-2.892-14.189.392-17.942a3.348,3.348,0,0,0,.924-3.529,3.922,3.922,0,0,0-.767-1.049c-.089-.094-.177-.188-.261-.287-2.328-2.735,1.978-12.456,6.144-21.852,1.582-3.56,3.21-7.241,4.547-10.665a.557.557,0,0,0-.318-.72.565.565,0,0,0-.726.318c-1.321,3.4-2.949,7.063-4.521,10.613-4.7,10.6-8.76,19.759-5.977,23.032.094.11.193.214.292.324a2.9,2.9,0,0,1,.569.746c.407.914-.47,2.02-.747,2.333-3.649,4.166-2.119,11.657-.642,18.9.83,4.077,1.686,8.29,1.535,11.657-.3,6.7.893,33.311,2.041,59.041,1.06,23.617,2.057,45.923,1.879,51.978a.559.559,0,0,0,.543.574Z" transform="translate(109.675 244.45)" fill="#483051"/>
          <path id="Trazado_881278" data-name="Trazado 881278" d="M38.484,44.447s3.644-.71,4.369-.219S48.9,87.791,46.967,90.041s-6.3,2.913-8.556,3.284.073-48.877.073-48.877" transform="translate(157.965 185.923)" fill="#5f4268"/>
          <path id="Trazado_881279" data-name="Trazado 881279" d="M28.046,88.743c1.216,5.935,10.895,96.946,13.4,109.135.877,4.27,6.645,14.8,7.34,19.148,8.118,50.793,18.046,110.283,23.679,136a1.514,1.514,0,0,0,1.326,1.055c8.123,1.629,30.278,1.639,38.353-.778a1.34,1.34,0,0,0,.955-1.451c-1.5-11.631-8.525-65.9-14.277-107.386-2.876-20.74-8.948-30.257-10.232-41.506C82.6,150.384,81.5,91.52,81.121,88.743c-.183-1.326-.256-3.148-.747-5.742-1.764-9.992-5.993-26.78-8.112-37.805-.548-2.835-1.044-5.3-1.462-7.209a17.358,17.358,0,0,0-1.148-4.119c-2.694-2.25-12.3-2.516-20.49-2.386a43.7,43.7,0,0,0-6.724.318c-.71.068-1.295.141-1.733.214l.042.057a13.967,13.967,0,0,0-5.591,2.318,10.779,10.779,0,0,0-4.166,5.894c-.057.193-.11.392-.151.59-.282,1.269-.642,3.7-1.013,6.833-1.441,12.033-3.132,34.422-1.78,41.037" transform="translate(116.273 132.748)" fill="#5f4268"/>
          <path id="Trazado_881280" data-name="Trazado 881280" d="M40.821,134.662l.084-.005a.559.559,0,0,0,.47-.637c-.5-3.21-1.869-23.272-3.2-42.67C36.78,71.043,35.465,51.858,34.964,48.6a2.826,2.826,0,0,0-1.091-2.041l-6.04-5.737a.558.558,0,1,0-.767.809l6.04,5.737a2.722,2.722,0,0,1,.574.673,2.543,2.543,0,0,1,.177.731c.5,3.205,1.869,23.262,3.2,42.655,1.394,20.317,2.709,39.507,3.21,42.759a.565.565,0,0,0,.553.475" transform="translate(113.485 171.632)" fill="#483051"/>
          <path id="Trazado_881281" data-name="Trazado 881281" d="M64.252,252.393l.057-.005a.557.557,0,0,0,.5-.611c-2.433-23.209-5.44-45.677-8.624-69.466q-.65-4.808-1.289-9.647c-.235-1.159-.459-2.182-.679-3.174s-.449-2-.668-3.117c-1.843-14.747-6.8-36.109-10.618-49.692-.694-2.537.454-3.67,1.561-4.771.867-.861,1.764-1.759,1.456-3.179a6.906,6.906,0,0,0-1.978-3.691,5.011,5.011,0,0,1-1.582-3.4c-.668-5.753-1.42-14.747-2.151-23.444C39.5,69.36,38.73,60.235,38.067,54.576a.56.56,0,0,0-1.112.131c.663,5.638,1.43,14.758,2.172,23.58.731,8.707,1.483,17.707,2.151,23.476a6.078,6.078,0,0,0,1.874,4.035,5.828,5.828,0,0,1,1.707,3.169c.172.788-.3,1.305-1.154,2.151-1.148,1.138-2.715,2.694-1.848,5.862,3.811,13.552,8.749,34.84,10.592,49.572.23,1.164.459,2.187.679,3.179s.444,2,.668,3.117c.423,3.195.851,6.405,1.284,9.61,3.179,23.778,6.186,46.241,8.619,69.435a.559.559,0,0,0,.553.5" transform="translate(155.944 228.237)" fill="#483051"/>
          <path id="Trazado_881282" data-name="Trazado 881282" d="M34.808,46.953h.052l16.82-1.514a.558.558,0,1,0-.1-1.112l-16.82,1.509a.56.56,0,0,0,.047,1.117" transform="translate(144.55 187.061)" fill="#483051"/>
          <path id="Trazado_881283" data-name="Trazado 881283" d="M46.708,91.594a25.524,25.524,0,0,0,7.606-1.159.558.558,0,0,0-.334-1.065,24.48,24.48,0,0,1-10.5.893c-2.558-.35-4.291-1.133-5.3-2.4-1.112-1.389-1.331-3.263-1.488-5.393-.606-8.164-.908-20.2-1.148-29.87-.068-2.636-.13-5.121-.193-7.334a.55.55,0,0,0-.574-.543.559.559,0,0,0-.543.574c.063,2.213.125,4.693.193,7.334.24,9.684.543,21.732,1.148,29.923.136,1.785.313,4.234,1.728,6,1.2,1.5,3.174,2.422,6.024,2.809a25.142,25.142,0,0,0,3.378.224" transform="translate(144.489 188.756)" fill="#483051"/>
          <path id="Trazado_881284" data-name="Trazado 881284" d="M35.911,49.708c5.231,0,13.082-1.039,18.4-1.744l1.514-.2a.556.556,0,0,0,.48-.626.565.565,0,0,0-.626-.48l-1.519.2C48.523,47.6,40,48.732,34.913,48.575a.57.57,0,0,0-.574.543.559.559,0,0,0,.543.574c.329.01.673.016,1.028.016" transform="translate(144.92 196.877)" fill="#483051"/>
          <path id="Trazado_881285" data-name="Trazado 881285" d="M39.185,49.037a1.983,1.983,0,0,0,1.148-.36.559.559,0,1,0-.653-.908.872.872,0,0,1-1.227-1.206.555.555,0,0,0-.136-.778.563.563,0,0,0-.783.141,2.023,2.023,0,0,0,.245,2.553,1.977,1.977,0,0,0,1.4.559" transform="translate(156.962 192.797)" fill="#483051"/>
          <path id="Trazado_881286" data-name="Trazado 881286" d="M23.6,39.544C28.369,41.5,36.372,43.167,45,43.866c2.735.214,5.539.339,8.316.339,1.5,0,3.049-.01,4.62-.031,10.926-.151,23.162-.84,30.873-2.542-.543-2.829-1.039-5.3-1.462-7.2-8.577,1.639-21.664,2.219-32.689,2.26-.449.005-.9.005-1.342.005-2.386,0-4.787-.089-7.152-.256-8.582-.6-16.658-2.177-21.722-4.072-.131,1.1-.418,3.555-.84,7.178" transform="translate(99.611 136.593)" fill="#483051"/>
          <path id="Trazado_881287" data-name="Trazado 881287" d="M27.546,41.6c-.851-1.331-1.128-7.152.1-8.232s9.047-.052,10.1.585c1.582.961,1.128,6.536.2,8.279-.376.71-1.4,1.107-3.054,1.175-.157.005-.318.01-.485.01-2.438,0-6.129-.663-6.865-1.817M37.167,34.9c-.908-.553-7.945-1.263-8.78-.7-.6.553-.673,5.58.1,6.786.355.559,3.633,1.409,6.363,1.295,1.362-.052,1.989-.35,2.114-.579.924-1.749.929-6.363.2-6.8" transform="translate(113.166 138.832)" fill="#eacfc9"/>
          <path id="Trazado_881288" data-name="Trazado 881288" d="M34.045,33.947q0,3.962-.005,7.924c0,1.55-3.44,1.55-3.44,0V33.947c0-1.347,3.445-1.352,3.445,0" transform="translate(129.14 138.995)" fill="#5f4268"/>
          <path id="Trazado_881289" data-name="Trazado 881289" d="M28.794,33.713q-.446,3.939-.9,7.877c-.172,1.535-3.059,1.211-2.882-.329l.893-7.877c.151-1.336,3.038-1.013,2.887.329" transform="translate(105.534 137.282)" fill="#5f4268"/>
          <path id="Trazado_881290" data-name="Trazado 881290" d="M37.82,33.361q.548,3.923,1.091,7.851c.214,1.535-2.662,1.937-2.876.4q-.548-3.931-1.1-7.851c-.183-1.336,2.694-1.738,2.882-.4" transform="translate(147.416 137.316)" fill="#5f4268"/>
          <path id="Trazado_881291" data-name="Trazado 881291" d="M31.536,35.513a.557.557,0,0,0,.094-1.107l-4.479-.783a.559.559,0,1,0-.193,1.1l4.479.778.1.01" transform="translate(111.818 141.866)" fill="#eacfc9"/>
          <path id="Trazado_881292" data-name="Trazado 881292" d="M45.056,45.541a.559.559,0,0,0,.115-1.107,17.616,17.616,0,0,1-11.965-9.24.559.559,0,1,0-1,.5,18.758,18.758,0,0,0,12.737,9.84l.115.01" transform="translate(135.664 147.212)" fill="#483051"/>
          <path id="Trazado_881293" data-name="Trazado 881293" d="M27.25,36.694a.559.559,0,0,0,.418-.929A18.764,18.764,0,0,1,25.094,32.1a.557.557,0,1,0-.981.527,19.826,19.826,0,0,0,2.72,3.884.57.57,0,0,0,.418.183" transform="translate(101.477 134.223)" fill="#c3a09e"/>
          <path id="Trazado_881294" data-name="Trazado 881294" d="M27.844,58.76a.554.554,0,0,0,.553-.5c.835-7.418,1.352-14.956,1.54-22.416a.559.559,0,0,0-1.117-.026c-.188,7.423-.7,14.93-1.53,22.317a.551.551,0,0,0,.491.616l.063.005" transform="translate(115.155 148.887)" fill="#483051"/>
          <path id="Trazado_881295" data-name="Trazado 881295" d="M84.147,63.813c-.162,5.8-8.149,9.689-13.9,8.921-4.578-.611-10.153-2.955-14.152-5.283-.846-.5-45.056-30.528-51.367-34.287C.55,30.675,6.83,19.54,12.843,22.442c9.778,4.719,32.663,15.222,45.949,21.429,11.156,5.21,25.647,9.558,25.355,19.941" transform="translate(14.234 92.691)" fill="#ffbca8"/>
          <path id="Trazado_881296" data-name="Trazado 881296" d="M26.277,93.595c-.407,4.03-1.159,5.006,2.307,8.3,3.628,3.44,17.911,6.8,32.543,6.8,4.818,0,10.1-.1,15.264-.355,1.817-.089,3.623-.193,5.393-.318,2.38-.172,2.725-1.148,4.9-1.4,5.434-.626,6.88-.1,9.668-1.321.757-.329,3.618-2.412,5-8.034.334-1.362-.162-5.356.2-6.922,3.936-17.258,13.291-45.3,15.525-56.181.882-4.312,2.584-18.678-11.9-18.678-3.325,0-12.038.005-22.04.01-10.921.005-23.382.016-32.042.005-5.121,0-8.916-.005-10.284-.016-13.682-.094-15.849,3.315-18.652,10.7C20.4,30.79,24.831,65.374,27.128,87.565c.151,1.446-.715,4.7-.851,6.029" transform="translate(91.806 65.316)" fill="#859fda"/>
          <path id="Trazado_881297" data-name="Trazado 881297" d="M96.561,74.4C79.747,53.808,72.71,43.916,67.134,37.385c-3.868-4.536-7.455-9.49-11.589-13.8-2.8-2.929-6.322-6.212-10.294-7.4-9.652-2.882-8.065,11.3-7.006,16.35,1.979,9.464,5.34,19.325,11.124,26.947,8.608,11.359,23.048,23.543,30.763,31.7C87.546,99,103.441,82.827,96.561,74.4" transform="translate(158.021 66.671)" fill="#ffbca8"/>
          <path id="Trazado_881298" data-name="Trazado 881298" d="M32.019,34.335C42.814,31.8,54.147,21.18,57.013,15.479c-10.916.005-20.375.016-29.035.01-.266,5.382.867,15.7,4.04,18.845" transform="translate(117.918 65.326)" fill="#ffbca8"/>
          <path id="Trazado_881299" data-name="Trazado 881299" d="M27.31,72.543c7.721-2.949,5.69-4.85,1.248-8.634Z" transform="translate(115.256 269.713)" fill="#5f4268"/>
          <path id="Trazado_881300" data-name="Trazado 881300" d="M40.3,72.329c6.541-5.053,4.046-6.285-1.3-8.629Z" transform="translate(164.586 268.831)" fill="#5f4268"/>
          <path id="Trazado_881301" data-name="Trazado 881301" d="M32.975,59.845c.167-8.718.84-31.134,2.38-36.547a20.261,20.261,0,0,1,3.576-6.478c1.785.162.731-1.143-.115-1.305-7.439-1.467-9.584,1.676-11.124,5.789C22.383,35.471,24.8,52.192,24.674,58.367a62.1,62.1,0,0,0,8.3,1.477" transform="translate(102.267 63.928)" fill="#5f4268"/>
          <path id="Trazado_881302" data-name="Trazado 881302" d="M37.931,29.453c-1.06,4.792-5.6,29.343-5.941,34.579a23.3,23.3,0,0,0,8.332,2.24c.5-7.183,3.623-27.506,4.3-31.348C46.1,26.556,50.4,20.057,54.6,17.42h.021c.245.016,1.7-.031,1.806-.021,1.394.125-.136-1.039-.532-1.305a7.948,7.948,0,0,0-3.978-.955,7.824,7.824,0,0,0-3.9.282C40.64,18.835,38.28,27.866,37.931,29.453" transform="translate(135.006 63.436)" fill="#5f4268"/>
          <path id="Trazado_881303" data-name="Trazado 881303" d="M82.765,73.535c-.6.047-1.112.381-1.8.465-2.177.251-2.516,1.222-4.9,1.394-1.764.13-3.571.23-5.393.318-5.163.251-10.441.355-15.264.355-10.822,0-21.45-1.832-27.72-4.181l-.021-.01C25.117,70.768,23.6,67.724,23.191,66c-.381-1.618,1.31-5.7,1.4-7.324.094-1.691,0-8.222.219-12.884.2-4.312.11-16.172.209-20.411a2.149,2.149,0,0,1,2.38-2.093c5.763.606,46.643,2.365,52.276,2.276a2.163,2.163,0,0,1,2.187,2.025c.5,7.83-1.885,17.169-1.968,25.725-.047,4.056-.726,18.229,2.871,20.223" transform="translate(97.637 98.212)" fill="#5f4268"/>
          <path id="Trazado_881304" data-name="Trazado 881304" d="M48.732,25.78c-5.434,2.052-6.024,10.853-3.414,16.047a40.709,40.709,0,0,0,9.146,11.652c.83.715,42.791,33.66,48.183,38.207,3.722,3.137,13.364-4.756,9.162-9.95-7.945-9.825-25.35-28.863-37.006-40.89C66.23,32,58.446,22.11,48.732,25.78" transform="translate(184.923 105.484)" fill="#ffbca8"/>
          <path id="Trazado_881305" data-name="Trazado 881305" d="M3.923,35.439a49.007,49.007,0,0,1,3.759,7.053A61.283,61.283,0,0,0,15.34,55.114a9.4,9.4,0,0,0,9.167,3.257c2.2-.4,3.31-.125,5.267-1.383,3.477-2.229,2.641-6.583,1.937-8.713-2.156-6.494-4.218-9.595-7.549-14.987a45.087,45.087,0,0,0-9.95-11.218,32.145,32.145,0,0,0-8.347-3.993c-3.242-1.117-4.557,2.673-2.224,3.967C7.671,24.3,8.4,25.312,8.1,26.6c-1.054,4.62-6.353,5.748-4.176,8.838" transform="translate(10.375 75.429)" fill="#ffbca8"/>
          <path id="Trazado_881306" data-name="Trazado 881306" d="M.335,59.17A92.517,92.517,0,0,1,2.183,47.544a149.29,149.29,0,0,1,7.35-22.886c1.18-3.012,3.68-11.145,7.439-11.224,3.054-.068,4.317,2.793,4.75,5.356.72,4.281,1.582,8.613,2,12.941,1.222,12.643,1.634,25.757-.825,38.28-.746,3.8-2.7,8.979-5.894,11.083a9.333,9.333,0,0,1-10.2-.23C.534,76.6-.385,67.627.335,59.17" transform="translate(0.537 56.694)" fill="#ffde79"/>
          <path id="Trazado_881307" data-name="Trazado 881307" d="M2.358,58.4q.548-1.793,1.258-3.513C5.479,50.4,8.4,46.708,11.305,42.965a74.319,74.319,0,0,0,6.875-9.9,34.878,34.878,0,0,0,2.965-7.857c-.4-3.163-.762-5.633-.778-6.374a31.369,31.369,0,0,1,2.688-3.988.5.5,0,0,1,.914.2c.626,5.142.037,10.32-.423,15.462-.23,2.584-.428,5.173-.407,7.768.021,2.631.287,5.246.36,7.872a76.35,76.35,0,0,1-1.227,15.875c-.83,4.526-2.062,9.276-5.3,12.518a9.727,9.727,0,0,1-4.959,2.788c-3.1.585-8.211-.089-10.185-3.075A9.62,9.62,0,0,1,.708,68.748,38.32,38.32,0,0,1,2.358,58.4" transform="translate(2.962 61.727)" fill="#bcc768"/>
          <path id="Trazado_881308" data-name="Trazado 881308" d="M.784,50.381A52.572,52.572,0,0,1,3.435,40.7,32.929,32.929,0,0,0,4.777,35.8c.324-1.7.574-3.419.929-5.121.345-1.67.762-3.32,1.237-4.954.966-3.325,2.156-6.567,3.383-9.788l.924-2.412c.24-.621.976-.4,1,.224.4,8.958,1.879,18.031,2.678,27.036.8,9.036,1.295,18.412-2.344,26.837-1.253,2.9-5.121,14.392-9.48,11.166a5.615,5.615,0,0,1-1.733-3.268c-1.749-7.1-1.561-15.342-.9-22.64.078-.861.183-1.691.308-2.5" transform="translate(-0.001 55.507)" fill="#bcc768"/>
          <path id="Trazado_881309" data-name="Trazado 881309" d="M5.331,59.734a.559.559,0,0,0,.412-.183c2.239-2.454,3.278-6.384,2.84-10.78A45.922,45.922,0,0,0,6.934,41.1c-.282-1.023-.579-2.083-.835-3.127-1.5-6.165-1.916-12.67-2.307-18.96a.56.56,0,0,0-1.117.068c.4,6.343.809,12.894,2.344,19.158.256,1.06.553,2.13.84,3.158a45.221,45.221,0,0,1,1.613,7.481c.407,4.077-.527,7.695-2.553,9.918a.559.559,0,0,0,.412.934" transform="translate(11.28 78.044)" fill="#99b04d"/>
          <path id="Trazado_881310" data-name="Trazado 881310" d="M2.511,52.279a.559.559,0,0,0,.527-.741A34.132,34.132,0,0,1,1.56,41.317a142.54,142.54,0,0,1,.887-21.21.557.557,0,1,0-1.107-.131,143.409,143.409,0,0,0-.9,21.377A35.1,35.1,0,0,0,1.983,51.9a.56.56,0,0,0,.527.376" transform="translate(1.546 82.221)" fill="#99b04d"/>
          <path id="Trazado_881311" data-name="Trazado 881311" d="M5.195,23.7a.562.562,0,0,0,.543-.428c.6-2.547,1.138-5.142,1.592-7.726a.559.559,0,1,0-1.1-.193c-.449,2.558-.981,5.137-1.577,7.658a.558.558,0,0,0,.412.673.593.593,0,0,0,.131.016" transform="translate(19.565 62.842)" fill="#99b04d"/>
          <path id="Trazado_881312" data-name="Trazado 881312" d="M4.67,25.751h.005a.559.559,0,0,0,.548-.569,93.46,93.46,0,0,0-.637-9.527.562.562,0,0,0-1.117.131A92.814,92.814,0,0,1,4.106,25.2a.562.562,0,0,0,.564.548" transform="translate(14.629 63.98)" fill="#ffbd5c"/>
          <path id="Trazado_881313" data-name="Trazado 881313" d="M3.428,17.509h.026a36.631,36.631,0,0,0,5.586-.7.564.564,0,0,0,.439-.663.557.557,0,0,0-.658-.433,35.185,35.185,0,0,1-5.419.679.559.559,0,0,0,.026,1.117" transform="translate(12.107 66.266)" fill="#ffbd5c"/>
          <path id="Trazado_881314" data-name="Trazado 881314" d="M6.005,17.814a9.427,9.427,0,0,0,2.02-.219A.559.559,0,1,0,7.78,16.5a8.231,8.231,0,0,1-3.92-.089.557.557,0,1,0-.292,1.075,9.361,9.361,0,0,0,2.438.324" transform="translate(13.315 69.187)" fill="#ffbd5c"/>
          <path id="Trazado_881315" data-name="Trazado 881315" d="M4.065,26.859H4.07a.559.559,0,0,0,.548-.569c-.073-3.445-.224-6.927-.444-10.352a.562.562,0,0,0-.59-.522.568.568,0,0,0-.527.6c.224,3.409.371,6.875.444,10.3a.558.558,0,0,0,.564.548" transform="translate(12.901 65.059)" fill="#ffbd5c"/>
          <path id="Trazado_881316" data-name="Trazado 881316" d="M5.545,19.375a6.305,6.305,0,0,0,.7-.042.557.557,0,1,0-.131-1.107A5.04,5.04,0,0,1,3.8,17.945a.56.56,0,0,0-.72.329.567.567,0,0,0,.329.72,6.25,6.25,0,0,0,2.14.381" transform="translate(12.84 75.581)" fill="#ffbd5c"/>
          <path id="Trazado_881317" data-name="Trazado 881317" d="M4.8,16.342a.559.559,0,0,0,.11-1.107,3.964,3.964,0,0,1-1.342-.559.552.552,0,0,0-.773.157.561.561,0,0,0,.157.773,5.037,5.037,0,0,0,1.728.726l.12.01" transform="translate(11.397 61.539)" fill="#ffbd5c"/>
          <path id="Trazado_881318" data-name="Trazado 881318" d="M16.818,41.321C15.273,40,13.665,38.58,13.012,36.659c-.694-2.057-.224-4.5-1.472-6.27-1.154-1.639-3.362-2.1-4.944-3.331-2.046-1.587-3.973-5.664-1.931-6.985,1.618-1.039,4.573,3.242,10.461,4.531Z" transform="translate(16.018 84.039)" fill="#ffbca8"/>
          <path id="Trazado_881319" data-name="Trazado 881319" d="M9.52,22.934a.56.56,0,0,0,.12-1.107A14.935,14.935,0,0,1,6.7,20.861c-.261-.115-.517-.235-.762-.36a.56.56,0,0,0-.5,1c.261.131.532.256.809.381A16.908,16.908,0,0,0,9.4,22.918a.474.474,0,0,0,.12.016" transform="translate(21.624 86.274)" fill="#f28a70"/>
          <path id="Trazado_881320" data-name="Trazado 881320" d="M17.27,42.334a.565.565,0,0,0,.423-.193.556.556,0,0,0-.057-.788c-1.415-1.211-3.017-2.584-3.639-4.422a11.492,11.492,0,0,1-.439-2.474,7.972,7.972,0,0,0-1.112-3.936,5.772,5.772,0,0,0-1.764-1.571c-.439-.271-.908-.506-1.357-.736A12.451,12.451,0,0,1,7.388,27.07a7.024,7.024,0,0,1-2.579-4.855A1.41,1.41,0,0,1,5.42,21c.465-.3,1.53.407,2.767,1.222a31.946,31.946,0,0,0,3.3,1.968.56.56,0,0,0,.5-1A30.142,30.142,0,0,1,8.8,21.291C7.111,20.174,5.89,19.37,4.814,20.064a2.5,2.5,0,0,0-1.122,2.1C3.6,24.23,5.185,26.777,6.7,27.952A13.125,13.125,0,0,0,8.813,29.2c.454.23.882.449,1.284.694a4.638,4.638,0,0,1,1.436,1.263,7.028,7.028,0,0,1,.914,3.409,12.628,12.628,0,0,0,.491,2.72c.72,2.125,2.521,3.67,3.967,4.907a.549.549,0,0,0,.365.136" transform="translate(15.566 83.584)" fill="#f28a70"/>
          <path id="Trazado_881321" data-name="Trazado 881321" d="M43.8,57.479c1.514,2.845,10.816,15.327,10.942,15.17.559-.7,29.312-20.771,28.931-22.374a19.814,19.814,0,0,0-2.918-4.495c-7.46-9.725-24.671-30.57-34.8-30.236-3.832.125-5.821,2.313-8.64,10.942-2.213,6.745,1.065,20.8,6.484,30.993" transform="translate(154.542 65.584)" fill="#859fda"/>
          <path id="Trazado_881322" data-name="Trazado 881322" d="M29.3,28.628c.245,0,.5-.01.767-.026a4.679,4.679,0,0,0,2.344-.658,2.285,2.285,0,0,0,1-2.5.558.558,0,1,0-1.06.35,1.2,1.2,0,0,1-.564,1.227A3.724,3.724,0,0,1,30,27.49a5.636,5.636,0,0,1-3.445-.637,2.368,2.368,0,0,1-1.081-2.678.567.567,0,0,0-.3-.731.561.561,0,0,0-.731.3,3.472,3.472,0,0,0,1.514,4.046,6.075,6.075,0,0,0,3.351.835" transform="translate(102.263 98.767)" fill="#483051"/>
          <path id="Trazado_881323" data-name="Trazado 881323" d="M26.482,26.664a.56.56,0,0,0,.12-1.107,1,1,0,0,1-.673-.642,1.017,1.017,0,0,1,.063-.934.558.558,0,0,0-.908-.647,2.2,2.2,0,0,0,1.279,3.315.474.474,0,0,0,.12.016" transform="translate(104.354 97.489)" fill="#483051"/>
          <path id="Trazado_881324" data-name="Trazado 881324" d="M36.306,28.5a16.084,16.084,0,0,0,4.15-.543.559.559,0,0,0-.287-1.081,15.022,15.022,0,0,1-5.9.365c-.647-.089-1.023-.261-1.148-.517a1.68,1.68,0,0,1,.042-.966,2.475,2.475,0,0,0-.063-1.707.557.557,0,1,0-.992.506,1.691,1.691,0,0,1-.037.971,2.519,2.519,0,0,0,.042,1.681,2.434,2.434,0,0,0,2,1.138,16.248,16.248,0,0,0,2.2.151" transform="translate(134.804 100.224)" fill="#483051"/>
          <path id="Trazado_881325" data-name="Trazado 881325" d="M34.1,25.381a.549.549,0,0,0,.5-.3l.178-.345a.56.56,0,0,0-1-.512l-.172.345a.556.556,0,0,0,.245.752.54.54,0,0,0,.251.063" transform="translate(141.561 100.95)" fill="#483051"/>
          <path id="Trazado_881326" data-name="Trazado 881326" d="M34.676,27.35a.56.56,0,0,0,.047-1.117,1.209,1.209,0,0,1-1.018-.814,1.226,1.226,0,0,1,.371-1.258.551.551,0,0,0,.073-.783.557.557,0,0,0-.788-.073,2.294,2.294,0,0,0,1.263,4.046h.052" transform="translate(137.331 97.801)" fill="#483051"/>
          <path id="Trazado_881327" data-name="Trazado 881327" d="M59.762,29.343q2.7,0,5.419-.063a.557.557,0,0,0,.548-.574.552.552,0,0,0-.569-.543A223.806,223.806,0,0,1,25.632,25.61a.56.56,0,1,0-.167,1.107,224.46,224.46,0,0,0,34.3,2.626" transform="translate(105.459 108.055)" fill="#483051"/>
          <path id="Trazado_881328" data-name="Trazado 881328" d="M25.32,46.054a.562.562,0,0,0,.559-.517l1.4-19.195a.558.558,0,1,0-1.112-.084L24.761,45.454a.564.564,0,0,0,.517.6h.042" transform="translate(104.493 108.633)" fill="#483051"/>
          <path id="Trazado_881329" data-name="Trazado 881329" d="M42.609,35.381c3.576,0,19.571-1.853,20.265-1.932a.559.559,0,0,0-.125-1.112c-.177.021-17.535,2.031-20.375,1.921-3.5-.131-12.32-3.226-15.64-4.39-1-.35-1.2-.418-1.305-.439a.555.555,0,0,0-.658.433.561.561,0,0,0,.423.658c.1.026.6.2,1.169.4,3.367,1.18,12.294,4.312,15.969,4.453.084.005.172.005.277.005" transform="translate(104.493 124.151)" fill="#483051"/>
          <path id="Trazado_881330" data-name="Trazado 881330" d="M32.5,47.483a.562.562,0,0,0,.553-.491c.016-.136,1.676-13.6,3.315-20.208a.557.557,0,0,0-.412-.673.55.55,0,0,0-.673.407c-1.65,6.672-3.32,20.2-3.336,20.338a.551.551,0,0,0,.485.621l.068.005" transform="translate(134.804 110.122)" fill="#483051"/>
          <path id="Trazado_881331" data-name="Trazado 881331" d="M50.245,30.364c2.965,0,5.909-.125,8.859-.376a.553.553,0,0,0,.512-.6.561.561,0,0,0-.606-.512,114.107,114.107,0,0,1-32.888-2.208.559.559,0,1,0-.219,1.1,122.264,122.264,0,0,0,24.342,2.6" transform="translate(107.418 112.499)" fill="#483051"/>
          <path id="Trazado_881332" data-name="Trazado 881332" d="M40.619,39.146a.546.546,0,0,0,.266-.068c6.572-3.545,13.218-8.942,19.08-13.708,1.091-.887,2.161-1.759,3.216-2.6a.562.562,0,0,0,.084-.788.556.556,0,0,0-.783-.084c-1.054.846-2.13,1.717-3.216,2.6C53.44,29.238,46.837,34.6,40.353,38.1a.558.558,0,0,0-.224.757.552.552,0,0,0,.491.292" transform="translate(169.069 91.893)" fill="#6479b9"/>
          <path id="Trazado_881333" data-name="Trazado 881333" d="M38.137,43.527l.1-.01a.555.555,0,0,0,.444-.653C37,33.827,38.983,23.084,41,19.112a5.53,5.53,0,0,1,1.561-2.161.56.56,0,0,0-.632-.924A6.525,6.525,0,0,0,40,18.605c-2.412,4.756-3.993,15.974-2.412,24.467a.563.563,0,0,0,.548.454" transform="translate(155.952 67.227)" fill="#6479b9"/>
          <path id="Trazado_881334" data-name="Trazado 881334" d="M32.147,32.295a.558.558,0,0,0,.48-.846,31.4,31.4,0,0,1-4.39-14.408.567.567,0,0,0-.59-.527.56.56,0,0,0-.527.59,32.587,32.587,0,0,0,4.547,14.92.567.567,0,0,0,.48.271" transform="translate(114.449 69.688)" fill="#6479b9"/>
          <path id="Trazado_881335" data-name="Trazado 881335" d="M29.244,27.082l.1-.01a43.539,43.539,0,0,0,17.989-7.919.56.56,0,0,0-.668-.9,42.438,42.438,0,0,1-17.53,7.721.558.558,0,0,0,.1,1.107" transform="translate(121.063 76.577)" fill="#6479b9"/>
          <path id="Trazado_881336" data-name="Trazado 881336" d="M25.93,44.419l.052-.005a.56.56,0,0,0,.506-.606L25.5,33.733a22.847,22.847,0,0,0-.637-4.014,23.738,23.738,0,0,0-.82-2.266c-.235-.585-.475-1.19-.668-1.791a26.375,26.375,0,0,1-.887-4.683.558.558,0,1,0-1.107.141A27.079,27.079,0,0,0,22.307,26c.2.642.454,1.263.7,1.869.292.736.569,1.43.778,2.151a21.9,21.9,0,0,1,.6,3.821l.992,10.07a.556.556,0,0,0,.553.506" transform="translate(90.2 86.474)" fill="#6479b9"/>
          <path id="Trazado_881337" data-name="Trazado 881337" d="M33.623,33.671a.556.556,0,0,0,.444-.224.547.547,0,0,0-.11-.778c-2.626-1.984-4.745-3.67-6.8-5.293s-4.181-3.315-6.823-5.309a.559.559,0,0,0-.673.893c2.631,1.984,4.75,3.665,6.8,5.293s4.181,3.315,6.823,5.3a.54.54,0,0,0,.334.115" transform="translate(82.058 92.659)" fill="#6479b9"/>
          <path id="Trazado_881338" data-name="Trazado 881338" d="M90.248,36.28c30.732-3.017,55.377-2.647,59.7,2.8,3.675,4.625-1.978,8.211-10,35.733-1.023,3.508-16.825,8.191-44.847,10.936s-44.43,1.232-46.116-2.01C35.765,58.3,29.526,55.887,32.23,50.636,35.415,44.45,59.517,39.3,90.248,36.28" transform="translate(133.403 145.15)" fill="#fae6d4"/>
          <path id="Trazado_881339" data-name="Trazado 881339" d="M44.915,65.806A82.012,82.012,0,0,1,49,56.389,131.243,131.243,0,0,1,60.179,38.65c1.655-2.286,5.528-8.613,8.723-7.867,2.594.611,3.038,3.3,2.845,5.56-.318,3.769-.532,7.616-1.117,11.365-1.712,10.947-4.213,22.113-9.015,32.157-1.451,3.049-4.228,7-7.381,8.081a8.138,8.138,0,0,1-8.566-2.412c-4.369-4.959-3.2-12.743-.752-19.727" transform="translate(180.34 129.657)" fill="#ffde79"/>
          <path id="Trazado_881340" data-name="Trazado 881340" d="M47.056,64.513a32.531,32.531,0,0,1,1.827-2.694c2.547-3.388,5.821-5.873,9.083-8.4a64.8,64.8,0,0,0,7.956-6.865,30.44,30.44,0,0,0,4.213-5.993c.35-2.762.579-4.923.726-5.554A27.794,27.794,0,0,1,74,32.215a.437.437,0,0,1,.731.365c-.585,4.484-2.213,8.728-3.717,12.972-.757,2.13-1.483,4.281-2.031,6.473-.553,2.229-.9,4.495-1.4,6.729a66.714,66.714,0,0,1-4.484,13.139c-1.681,3.644-3.759,7.392-7.194,9.428A8.462,8.462,0,0,1,51.1,82.6c-2.741-.183-6.917-1.858-7.935-4.808a8.448,8.448,0,0,1,.245-4.9,33.618,33.618,0,0,1,3.644-8.379" transform="translate(181.028 135.523)" fill="#bcc768"/>
          <path id="Trazado_881341" data-name="Trazado 881341" d="M47.56,59.34a45.656,45.656,0,0,1,4.343-7.6,28.9,28.9,0,0,0,2.2-3.853c.642-1.368,1.232-2.767,1.895-4.124.653-1.336,1.368-2.641,2.125-3.915,1.535-2.6,3.242-5.079,4.98-7.533l1.305-1.838c.339-.475.914-.12.8.407-1.613,7.653-2.328,15.64-3.612,23.418-1.284,7.81-2.9,15.833-7.8,22.165-1.686,2.172-7.449,11.041-10.435,7.371A4.89,4.89,0,0,1,42.6,80.7c.063-6.379,2.015-13.3,4.155-19.32.256-.71.522-1.389.8-2.041" transform="translate(179.783 127.681)" fill="#bcc768"/>
          <path id="Trazado_881342" data-name="Trazado 881342" d="M45.261,70.334a.615.615,0,0,0,.308-.089c2.438-1.6,4.181-4.714,4.771-8.546a40.227,40.227,0,0,0,.266-6.844c-.016-.924-.031-1.885-.021-2.819a95.348,95.348,0,0,1,2.161-16.506.558.558,0,0,0-1.1-.214,96.088,96.088,0,0,0-2.182,16.7c-.01.955.005,1.921.026,2.855a39.45,39.45,0,0,1-.261,6.656c-.538,3.513-2.1,6.348-4.281,7.778a.561.561,0,0,0-.162.773.566.566,0,0,0,.47.251" transform="translate(188.654 147.147)" fill="#99b04d"/>
          <path id="Trazado_881343" data-name="Trazado 881343" d="M43.412,63.254h.047a.561.561,0,0,0,.512-.606,29.681,29.681,0,0,1,.966-8.932A124.231,124.231,0,0,1,50.292,36a.559.559,0,1,0-1.044-.4,126.1,126.1,0,0,0-5.4,17.874,30.7,30.7,0,0,0-.987,9.266.553.553,0,0,0,.553.512" transform="translate(180.605 148.731)" fill="#99b04d"/>
          <path id="Trazado_881344" data-name="Trazado 881344" d="M47.694,41.481a.562.562,0,0,0,.543-.428,81.4,81.4,0,0,0,1.524-8.2.558.558,0,1,0-1.107-.146,80.863,80.863,0,0,1-1.5,8.081.559.559,0,0,0,.543.689" transform="translate(198.922 135.997)" fill="#ffbd5c"/>
          <path id="Trazado_881345" data-name="Trazado 881345" d="M52.131,34.388a.553.553,0,0,0,.559-.527.56.56,0,0,0-.532-.585,30.89,30.89,0,0,1-4.709-.6.56.56,0,0,0-.23,1.1,32.559,32.559,0,0,0,4.886.616h.026" transform="translate(197.398 137.85)" fill="#ffbd5c"/>
          <path id="Trazado_881346" data-name="Trazado 881346" d="M50.969,35.306a.559.559,0,0,0,.021-1.117,7.067,7.067,0,0,1-3.263-.919.559.559,0,1,0-.553.971,8.261,8.261,0,0,0,3.774,1.065h.021" transform="translate(197.902 140.105)" fill="#ffbd5c"/>
          <path id="Trazado_881347" data-name="Trazado 881347" d="M36.408,34.181a15.377,15.377,0,0,0-4.589-1.77c-1.054-.2-.183.877-.042,1.154a14.445,14.445,0,0,1,.647,2.313,22.093,22.093,0,0,0,2.224,4.85c2.307,3.785,6.473,8.676,11.391,8.29.694-.052,1.378-.151,2.062-.24.741-.094,1.524-.141,2.255-.3,1.446-.308.82-2.046.177-2.9a32.524,32.524,0,0,0-7.267-6.64,68.59,68.59,0,0,0-6.859-4.756" transform="translate(132.118 136.683)" fill="#bcc768"/>
          <path id="Trazado_881348" data-name="Trazado 881348" d="M72.563,45.65a81.785,81.785,0,0,0-9.3-4.364,130.451,130.451,0,0,0-20.114-5.909c-2.756-.626-10.7-3.3-12.6-.632-1.54,2.172.637,5.2,2.266,6.765q4.1,3.931,8.488,7.569c8.519,7.073,17.78,13.8,28.022,18.161,3.106,1.321,7.8,2.448,10.879,1.18a8.142,8.142,0,0,0,4.834-7.475c0-6.614-6.029-11.673-12.476-15.3" transform="translate(126.711 141.716)" fill="#ffde79"/>
          <path id="Trazado_881349" data-name="Trazado 881349" d="M84.119,45.725A46.278,46.278,0,0,0,61.28,40.077a43.593,43.593,0,0,0-8.514.893c-1.331.277-2.615.689-3.941.966-.475.1-2.37.736-2.829.334-2.266-1.963-7.047-6.27-7.663-6.792-.517-.444-3.68.131-4.683.689-2.078,1.148-4.829,3.706-4.589,4.745a.928.928,0,0,0,1.138.538c3.179-1.749,6.974.653,9.971,2.146,2.73,1.357,5.481,2.662,8.274,3.868A121.6,121.6,0,0,1,62.11,54.516c4.432,2.621,8.363,5.434,13.411,6.7,1.383.35,2.782.679,4.187.893,4.2.653,8.091-1.107,9.642-4.844C91.537,52,88.682,48.3,84.119,45.725" transform="translate(122.583 149.059)" fill="#bcc768"/>
          <path id="Trazado_881350" data-name="Trazado 881350" d="M39.359,32.033c-1.284-.141-2.861-.261-3.654.773-1.817,2.38-1.916,4.38-1.728,6.927.256,3.529,2.135,6.8,3.941,9.913a67.685,67.685,0,0,0,4.114,6.238,15.178,15.178,0,0,0,3.341,3.779,21.312,21.312,0,0,0,5.413,2.151c2.067.684,3.994,1.738,5.988,2.61a14.634,14.634,0,0,0,6.51,1.279c2.14-.12,5.309-.663,4.15-3.43A14.838,14.838,0,0,0,65.628,59.4a24.184,24.184,0,0,0-5.126-5.09c-3.941-2.923-10.566-7.094-14.653-9.793-1.791-1.185-5.9-5.309-5.622-6.363A21.5,21.5,0,0,1,46.939,36.2c.24-.021.339-.407.162-.632-.919-1.148-6.379-3.388-7.742-3.539" transform="translate(143.11 134.801)" fill="#bcc768"/>
          <path id="Trazado_881351" data-name="Trazado 881351" d="M41.084,40.523a4.468,4.468,0,0,0,1-.11.557.557,0,0,0,.423-.668.563.563,0,0,0-.673-.418,5.1,5.1,0,0,1-2.908-.376c-.553-.209-1.086-.459-1.65-.731-.449-.214-.919-.439-1.394-.632a27.679,27.679,0,0,0-5.361-1.42.558.558,0,1,0-.209,1.1,26.667,26.667,0,0,1,5.142,1.357c.449.183.9.4,1.342.611.559.261,1.138.538,1.738.762a7.242,7.242,0,0,0,2.547.527" transform="translate(126.022 152.601)" fill="#99b04d"/>
          <path id="Trazado_881352" data-name="Trazado 881352" d="M61.826,46.178a.542.542,0,0,0,.465-.261.556.556,0,0,0-.167-.767,58.552,58.552,0,0,0-26.378-8.932.558.558,0,1,0-.089,1.112,57.446,57.446,0,0,1,25.866,8.76.538.538,0,0,0,.3.089" transform="translate(148.315 152.84)" fill="#99b04d"/>
          <path id="Trazado_881353" data-name="Trazado 881353" d="M34.88,40.5a.539.539,0,0,0,.157-.021.563.563,0,0,0,.381-.694,4.636,4.636,0,0,1-.193-2.391,3.756,3.756,0,0,1,1.827-2.208,13.607,13.607,0,0,1,3.1-1.2.565.565,0,0,0,.381-.694.558.558,0,0,0-.694-.376,14.3,14.3,0,0,0-3.362,1.31,4.845,4.845,0,0,0-2.333,2.9,5.679,5.679,0,0,0,.2,2.97.562.562,0,0,0,.538.4" transform="translate(143.596 138.807)" fill="#99b04d"/>
          <path id="Trazado_881354" data-name="Trazado 881354" d="M41.446,37.464a.558.558,0,0,0,.146-1.1c-2.929-.793-5.915-1.524-8.869-2.172a.552.552,0,0,0-.663.423.561.561,0,0,0,.423.668c2.939.647,5.9,1.373,8.817,2.156a.472.472,0,0,0,.146.021" transform="translate(135.244 144.259)" fill="#ffbd5c"/>
          <path id="Trazado_881355" data-name="Trazado 881355" d="M38.183,37.343a.559.559,0,0,0,.157-1.1L32.05,34.4a.56.56,0,0,0-.313,1.075l6.29,1.843a.539.539,0,0,0,.157.021" transform="translate(132.237 145.105)" fill="#ffbd5c"/>
          <path id="Trazado_881356" data-name="Trazado 881356" d="M32.819,40.04a.551.551,0,0,0,.444-.219,10.272,10.272,0,0,0,2.057-4.949.558.558,0,0,0-1.107-.146,9.22,9.22,0,0,1-1.838,4.416.559.559,0,0,0,.1.783.544.544,0,0,0,.339.115" transform="translate(136.146 144.502)" fill="#ffbd5c"/>
          <path id="Trazado_881357" data-name="Trazado 881357" d="M33.5,38.776a.56.56,0,0,0,.506-.318,10.488,10.488,0,0,0,.981-3.639.561.561,0,0,0-1.117-.094A9.287,9.287,0,0,1,33,37.977a.567.567,0,0,0,.266.747.554.554,0,0,0,.24.052" transform="translate(139.032 144.403)" fill="#ffbd5c"/>
          <path id="Trazado_881358" data-name="Trazado 881358" d="M36.8,39.885a.557.557,0,0,0,.47-.261.552.552,0,0,0-.172-.767,46.646,46.646,0,0,1-4.677-3.4.558.558,0,0,0-.71.861A46.1,46.1,0,0,0,36.5,39.8a.522.522,0,0,0,.3.089" transform="translate(132.951 149.11)" fill="#ffbd5c"/>
          <path id="Trazado_881359" data-name="Trazado 881359" d="M32.61,38.54a.582.582,0,0,0,.261-.063,3.306,3.306,0,0,0,1.686-2.187.559.559,0,0,0-1.091-.245,2.2,2.2,0,0,1-1.117,1.441.559.559,0,0,0,.261,1.054" transform="translate(135.264 150.277)" fill="#ffbd5c"/>
          <path id="Trazado_881360" data-name="Trazado 881360" d="M33.894,38.765a.557.557,0,0,0,.465-.251,8.772,8.772,0,0,0,1.148-2.5.56.56,0,0,0-1.081-.3,7.36,7.36,0,0,1-1,2.177.557.557,0,0,0,.157.778.548.548,0,0,0,.308.094" transform="translate(140.682 149.013)" fill="#ffbd5c"/>
          <path id="Trazado_881361" data-name="Trazado 881361" d="M67.022,35.815a15.476,15.476,0,0,0,1.8-4.578c.2-1.049-.877-.188-1.154-.047a15.043,15.043,0,0,1-2.318.637,22.161,22.161,0,0,0-4.86,2.193c-3.8,2.286-8.713,6.426-8.352,11.344.047.694.141,1.378.224,2.062.094.746.136,1.53.287,2.26.3,1.446,2.041.83,2.9.193a32.656,32.656,0,0,0,6.682-7.23,68.659,68.659,0,0,0,4.792-6.833" transform="translate(219.941 129.662)" fill="#bcc768"/>
          <path id="Trazado_881362" data-name="Trazado 881362" d="M70.654,71.917a81.189,81.189,0,0,0,4.416-9.266,130.922,130.922,0,0,0,6.024-20.082c.637-2.751,3.362-10.686.7-12.6-2.161-1.561-5.2.6-6.781,2.229q-3.947,4.08-7.611,8.441C60.276,49.125,53.5,58.35,49.084,68.566c-1.342,3.1-2.5,7.783-1.242,10.874a8.145,8.145,0,0,0,7.444,4.876c6.614.031,11.709-5.967,15.368-12.4" transform="translate(199.636 124.214)" fill="#ffde79"/>
          <path id="Trazado_881363" data-name="Trazado 881363" d="M63.687,83.487A46.289,46.289,0,0,0,69.46,60.68a43.656,43.656,0,0,0-.84-8.519c-.271-1.336-.673-2.621-.95-3.947-.1-.475-.72-2.375-.318-2.835,1.978-2.255,6.311-7.011,6.839-7.622.444-.517-.11-3.68-.663-4.688-1.138-2.083-3.68-4.844-4.719-4.615a.925.925,0,0,0-.543,1.133c1.728,3.195-.694,6.969-2.2,9.965-1.373,2.715-2.694,5.46-3.915,8.253a120.665,120.665,0,0,1-7.131,13.62c-2.647,4.422-5.476,8.337-6.771,13.38-.355,1.378-.689,2.777-.914,4.176-.679,4.2,1.06,8.1,4.792,9.673,5.246,2.219,8.963-.621,11.563-5.168" transform="translate(199.144 120.03)" fill="#bcc768"/>
          <path id="Trazado_881364" data-name="Trazado 881364" d="M83.071,38.807c.146-1.284.271-2.861-.762-3.659-2.365-1.827-4.364-1.942-6.917-1.764-3.524.24-6.807,2.093-9.929,3.884A66.7,66.7,0,0,0,59.2,41.35a15.122,15.122,0,0,0-3.79,3.315,21.155,21.155,0,0,0-2.187,5.4c-.694,2.062-1.759,3.983-2.641,5.972a14.574,14.574,0,0,0-1.316,6.5c.1,2.14.637,5.309,3.4,4.166a14.438,14.438,0,0,0,2.887-1.791,24.248,24.248,0,0,0,5.116-5.09c2.949-3.931,7.157-10.535,9.882-14.606,1.19-1.78,5.34-5.868,6.395-5.586a21.5,21.5,0,0,1,1.9,6.729c.021.235.418.339.637.162,1.148-.908,3.425-6.358,3.586-7.721" transform="translate(207.849 140.634)" fill="#bcc768"/>
          <path id="Trazado_881365" data-name="Trazado 881365" d="M51.36,41.9a.435.435,0,0,0,.115-.016.552.552,0,0,0,.423-.663,5.163,5.163,0,0,1,.392-2.908c.214-.553.47-1.086.741-1.65.214-.449.444-.914.642-1.389a27.669,27.669,0,0,0,1.446-5.351.555.555,0,0,0-.438-.658.565.565,0,0,0-.658.438,26.785,26.785,0,0,1-1.383,5.137c-.188.449-.407.9-.616,1.336-.271.559-.548,1.138-.778,1.733a6.108,6.108,0,0,0-.428,3.55.548.548,0,0,0,.543.439" transform="translate(214.002 123.473)" fill="#99b04d"/>
          <path id="Trazado_881366" data-name="Trazado 881366" d="M50.091,61.729a.552.552,0,0,0,.47-.256,58.532,58.532,0,0,0,9.078-26.326.558.558,0,0,0-1.112-.1,57.426,57.426,0,0,1-8.906,25.819.562.562,0,0,0,.167.773.538.538,0,0,0,.3.089" transform="translate(209.043 145.766)" fill="#99b04d"/>
          <path id="Trazado_881367" data-name="Trazado 881367" d="M60.365,39.989a.539.539,0,0,0,.157-.021.563.563,0,0,0,.381-.694,14.613,14.613,0,0,0-1.295-3.367,4.827,4.827,0,0,0-2.892-2.349,5.711,5.711,0,0,0-2.97.183.559.559,0,0,0,.308,1.075,4.72,4.72,0,0,1,2.391-.177,3.772,3.772,0,0,1,2.2,1.838,13.5,13.5,0,0,1,1.18,3.111.562.562,0,0,0,.538.4" transform="translate(225.121 141.107)" fill="#99b04d"/>
          <path id="Trazado_881368" data-name="Trazado 881368" d="M53.441,41.4a.556.556,0,0,0,.538-.412c.8-2.923,1.556-5.9,2.224-8.848a.56.56,0,0,0-1.091-.251c-.663,2.934-1.409,5.9-2.208,8.807a.556.556,0,0,0,.386.684.528.528,0,0,0,.151.021" transform="translate(223.181 132.744)" fill="#ffbd5c"/>
          <path id="Trazado_881369" data-name="Trazado 881369" d="M53.309,38.136a.553.553,0,0,0,.532-.4l1.879-6.28a.557.557,0,0,0-.371-.694.562.562,0,0,0-.7.371l-1.879,6.28a.562.562,0,0,0,.376.694.456.456,0,0,0,.162.026" transform="translate(222.619 129.737)" fill="#ffbd5c"/>
          <path id="Trazado_881370" data-name="Trazado 881370" d="M57.583,34.753a.559.559,0,0,0,.078-1.112,9.221,9.221,0,0,1-4.406-1.858.558.558,0,1,0-.689.877A10.28,10.28,0,0,0,57.5,34.748l.078.005" transform="translate(220.934 133.621)" fill="#ffbd5c"/>
          <path id="Trazado_881371" data-name="Trazado 881371" d="M56.6,34.411a.56.56,0,0,0,.052-1.117A9.25,9.25,0,0,1,53.41,32.4a.559.559,0,1,0-.486,1.007,10.576,10.576,0,0,0,3.628,1H56.6" transform="translate(222.017 136.516)" fill="#ffbd5c"/>
          <path id="Trazado_881372" data-name="Trazado 881372" d="M52.055,36.735a.552.552,0,0,0,.47-.256,46.093,46.093,0,0,1,3.424-4.662.558.558,0,0,0-.856-.715,47.489,47.489,0,0,0-3.508,4.771.562.562,0,0,0,.167.773.538.538,0,0,0,.3.089" transform="translate(217.332 130.423)" fill="#ffbd5c"/>
          <path id="Trazado_881373" data-name="Trazado 881373" d="M53.9,33.976a.558.558,0,0,0,.125-1.1,2.232,2.232,0,0,1-1.441-1.128.557.557,0,1,0-.987.517,3.29,3.29,0,0,0,2.177,1.7.515.515,0,0,0,.125.016" transform="translate(217.485 132.723)" fill="#ffbd5c"/>
          <path id="Trazado_881374" data-name="Trazado 881374" d="M54.617,34.936a.559.559,0,0,0,.151-1.1A7.49,7.49,0,0,1,52.6,32.832a.556.556,0,0,0-.778.146.562.562,0,0,0,.151.778,8.568,8.568,0,0,0,2.5,1.159.5.5,0,0,0,.151.021" transform="translate(218.288 138.142)" fill="#ffbd5c"/>
          <path id="Trazado_881375" data-name="Trazado 881375" d="M77.492,47.732a81.487,81.487,0,0,0-8.869-5.168A130.8,130.8,0,0,0,49.109,34.9c-2.688-.867-9.558-3.665-11.688-1.169-1.733,2.025-.5,4.458,1,6.165,2.5,2.845,4.944,5.815,7.637,8.488,7.862,7.8,16.5,15.321,26.31,20.568,2.981,1.592,7.554,3.132,10.738,2.14a8.149,8.149,0,0,0,5.471-7.021c.579-6.588-4.975-12.163-11.083-16.339" transform="translate(154.361 138.084)" fill="#ffde79"/>
          <path id="Trazado_881376" data-name="Trazado 881376" d="M77.914,44.749a32.48,32.48,0,0,0-3.069-1.086c-4.061-1.222-8.165-1.284-12.294-1.389a65.019,65.019,0,0,1-10.482-.82,30.4,30.4,0,0,1-6.938-2.328c-1.916-2.02-3.383-3.628-3.879-4.046a26.838,26.838,0,0,0-4.176-.386.434.434,0,0,0-.371.726c3.127,3.263,6.953,5.721,10.681,8.248,1.869,1.269,3.727,2.568,5.466,4.009,1.764,1.467,3.388,3.09,5.121,4.589a67.128,67.128,0,0,0,11.4,7.935c3.513,1.937,7.4,3.722,11.38,3.331a8.456,8.456,0,0,0,4.62-1.817c2.1-1.77,4.474-5.591,3.545-8.572a8.408,8.408,0,0,0-3.1-3.8,33.323,33.323,0,0,0-7.9-4.594" transform="translate(154.367 146.422)" fill="#bcc768"/>
          <path id="Trazado_881377" data-name="Trazado 881377" d="M68.416,45.283a45.581,45.581,0,0,0-8-3.55,28.586,28.586,0,0,1-4.051-1.8c-1.331-.726-2.631-1.5-3.973-2.2-1.316-.689-2.668-1.316-4.03-1.9-2.777-1.18-5.622-2.166-8.473-3.116l-2.146-.7c-.553-.183-.8.444-.4.8,5.836,5.21,11.14,11.218,16.783,16.731,5.664,5.523,11.725,11.03,19.425,13.223,2.641.757,12.544,4.484,12.774-.24a4.907,4.907,0,0,0-1.258-2.97c-3.826-5.1-9.5-9.522-14.789-13.1-.626-.423-1.242-.809-1.858-1.169" transform="translate(156.75 134.967)" fill="#bcc768"/>
          <path id="Trazado_881378" data-name="Trazado 881378" d="M66.541,59.958c.146,0,.287-.005.428-.01a.559.559,0,0,0-.057-1.117c-2.6.136-5.539-1.216-8.06-3.727a39.327,39.327,0,0,1-4.15-5.21c-.538-.762-1.1-1.55-1.67-2.313A95.554,95.554,0,0,0,41.374,35.418a.558.558,0,1,0-.757.82A95.34,95.34,0,0,1,52.138,48.254c.564.746,1.117,1.53,1.655,2.286a40.152,40.152,0,0,0,4.27,5.351c2.61,2.6,5.674,4.067,8.478,4.067" transform="translate(170.653 148.842)" fill="#99b04d"/>
          <path id="Trazado_881379" data-name="Trazado 881379" d="M43.381,39.1a.551.551,0,0,0,.5-.313.558.558,0,0,0-.256-.747c-2.036-.992-4.067-2.052-6.04-3.158a.557.557,0,1,0-.548.971c1.994,1.117,4.046,2.193,6.1,3.19a.514.514,0,0,0,.245.057" transform="translate(155.109 146.917)" fill="#99b04d"/>
          <path id="Trazado_881380" data-name="Trazado 881380" d="M44.352,40.742a.559.559,0,0,0,.36-.987,80.406,80.406,0,0,1-6-5.617.557.557,0,1,0-.8.773,82.721,82.721,0,0,0,6.087,5.7.557.557,0,0,0,.36.131" transform="translate(159.307 143.346)" fill="#ffbd5c"/>
          <path id="Trazado_881381" data-name="Trazado 881381" d="M38.42,38.38a.562.562,0,0,0,.355-.12,33.178,33.178,0,0,0,3.56-3.393.558.558,0,0,0-.83-.746,31.392,31.392,0,0,1-3.44,3.273.566.566,0,0,0-.078.788.583.583,0,0,0,.433.2" transform="translate(159.789 143.212)" fill="#ffbd5c"/>
          <path id="Trazado_881382" data-name="Trazado 881382" d="M38.883,38.436a.564.564,0,0,0,.345-.12,8.231,8.231,0,0,0,2.412-3.1.557.557,0,0,0-.282-.736.564.564,0,0,0-.741.282,7.178,7.178,0,0,1-2.078,2.673.558.558,0,0,0,.345,1" transform="translate(161.732 145.328)" fill="#ffbd5c"/>
          <path id="Trazado_881383" data-name="Trazado 881383" d="M45.435,40.946a.558.558,0,0,0,.36-.981c-2.271-1.937-4.526-3.952-6.708-5.982a.558.558,0,1,0-.762.814c2.193,2.046,4.463,4.067,6.75,6.014a.526.526,0,0,0,.36.136" transform="translate(160.99 142.771)" fill="#ffbd5c"/>
          <path id="Trazado_881384" data-name="Trazado 881384" d="M40.165,38.233a.542.542,0,0,0,.381-.157,5.5,5.5,0,0,0,1.362-2.14.567.567,0,0,0-.35-.71.552.552,0,0,0-.7.35,4.483,4.483,0,0,1-1.075,1.7.556.556,0,0,0,.386.961" transform="translate(167.147 148.538)" fill="#ffbd5c"/>
          <path id="Trazado_881385" data-name="Trazado 881385" d="M38.26,35.637a.554.554,0,0,0,.5-.3,4.394,4.394,0,0,0,.47-1.592.559.559,0,1,0-1.112-.11,3.237,3.237,0,0,1-.35,1.19.559.559,0,0,0,.5.814" transform="translate(159.108 139.816)" fill="#ffbd5c"/>
          <path id="Trazado_881386" data-name="Trazado 881386" d="M71.453,65.181A81.538,81.538,0,0,1,62.5,60.159,130.881,130.881,0,0,1,46,47.223c-2.109-1.879-8-6.379-6.933-9.48.867-2.521,3.592-2.688,5.815-2.266,3.722.7,7.528,1.31,11.192,2.276C66.786,40.573,77.644,44.206,87.145,50c2.882,1.759,6.525,4.928,7.282,8.17a8.136,8.136,0,0,1-3.273,8.279c-5.382,3.842-13,1.879-19.7-1.269" transform="translate(164.326 148.97)" fill="#ffde79"/>
          <path id="Trazado_881387" data-name="Trazado 881387" d="M69.9,65.477c-.867-.658-1.7-1.357-2.5-2.093-3.111-2.882-5.246-6.39-7.428-9.9a65.054,65.054,0,0,0-6.019-8.613,30.548,30.548,0,0,0-5.528-4.8c-2.715-.626-4.839-1.075-5.45-1.289a26.908,26.908,0,0,1-2.454-3.4c-.193-.313-.005-.793.439-.689,4.4,1.044,8.457,3.1,12.523,5.022,2.041.971,4.1,1.916,6.233,2.683,2.156.778,4.375,1.352,6.546,2.083a66.66,66.66,0,0,1,12.617,5.8c3.451,2.052,6.964,4.495,8.64,8.123a8.473,8.473,0,0,1,.783,4.9c-.459,2.709-2.558,6.692-5.6,7.4a8.433,8.433,0,0,1-4.85-.747A33.38,33.38,0,0,1,69.9,65.477" transform="translate(170.712 146.33)" fill="#bcc768"/>
          <path id="Trazado_881388" data-name="Trazado 881388" d="M65.567,57.025a45.988,45.988,0,0,1-7.115-5.095,28.52,28.52,0,0,0-3.612-2.579c-1.295-.783-2.621-1.509-3.9-2.313-1.263-.783-2.485-1.629-3.68-2.511-2.427-1.8-4.719-3.743-6.985-5.721l-1.691-1.488c-.438-.386-.031-.919.485-.752,7.449,2.386,15.316,3.91,22.927,5.982,7.632,2.078,15.452,4.505,21.247,10.033,1.989,1.895,10.227,8.535,6.27,11.13a4.9,4.9,0,0,1-3.2.428c-6.332-.715-13.019-3.362-18.793-6.108-.679-.324-1.326-.658-1.947-1.008" transform="translate(162.026 154.187)" fill="#bcc768"/>
          <path id="Trazado_881389" data-name="Trazado 881389" d="M76.931,49.222a.577.577,0,0,0,.256-.063.556.556,0,0,0,.24-.752c-1.342-2.594-4.26-4.646-8.008-5.622a40.04,40.04,0,0,0-6.781-.966c-.924-.078-1.879-.157-2.814-.266a95.177,95.177,0,0,1-16.2-3.837.558.558,0,1,0-.318,1.07A96.26,96.26,0,0,0,59.7,42.666c.95.1,1.911.188,2.845.266a39.325,39.325,0,0,1,6.593.934c3.44.9,6.1,2.741,7.3,5.053a.554.554,0,0,0,.5.3" transform="translate(181.081 159.066)" fill="#99b04d"/>
          <path id="Trazado_881390" data-name="Trazado 881390" d="M69.738,49.916a.559.559,0,0,0,.01-1.117,29.878,29.878,0,0,1-8.786-1.874,124.27,124.27,0,0,1-17.075-7.136.557.557,0,1,0-.506.992,125.575,125.575,0,0,0,17.227,7.2,30.784,30.784,0,0,0,9.12,1.932Z" transform="translate(181.795 167.659)" fill="#99b04d"/>
          <path id="Trazado_881391" data-name="Trazado 881391" d="M48.924,39.5a.558.558,0,0,0,.183-1.086,82.422,82.422,0,0,0-7.992-2.36.563.563,0,0,0-.679.418.556.556,0,0,0,.418.668,80.709,80.709,0,0,1,7.888,2.328.538.538,0,0,0,.183.031" transform="translate(170.589 152.077)" fill="#ffbd5c"/>
          <path id="Trazado_881392" data-name="Trazado 881392" d="M41.351,41.653a.553.553,0,0,0,.532-.392A32.425,32.425,0,0,0,43,36.469a.557.557,0,1,0-1.1-.167,31,31,0,0,1-1.081,4.625.555.555,0,0,0,.365.7.619.619,0,0,0,.167.026" transform="translate(172.153 151.194)" fill="#ffbd5c"/>
          <path id="Trazado_881393" data-name="Trazado 881393" d="M41.893,40.529a.564.564,0,0,0,.454-.235,8.248,8.248,0,0,0,1.446-3.644.559.559,0,0,0-1.107-.157,7.163,7.163,0,0,1-1.248,3.153.559.559,0,0,0,.131.778.581.581,0,0,0,.324.1" transform="translate(174.45 151.985)" fill="#ffbd5c"/>
          <path id="Trazado_881394" data-name="Trazado 881394" d="M39.316,38.885a.562.562,0,0,0,.5-.313,4.429,4.429,0,0,1,3.325-2.224,8.487,8.487,0,0,1,4.307.621.558.558,0,0,0,.4-1.044,9.643,9.643,0,0,0-4.876-.684,5.566,5.566,0,0,0-4.155,2.84.56.56,0,0,0,.256.747.582.582,0,0,0,.245.057" transform="translate(163.57 148.376)" fill="#ffbd5c"/>
          <path id="Trazado_881395" data-name="Trazado 881395" d="M48.1,46.3a.567.567,0,0,0,.48-.271.561.561,0,0,0-.193-.767,25.365,25.365,0,0,1-4.155-3.4L39.7,37.594a16.1,16.1,0,0,1,3.571,1.044.56.56,0,0,0,.433-1.034,17.567,17.567,0,0,0-4.364-1.2,1.046,1.046,0,0,0-.908.23.841.841,0,0,0-.245.6,1.383,1.383,0,0,0,.465.908l4.808,4.531a26.357,26.357,0,0,0,4.348,3.545.566.566,0,0,0,.287.078" transform="translate(161.172 153.573)" fill="#99b04d"/>
          <path id="Trazado_881396" data-name="Trazado 881396" d="M79.814,52.948a.547.547,0,0,0,.475-.271.562.562,0,0,0-.193-.767c-3.988-2.4-19.983-9.579-28.576-13.442-1.681-.757-3.038-1.363-3.894-1.754a52.4,52.4,0,0,0-5.22-2.156,1.343,1.343,0,0,0-1.321.141.943.943,0,0,0-.313.673,1.773,1.773,0,0,0,.517,1.185,54.537,54.537,0,0,0,4.63,4.495.55.55,0,0,0,.783-.057.56.56,0,0,0-.052-.788A53.1,53.1,0,0,1,42.118,35.8a1.032,1.032,0,0,1-.162-.209l.094.031a50.883,50.883,0,0,1,5.116,2.109c.856.392,2.208,1,3.9,1.754C59.022,43.061,75.591,50.5,79.527,52.87a.539.539,0,0,0,.287.078" transform="translate(172.059 145.365)" fill="#99b04d"/>
          <path id="Trazado_881397" data-name="Trazado 881397" d="M53.515,43.585a.558.558,0,0,0,.339-1,69.086,69.086,0,0,1-5.92-5.272l-.068-.068a7.527,7.527,0,0,0-3.21-2.234.559.559,0,1,0-.287,1.081,6.61,6.61,0,0,1,2.709,1.947l.063.063a69.034,69.034,0,0,0,6.024,5.361.568.568,0,0,0,.35.12" transform="translate(185.495 147.686)" fill="#99b04d"/>
          <path id="Trazado_881398" data-name="Trazado 881398" d="M47.506,42.909a.553.553,0,0,0,.475-.266c1.211-1.952,2.516-3.884,3.889-5.737a.558.558,0,0,0-.9-.663c-1.295,1.749-2.537,3.565-3.691,5.413a.569.569,0,0,0-.183.23l-.1.245a.558.558,0,0,0,.256.715.545.545,0,0,0,.256.063" transform="translate(198.139 152.01)" fill="#99b04d"/>
          <path id="Trazado_881399" data-name="Trazado 881399" d="M141.136,35.861c-3.158,3.826-17.274,8.728-45.087,12.033C56.824,52.545,34.742,50.509,32.534,46.5l6.724,16.031c7.053,13.39,67.587,17.78,94.67,1.733Z" transform="translate(137.302 151.343)" fill="#fae6d4"/>
          <path id="Trazado_881400" data-name="Trazado 881400" d="M56.255,51.4c8.765,0,19.581-.59,31.865-1.8,31.363-3.075,52.6-8.238,54.1-13.15a.56.56,0,1,0-1.07-.329c-1.086,3.555-18.177,8.937-53.142,12.367s-52.777,1.472-54.536-1.8a.558.558,0,1,0-.981.532C33.97,49.97,42.635,51.4,56.255,51.4" transform="translate(136.843 150.775)" fill="#f2d2b5"/>
          <path id="Trazado_881401" data-name="Trazado 881401" d="M56.956,53.242c9.1,0,20.343-.611,33.1-1.864,32.554-3.195,54.6-8.551,56.16-13.641a.56.56,0,0,0-1.07-.329c-1.133,3.7-18.887,9.292-55.2,12.858S35.13,51.791,33.3,48.387a.556.556,0,0,0-.757-.23.565.565,0,0,0-.23.757c1.535,2.85,10.514,4.328,24.64,4.328" transform="translate(136.115 156.211)" fill="#f2d2b5"/>
          <path id="Trazado_881402" data-name="Trazado 881402" d="M45.312,43.48a96.65,96.65,0,0,0,16.642-1.441.559.559,0,0,0-.188-1.1,95.773,95.773,0,0,1-23.048,1.2.564.564,0,0,0-.6.522.556.556,0,0,0,.517.6c2.219.151,4.448.23,6.671.23" transform="translate(160.888 172.733)" fill="#f2d2b5"/>
          <path id="Trazado_881403" data-name="Trazado 881403" d="M40.438,44.891h.01A109.859,109.859,0,0,0,61.3,42.521a.557.557,0,1,0-.23-1.091,108.932,108.932,0,0,1-20.646,2.344.559.559,0,0,0,.01,1.117" transform="translate(168.3 174.794)" fill="#f2d2b5"/>
          <path id="Trazado_881404" data-name="Trazado 881404" d="M43.888,54.043a.592.592,0,0,0,.13-.016.558.558,0,0,0,.412-.673,87.79,87.79,0,0,1-2-12.346.558.558,0,1,0-1.112.1,89.254,89.254,0,0,0,2.025,12.5.556.556,0,0,0,.543.433" transform="translate(174.371 170.914)" fill="#f2d2b5"/>
          <path id="Trazado_881405" data-name="Trazado 881405" d="M42.777,51.046a.516.516,0,0,0,.125-.016.55.55,0,0,0,.418-.668c-.689-3.012-1.253-6.092-1.67-9.156a.559.559,0,1,0-1.107.151c.423,3.1.992,6.212,1.691,9.256a.552.552,0,0,0,.543.433" transform="translate(171.081 171.849)" fill="#f2d2b5"/>
          <path id="Trazado_881406" data-name="Trazado 881406" d="M44.448,46.306h.005a79.677,79.677,0,0,0,21.064-3.122.557.557,0,0,0-.308-1.07,78.567,78.567,0,0,1-20.766,3.075.559.559,0,0,0,.005,1.117" transform="translate(185.223 177.633)" fill="#f2d2b5"/>
          <path id="Trazado_881407" data-name="Trazado 881407" d="M46.838,44.305l.073-.005c3.122-.4,6.28-.94,9.37-1.6a.557.557,0,1,0-.23-1.091c-3.064.647-6.191,1.18-9.292,1.582a.558.558,0,0,0,.078,1.112" transform="translate(195.289 175.562)" fill="#f2d2b5"/>
          <path id="Trazado_881408" data-name="Trazado 881408" d="M42.3,52.813a.582.582,0,0,0,.261-.063.567.567,0,0,0,.235-.757,60.423,60.423,0,0,0-6.833-10.279.551.551,0,0,0-.783-.078.557.557,0,0,0-.078.788,59.222,59.222,0,0,1,6.7,10.091.565.565,0,0,0,.5.3" transform="translate(147.61 175.177)" fill="#f2d2b5"/>
          <path id="Trazado_881409" data-name="Trazado 881409" d="M39.5,48.635a.656.656,0,0,0,.172-.026.562.562,0,0,0,.36-.7,17.18,17.18,0,0,0-2.866-5.356.561.561,0,0,0-.783-.094.568.568,0,0,0-.094.788,15.882,15.882,0,0,1,2.678,5.006.564.564,0,0,0,.532.386" transform="translate(152.649 178.671)" fill="#f2d2b5"/>
          <path id="Trazado_881410" data-name="Trazado 881410" d="M43.75,44.283c.7,0,1.415-.01,2.119-.037a.559.559,0,1,0-.042-1.117,58.185,58.185,0,0,1-9.95-.5.559.559,0,1,0-.151,1.107,59.7,59.7,0,0,0,8.024.543" transform="translate(148.727 179.896)" fill="#f2d2b5"/>
          <path id="Trazado_881411" data-name="Trazado 881411" d="M48.124,46.621a.561.561,0,0,0,.553-.475l.658-4.505a.558.558,0,0,0-.47-.632.564.564,0,0,0-.637.47l-.658,4.505a.558.558,0,0,0,.47.632l.084.005" transform="translate(200.732 173.048)" fill="#f2d2b5"/>
          <path id="Trazado_881412" data-name="Trazado 881412" d="M48.223,42.492l.1-.01a72.122,72.122,0,0,0,7.491-1.738.559.559,0,0,0-.308-1.075,71.372,71.372,0,0,1-7.381,1.717.558.558,0,0,0,.1,1.107" transform="translate(201.16 167.316)" fill="#f2d2b5"/>
          <path id="Trazado_881413" data-name="Trazado 881413" d="M38.176,46.2a.559.559,0,0,0,.4-.945,8.671,8.671,0,0,1-2.109-3.779,2.731,2.731,0,0,1,.052-2,.56.56,0,0,0-.981-.538,3.756,3.756,0,0,0-.151,2.819,9.77,9.77,0,0,0,2.386,4.27.554.554,0,0,0,.4.172" transform="translate(148.527 163.107)" fill="#f2d2b5"/>
          <path id="Trazado_881414" data-name="Trazado 881414" d="M39.376,45.437a.559.559,0,0,0,.449-.224.564.564,0,0,0-.115-.783,8.211,8.211,0,0,1-2.422-2.892,3.276,3.276,0,0,1-.439-2.1.553.553,0,0,0-.428-.663.56.56,0,0,0-.663.433,4.308,4.308,0,0,0,.527,2.835,9.381,9.381,0,0,0,2.756,3.289.568.568,0,0,0,.334.11" transform="translate(150.626 163.572)" fill="#f2d2b5"/>
          <path id="Trazado_881415" data-name="Trazado 881415" d="M48.38,45.073a.554.554,0,0,0,.553-.517.56.56,0,0,0-.517-.6A5.534,5.534,0,0,1,43.8,40.62a3.042,3.042,0,0,1-.266-1.676.559.559,0,0,0-1.1-.188,4.157,4.157,0,0,0,.334,2.292,6.692,6.692,0,0,0,5.575,4.025h.042" transform="translate(178.868 161.613)" fill="#f2d2b5"/>
          <path id="Trazado_881416" data-name="Trazado 881416" d="M51.332,44.707a.559.559,0,0,0,.11-1.107,6.335,6.335,0,0,1-4.855-5.032.558.558,0,0,0-1.1.183A7.4,7.4,0,0,0,51.223,44.7l.11.01" transform="translate(191.927 160.794)" fill="#f2d2b5"/>
          <path id="Trazado_881417" data-name="Trazado 881417" d="M50.772,42.825h.01a.551.551,0,0,0,.553-.559.559.559,0,0,0-.559-.559h-.005a3.405,3.405,0,0,1-3.257-2.892.557.557,0,1,0-1.107.131,4.5,4.5,0,0,0,4.364,3.879" transform="translate(195.838 161.726)" fill="#f2d2b5"/>
          <path id="Trazado_881418" data-name="Trazado 881418" d="M53.69,41.146a.559.559,0,0,0,.4-.945,12.988,12.988,0,0,0-4.046-2.861.557.557,0,0,0-.454,1.018,12.023,12.023,0,0,1,3.7,2.615.554.554,0,0,0,.4.172" transform="translate(207.898 157.381)" fill="#f2d2b5"/>
          <path id="Trazado_881419" data-name="Trazado 881419" d="M53.876,44.433a.56.56,0,0,0,.517-.35,4.906,4.906,0,0,0-.3-3.988,10.009,10.009,0,0,0-2.454-2.955.557.557,0,1,0-.736.835A9.217,9.217,0,0,1,53.093,40.6a3.808,3.808,0,0,1,.266,3.07.56.56,0,0,0,.308.726.6.6,0,0,0,.209.042" transform="translate(214.012 156.141)" fill="#f2d2b5"/>
          <path id="Trazado_881420" data-name="Trazado 881420" d="M34,42.965a.592.592,0,0,0,.277-.073.562.562,0,0,0,.209-.762,2.269,2.269,0,0,1,.653-2.861.555.555,0,0,0,.146-.773.561.561,0,0,0-.778-.146,3.393,3.393,0,0,0-.992,4.333.556.556,0,0,0,.485.282" transform="translate(139.729 161.44)" fill="#f2d2b5"/>
          <path id="Trazado_881421" data-name="Trazado 881421" d="M41.106,43.079a.558.558,0,0,0,.428-.919,5.712,5.712,0,0,1-1.316-3.153.554.554,0,0,0-.606-.506.563.563,0,0,0-.506.606,6.808,6.808,0,0,0,1.571,3.774.555.555,0,0,0,.428.2" transform="translate(165.032 162.474)" fill="#f2d2b5"/>
          <path id="Trazado_881422" data-name="Trazado 881422" d="M64.692,71.353C73.858,66.916,83.547,53.4,85.5,45.549c.856-3.44-.287-11.615-7.783-9.778-8.342,2.036-17.953,7.272-23.282,16.788a3.143,3.143,0,0,0-.532,2.114,2,2,0,0,0,1.19,1.394c1.415.621,2.668-.334,3.732-1.175,1.269-.992,2.5-2.031,3.779-3.017.663-.512,1.352-.992,2.046-1.441-.7,1.7-2.239,8.311-10.059,18.72-1.075,1.436-5.361,6.39-3.832,8.238,1.185,1.43,3.7-.282,5.3-1.389,2.965.089,6.525-2.861,8.629-4.651" transform="translate(212.839 149.845)" fill="#ffbca8"/>
          <path id="Trazado_881423" data-name="Trazado 881423" d="M53.445,43.874h.026a39.455,39.455,0,0,0,11.37-2.417.56.56,0,0,0-.407-1.044,38.124,38.124,0,0,1-11.015,2.344.559.559,0,0,0,.026,1.117" transform="translate(223.193 170.397)" fill="#f28a70"/>
          <path id="Trazado_881424" data-name="Trazado 881424" d="M52.034,53.565a.56.56,0,0,0,.381-.151,67.242,67.242,0,0,0,9.908-11.746.561.561,0,0,0-.934-.621A66.048,66.048,0,0,1,51.653,52.6a.56.56,0,0,0-.026.788.551.551,0,0,0,.407.177" transform="translate(217.248 172.181)" fill="#f28a70"/>
          <path id="Trazado_881425" data-name="Trazado 881425" d="M53.875,48.5a.581.581,0,0,0,.376-.141,22.98,22.98,0,0,0,5.685-6.927.558.558,0,1,0-1.013-.47A21.9,21.9,0,0,1,53.5,47.523a.571.571,0,0,0-.042.793.579.579,0,0,0,.418.183" transform="translate(225.012 171.499)" fill="#f28a70"/>
          <path id="Trazado_881426" data-name="Trazado 881426" d="M55.025,38.074a.558.558,0,0,0,.224-.047,33.161,33.161,0,0,1,3.873-1.436.559.559,0,0,0-.324-1.07A34.972,34.972,0,0,0,54.8,37a.559.559,0,0,0,.224,1.07" transform="translate(229.861 149.809)" fill="#f28a70"/>
          <path id="Trazado_881427" data-name="Trazado 881427" d="M43.744,31.441a.6.6,0,0,0,.23-.047.564.564,0,0,0,.282-.741,5.47,5.47,0,0,0-2.1-2.38c-.261-.157-.522-.287-.778-.418a6.773,6.773,0,0,1-.887-.491c-1.216-.851-1.7-2.454-2.13-4.155a.56.56,0,0,0-1.086.271c.486,1.916,1.044,3.727,2.574,4.8a7.84,7.84,0,0,0,1.034.579c.245.12.475.235.694.371a4.216,4.216,0,0,1,1.66,1.885.558.558,0,0,0,.512.329" transform="translate(157.226 96.158)" fill="#6479b9"/>
          <path id="Trazado_881428" data-name="Trazado 881428" d="M44.422,18.973c-2.7,2.375-9.35,5.147-11.636,7.924-2.166,2.631-2.918,9.548-3.722,12.894-.616,2.568.548,4.782,3.524,5.633,4.557,1.305,13.761-1.582,14.366-4.568.955-4.714,1.89-22.974,3.4-31.2.183-1.018-3.393,7.089-5.93,9.318" transform="translate(121.984 40.376)" fill="#ffbca8"/>
          <path id="Trazado_881429" data-name="Trazado 881429" d="M57.157,64.484c-10.717,6.745-23.465,6.275-28.988-5.5-2.767-5.9-3.111-13.27-3.278-19.618-.313-11.97.663-26.524,12.341-34.026A29.248,29.248,0,0,1,53.153.781c7.58.073,14.893,2.887,19.383,8.681,3.367,4.348,4.108,10.655,4.072,15.911-.047,7.475-2.7,14.752-6.28,21.387A90.018,90.018,0,0,1,64.173,56.5c-2.025,2.814-3.926,6.04-7.016,7.987" transform="translate(104.849 3.291)" fill="#ffbca8"/>
          <path id="Trazado_881430" data-name="Trazado 881430" d="M30.073,20.974a.438.438,0,0,0,.162-.026,22.529,22.529,0,0,0,11.505-7.93.56.56,0,0,0-.9-.668,21.454,21.454,0,0,1-10.931,7.533.551.551,0,0,0-.371.694.557.557,0,0,0,.532.4" transform="translate(124.557 51.18)" fill="#f28a70"/>
          <path id="Trazado_881431" data-name="Trazado 881431" d="M69.615,9.461C65.126,3.667,57.812.853,50.232.78A29.248,29.248,0,0,0,34.31,5.337,23.792,23.792,0,0,0,25.535,15.5c4.171-5.283,6.588-1.258,11.124-1.425,5.5-.2,17-2.537,21.419.987,3.91,3.116,3.973,9.835,3.973,15.045,0,4.208-.867,7.721.084,10.357.778,1.269,3.451-1.931,5.925-5.643,1.253-1.879,3.649.209,4.14.449a37.251,37.251,0,0,0,1.493-9.9c.031-5.257-.71-11.563-4.077-15.911" transform="translate(107.765 3.287)" fill="#8a4340"/>
          <path id="Trazado_881432" data-name="Trazado 881432" d="M38.184,7.971c-3.8,2.537-4.871,8.123-5.121,12.377a5.065,5.065,0,0,0,.287,2.422c3.049,6.692,13.531-1.274,15-5.252C50.618,11.4,44.495,3.753,38.184,7.971" transform="translate(139.426 28.514)" fill="#ffbca8"/>
          <path id="Trazado_881433" data-name="Trazado 881433" d="M34,15.944a.558.558,0,0,0,.459-.24A27.793,27.793,0,0,1,41.9,8.385a.559.559,0,1,0-.621-.929,28.924,28.924,0,0,0-7.736,7.611.564.564,0,0,0,.141.778.558.558,0,0,0,.318.1" transform="translate(141.149 31.065)" fill="#f28a70"/>
          <path id="Trazado_881434" data-name="Trazado 881434" d="M38.638,11.79a.547.547,0,0,0,.423-.193A.556.556,0,0,0,39,10.808a15.649,15.649,0,0,0-4.265-2.636.559.559,0,1,0-.428,1.034,14.439,14.439,0,0,1,3.962,2.448.566.566,0,0,0,.365.136" transform="translate(143.351 34.316)" fill="#f28a70"/>
          <path id="Trazado_881435" data-name="Trazado 881435" d="M28.7,19.1a.558.558,0,0,0,.282-1.039l-.4-.235C29.9,16.311,31.166,13.634,30,8.048a.557.557,0,0,0-1.091.224c1.2,5.763-.339,8.055-1.6,9.276a.559.559,0,0,0,.11.887l1,.585a.561.561,0,0,0,.282.078" transform="translate(114.526 32.086)" fill="#f28a70"/>
          <path id="Trazado_881436" data-name="Trazado 881436" d="M40.038,9.4c-1.989-1.7-8.42-4.124-10.561-3.116-.82.386-1.905,3.012-.381,3.054a35.585,35.585,0,0,1,9.5,1.738c2.4.762,3.947.47,1.441-1.676" transform="translate(119.562 25.514)" fill="#8a4340"/>
          <path id="Trazado_881437" data-name="Trazado 881437" d="M26.079,9.033c1.634-1.524,6.792-3.5,8.431-2.422.626.412,1.362,3,.167,2.96a23.247,23.247,0,0,0-7.538,1.148c-1.916.606-3.122.24-1.06-1.686" transform="translate(105.519 26.595)" fill="#8a4340"/>
          <path id="Trazado_881438" data-name="Trazado 881438" d="M29.363,8.94A2.1,2.1,0,0,0,28.053,7.7c-1.483-.4-2.407,1.451-2.031,2.782a2.062,2.062,0,0,0,1.624,1.493c1.66.224,2.286-1.634,1.728-3.012l-.01-.026" transform="translate(109.465 32.279)" fill="#6c2f39"/>
          <path id="Trazado_881439" data-name="Trazado 881439" d="M33.564,11.134a.655.655,0,0,0,.47-.193.67.67,0,0,0,.005-.95,7.542,7.542,0,0,0-4.1-2.375A4.158,4.158,0,0,0,25.5,9.73a.671.671,0,1,0,1.222.553,2.833,2.833,0,0,1,3-1.342,6.231,6.231,0,0,1,3.367,1.994.672.672,0,0,0,.475.2" transform="translate(107.383 31.912)" fill="#6c2f39"/>
          <path id="Trazado_881440" data-name="Trazado 881440" d="M32.586,8.94A2.1,2.1,0,0,0,31.276,7.7c-1.483-.4-2.407,1.451-2.031,2.782a2.062,2.062,0,0,0,1.624,1.493c1.66.224,2.286-1.634,1.728-3.012l-.01-.026" transform="translate(123.067 32.279)" fill="#6c2f39"/>
          <path id="Trazado_881441" data-name="Trazado 881441" d="M36.9,11.134a.655.655,0,0,0,.47-.193.67.67,0,0,0,.005-.95,7.542,7.542,0,0,0-4.1-2.375A4.158,4.158,0,0,0,28.838,9.73a.677.677,0,0,0,.334.887.669.669,0,0,0,.887-.334,2.837,2.837,0,0,1,3-1.342,6.237,6.237,0,0,1,3.362,1.994.673.673,0,0,0,.475.2" transform="translate(121.454 31.912)" fill="#6c2f39"/>
          <path id="Trazado_881442" data-name="Trazado 881442" d="M27.551,11.624c3.1-.773,7.037-1.66,7.528-1.712l.037-.005a.625.625,0,0,1,.621.908,6.083,6.083,0,0,1-3.774,2.845,4.644,4.644,0,0,1-4.745-.971.647.647,0,0,1,.266-1.039Z" transform="translate(114.174 41.795)" fill="#fff"/>
          <path id="Trazado_881443" data-name="Trazado 881443" d="M33.469,18.117c5.46.016,15.614,3.952,20.824,5.607,9.146,2.908,18.563,5.925,20.646,10.065,0,0,2.563-5.622-.261-17.728C72.855,8.23,67.64,4.07,54.444.974,44.833-1.276,39.326.416,33.469,5.615c-3.4,3.012-5.92,9.193-8.332,14.173,1.77-2.36,3.6-1.681,8.332-1.67" transform="translate(106.085 0.002)" fill="#f6664e"/>
          <path id="Trazado_881444" data-name="Trazado 881444" d="M77.984,16.473C67.528,7.577,49.852,4.9,37.893,3.307,31.325,2.43,21.062,2.227,22.905,8.59c.971,3.351,8.358,5.7,11.991,6.687a55.077,55.077,0,0,1,2.657-8.551c2.913-.386,5.2.078,9.334,1,3.1,1.733,8.034,6.223,11.438,7.4A23.973,23.973,0,0,0,64.312,16.4c.663.057,10.858.83,13.672.073" transform="translate(95.746 12.061)" fill="#f6664e"/>
          <path id="Trazado_881445" data-name="Trazado 881445" d="M36.977,4.552c1.065.7,2.318,2.234,3.68,3.419-.428.125-2,.919-2.422,1.044-.814.251-1.253-.882-.9-1.53l-.908.063c-.4.235-.8.47-1.2.689a10.3,10.3,0,0,1-5.857,1.556c-1-.037-1.133-1.665-.392-2.057a3.105,3.105,0,0,1-2.433-1.19c-1.451.642-2.9-1.853,1.075-2.735,2.913-.459,5.231-.345,9.36.741" transform="translate(105.682 15.008)" fill="#8a4340"/>
          <path id="Trazado_881446" data-name="Trazado 881446" d="M36.382,21.7a.558.558,0,0,0,.548-.449c1.075-5.387,2.031-15.181-3.7-20.244a.558.558,0,0,0-.741.835c5.309,4.693,4.375,14.037,3.341,19.19a.558.558,0,0,0,.439.658l.11.01" transform="translate(136.341 3.664)" fill="#de4843"/>
          <path id="Trazado_881447" data-name="Trazado 881447" d="M28.157,13.406a.56.56,0,0,0,.517-.345c2.454-5.925,7.5-12.1,14.309-11.678a.557.557,0,0,0,.6-.522.568.568,0,0,0-.527-.6c-7.4-.454-12.811,6.087-15.41,12.367a.565.565,0,0,0,.3.731.623.623,0,0,0,.214.042" transform="translate(116.476 1.033)" fill="#de4843"/>
          <path id="Trazado_881448" data-name="Trazado 881448" d="M64.775,17.352a.558.558,0,0,0,.073-1.112c-.465-.063-.914-.115-1.357-.167-4.813-.585-8.619-1.044-17.6-8.488C38.94,1.821,27.022,1.675,23.227,4.64a.56.56,0,0,0,.689.882c3.44-2.688,14.8-2.433,21.267,2.923C54.413,16.1,58.558,16.6,63.36,17.179c.438.052.882.11,1.342.167l.073.005" transform="translate(97.121 11.542)" fill="#de4843"/>
          <path id="Trazado_881449" data-name="Trazado 881449" d="M65.433,16.75a.566.566,0,0,0,.444-.219.557.557,0,0,0-.1-.783c-9.657-7.314-22.609-11.532-39.6-12.9a.561.561,0,0,0-.094,1.117C42.856,5.312,55.619,9.457,65.1,16.635a.54.54,0,0,0,.334.115" transform="translate(107.89 12.014)" fill="#de4843"/>
          <path id="Trazado_881450" data-name="Trazado 881450" d="M23.1,73.58a.547.547,0,0,0,.282-.078c4.777-2.809,6.249-9,6.938-13.411.48-3.038.82-6.144,1.154-9.151a117.016,117.016,0,0,1,2.412-15.5.557.557,0,1,0-1.081-.271,116.973,116.973,0,0,0-2.443,15.65c-.329,2.991-.673,6.082-1.143,9.1-.658,4.187-2.031,10.054-6.4,12.623A.558.558,0,0,0,23.1,73.58" transform="translate(95.151 146.627)" fill="#483051"/>
          <path id="Trazado_881451" data-name="Trazado 881451" d="M46.589,63.776a.558.558,0,0,0,.063-1.112l-4.265-.532c-1.994-.251-3.889-.585-5.027-1.858A7.081,7.081,0,0,1,36.2,58.19,53.542,53.542,0,0,1,32.223,38.5a.566.566,0,0,0-.564-.553.555.555,0,0,0-.548.564,54.661,54.661,0,0,0,4.061,20.1,8.129,8.129,0,0,0,1.352,2.4c1.4,1.566,3.5,1.947,5.721,2.224l4.275.532.068.005" transform="translate(131.297 160.142)" fill="#483051"/>
          <path id="Trazado_881452" data-name="Trazado 881452" d="M53.769,65.2a.558.558,0,0,0,.183-1.086,84.094,84.094,0,0,0-33.425-4.244.558.558,0,1,0,.089,1.112,82.877,82.877,0,0,1,32.971,4.187.56.56,0,0,0,.183.031" transform="translate(84.459 251.636)" fill="#483051"/>
          <path id="Trazado_881453" data-name="Trazado 881453" d="M30.882,65.046a.656.656,0,0,0,.172-.026c10.78-3.487,22.3-3.79,33.436-4.082a.559.559,0,0,0,.543-.574.538.538,0,0,0-.574-.543c-11.213.292-22.813.6-33.749,4.134a.559.559,0,0,0,.172,1.091" transform="translate(127.971 252.456)" fill="#483051"/>
          <path id="Trazado_881454" data-name="Trazado 881454" d="M33.6,78.2h.031A124.261,124.261,0,0,0,63.108,73a.56.56,0,1,0-.329-1.07,122.776,122.776,0,0,1-29.207,5.158A.559.559,0,0,0,33.6,78.2" transform="translate(139.454 303.465)" fill="#483051"/>
          <path id="Trazado_881455" data-name="Trazado 881455" d="M34.356,75.105a85.589,85.589,0,0,0,13.155-1.018.56.56,0,0,0-.172-1.107,84.078,84.078,0,0,1-25.887.01.56.56,0,0,0-.172,1.107,85.219,85.219,0,0,0,13.077,1.008" transform="translate(87.814 307.969)" fill="#483051"/>
          <path id="Trazado_881456" data-name="Trazado 881456" d="M51.941,65.549a.557.557,0,0,0,.532-.4.549.549,0,0,0-.371-.694,98.359,98.359,0,0,0-31.322-4.244.56.56,0,0,0-.548.574.544.544,0,0,0,.574.543,97.519,97.519,0,0,1,30.972,4.192.582.582,0,0,0,.162.026" transform="translate(85.389 253.973)" fill="#483051"/>
          <path id="Trazado_881457" data-name="Trazado 881457" d="M30.787,65.648a.441.441,0,0,0,.141-.021A125.361,125.361,0,0,1,63.69,61.456H63.7a.559.559,0,1,0,0-1.117,126.281,126.281,0,0,0-33.05,4.213.557.557,0,0,0,.141,1.1" transform="translate(127.581 254.641)" fill="#483051"/>
          <path id="Trazado_881458" data-name="Trazado 881458" d="M51.807,94.525A138.917,138.917,0,0,0,69.66,93.371a.558.558,0,1,0-.146-1.107,137.38,137.38,0,0,1-32.146.381.564.564,0,0,0-.611.5.555.555,0,0,0,.5.616,138.246,138.246,0,0,0,14.554.767" transform="translate(155.109 389.363)" fill="#483051"/>
          <path id="Trazado_881459" data-name="Trazado 881459" d="M39.669,94.51a111.528,111.528,0,0,0,13.39-.8.56.56,0,0,0-.136-1.112,110.756,110.756,0,0,1-29.354-.376.555.555,0,0,0-.632.47.549.549,0,0,0,.47.632,111.649,111.649,0,0,0,16.261,1.19" transform="translate(96.778 389.158)" fill="#483051"/>
          <path id="Trazado_881460" data-name="Trazado 881460" d="M33.738,77.174h.047A178.356,178.356,0,0,0,62.032,72.5a.558.558,0,0,0,.4-.679.548.548,0,0,0-.668-.407,177.531,177.531,0,0,1-28.08,4.641.56.56,0,0,0,.052,1.117" transform="translate(140.003 301.321)" fill="#483051"/>
          <path id="Trazado_881461" data-name="Trazado 881461" d="M35.154,74.816a68.459,68.459,0,0,0,11.652-1,.556.556,0,0,0,.454-.642.564.564,0,0,0-.642-.459A67.437,67.437,0,0,1,21.7,72.347a.556.556,0,1,0-.219,1.091,68.671,68.671,0,0,0,13.672,1.378" transform="translate(88.765 305.272)" fill="#483051"/>
        </g>
      </g>
      <g id="Grupo_1102679" data-name="Grupo 1102679" transform="translate(194.305 270.932)">
        <path id="Trazado_881231" data-name="Trazado 881231" d="M642.1,289.563v-2.637l-50.46-50.376v2.64Z" transform="translate(-589.586 -169.956)" fill="#ffad09"/>
        <path id="Trazado_877632_-_Contorno" data-name="Trazado 877632 - Contorno" d="M645.2,297.05,590.638,242.58v-8.441L645.2,288.613Z" transform="translate(-590.638 -172.495)" fill="#ffad09"/>
        <path id="Trazado_881232" data-name="Trazado 881232" d="M591.638,218.175v2.64l50.46,50.376v-2.64Z" transform="translate(-589.585 -213.226)" fill="#ffad09"/>
        <path id="Trazado_877633_-_Contorno" data-name="Trazado 877633 - Contorno" d="M590.639,215.764,645.2,270.238v8.441L590.639,224.2Z" transform="translate(-590.638 -215.764)" fill="#ffad09"/>
        <path id="Trazado_881233" data-name="Trazado 881233" d="M642.1,280.376v-2.64l-50.46-50.372V230Z" transform="translate(-589.586 -191.589)" fill="#ffad09"/>
        <path id="Trazado_877634_-_Contorno" data-name="Trazado 877634 - Contorno" d="M645.2,287.864,590.638,233.39v-8.438L645.2,279.423Z" transform="translate(-590.638 -194.127)" fill="#ffad09"/>
        <path id="Trazado_881234" data-name="Trazado 881234" d="M642.1,307.934V305.3l-50.46-50.376v2.637Z" transform="translate(-589.586 -126.687)" fill="#ffad09"/>
        <path id="Trazado_877635_-_Contorno" data-name="Trazado 877635 - Contorno" d="M645.2,315.422l-54.565-54.471v-8.438L645.2,306.988Z" transform="translate(-590.638 -129.225)" fill="#ffad09"/>
        <path id="Trazado_881235" data-name="Trazado 881235" d="M642.1,298.75v-2.637l-50.46-50.376v2.64Z" transform="translate(-589.586 -148.322)" fill="#ffad09"/>
        <path id="Trazado_877636_-_Contorno" data-name="Trazado 877636 - Contorno" d="M645.2,306.238l-54.565-54.47v-8.441L645.2,297.8Z" transform="translate(-590.638 -150.86)" fill="#ffad09"/>
        <path id="Trazado_881236" data-name="Trazado 881236" d="M642.1,326.312v-2.64L591.638,273.3v2.64Z" transform="translate(-589.586 -83.42)" fill="#ffad09"/>
        <path id="Trazado_877637_-_Contorno" data-name="Trazado 877637 - Contorno" d="M645.2,333.8l-54.565-54.471v-8.441L645.2,325.358Z" transform="translate(-590.638 -85.958)" fill="#ffad09"/>
        <path id="Trazado_881237" data-name="Trazado 881237" d="M642.1,317.122v-2.637l-50.46-50.372v2.64Z" transform="translate(-589.586 -105.052)" fill="#ffad09"/>
        <path id="Trazado_877638_-_Contorno" data-name="Trazado 877638 - Contorno" d="M645.2,324.609l-54.565-54.467V261.7L645.2,316.172Z" transform="translate(-590.638 -107.59)" fill="#ffad09"/>
      </g>
    </g>
  </g>
</svg>
