<svg xmlns="http://www.w3.org/2000/svg" xmlns:xlink="http://www.w3.org/1999/xlink" width="101.8" height="101.8" viewBox="0 0 101.8 101.8">
  <defs>
    <clipPath id="clip-path">
      <rect id="Rectángulo_403976" data-name="Rectángulo 403976" width="57.905" height="57.902" fill="#fff"/>
    </clipPath>
  </defs>
  <g id="Grupo_1103294" data-name="Grupo 1103294" transform="translate(-258.711 -4510.165)">
    <g id="Grupo_156312" data-name="Grupo 156312" transform="translate(258.711 4510.165)">
      <path id="Elipse_5845" data-name="Elipse 5845" d="M50.9,0A50.9,50.9,0,1,1,0,50.9,50.9,50.9,0,0,1,50.9,0Z" transform="translate(0 0)" fill="#006d36"/>
    </g>
    <g id="Grupo_1103196" data-name="Grupo 1103196" transform="translate(280.658 4532.114)">
      <g id="Enmascarar_grupo_1103195" data-name="Enmascarar grupo 1103195" clip-path="url(#clip-path)">
        <path id="Trazado_882937" data-name="Trazado 882937" d="M4.827,2.829c0-.6-.007-1.171,0-1.742C4.839.447,5.138,0,5.8.011s.951.452.94,1.1c-.01.546,0,1.093,0,1.774,1.211,0,2.376.016,3.539-.023.123,0,.315-.323.337-.512.052-.461.014-.931.028-1.4A.872.872,0,0,1,11.565.01a.888.888,0,0,1,.954,1c0,.6,0,1.192,0,1.838h3.911c0-.648,0-1.244,0-1.84A.938.938,0,1,1,18.307.96c.006.137.007.274.008.411C18.334,2.9,18.334,2.9,19.9,2.9H22.21c0-.68,0-1.274,0-1.868a.955.955,0,1,1,1.906-.023c.023.6,0,1.194,0,1.84h3.867c0-.539.013-1.051,0-1.562C27.964.6,28.155.069,28.928,0c.629-.053.974.436.986,1.318.006.438.007.877.016,1.315a.872.872,0,0,0,.076.206h3.771c0-.581,0-1.145,0-1.708.005-.672.3-1.154,1.011-1.123.661.028.925.492.908,1.136-.014.544,0,1.089,0,1.691h3.9c0-.577,0-1.164,0-1.751,0-.652.3-1.092.96-1.078s.945.458.927,1.112c-.015.546,0,1.093,0,1.708H45.38c0-.541.017-1.077,0-1.612-.027-.668.2-1.184.915-1.205s.961.471.981,1.146C47.323,2.9,47.336,2.9,49.053,2.9H51.16c0-.679,0-1.249,0-1.819,0-.658.314-1.072.973-1.068.623,0,.922.427.938,1.03s0,1.19,0,1.756a14.422,14.422,0,0,1,1.763.441A4.744,4.744,0,0,1,57.9,7.861c.012,4.085,0,8.17,0,12.255q0,16.2,0,32.406c0,3.455-1.936,5.379-5.41,5.379H5.456C1.891,57.9,0,56,0,52.4Q0,30.443,0,8.483c0-3.4,1.358-5.03,4.827-5.654M1.953,11.592v.9q0,18.138,0,36.276c0,2.269,1.1,3.354,3.395,3.355q23.6,0,47.206,0c2.3,0,3.393-1.086,3.394-3.356q0-18.138,0-36.276c0-.29-.025-.58-.04-.9Zm4.79-6.729c0,.589-.013,1.108,0,1.626.022.667-.217,1.142-.926,1.216-.587.061-.974-.44-.993-1.237-.013-.532,0-1.066,0-1.6-2.291.124-3.25,1.816-2.785,4.7H55.891c.3-3.14-.635-4.721-2.816-4.657,0,.562.009,1.131,0,1.7-.013.634-.3,1.1-.97,1.086s-.952-.454-.945-1.1c.006-.566,0-1.132,0-1.782-.7,0-1.3-.011-1.9,0-.624.015-1.418-.162-1.817.152-.314.247-.155,1.113-.181,1.7-.027.616-.325,1.027-.937,1.024-.656,0-.959-.436-.948-1.091.009-.566,0-1.133,0-1.734H41.47c0,.656.005,1.254,0,1.851a.937.937,0,1,1-1.872,0c-.015-.466.026-.936-.029-1.4-.022-.18-.234-.478-.367-.483-1.142-.039-2.286-.022-3.506-.022,0,.642-.008,1.185,0,1.727.012.679-.272,1.158-.98,1.149-.666-.008-.932-.491-.937-1.119-.005-.564,0-1.127,0-1.71H29.914c0,.6,0,1.141,0,1.686,0,.673-.285,1.158-.993,1.143-.658-.014-.935-.483-.933-1.121,0-.564,0-1.128,0-1.707H24.23a.835.835,0,0,0-.081.207c-.011.466-.009.932-.023,1.4-.025.794-.412,1.3-1,1.234-.709-.076-.945-.553-.923-1.219.018-.535,0-1.071,0-1.622h-3.9c0,.643.008,1.238,0,1.833a.894.894,0,0,1-.955,1,.9.9,0,0,1-.921-1.035c0-.591,0-1.183,0-1.783h-3.91c0,.613-.01,1.159,0,1.7.015.651-.273,1.1-.929,1.113s-.959-.437-.957-1.084c0-.567,0-1.135,0-1.749ZM55.881,53.143a6.654,6.654,0,0,1-3.989.926q-22.365-.02-44.73-.01c-1.758,0-3.553.213-5.287-1.018A7.412,7.412,0,0,0,2.169,54.2a3.009,3.009,0,0,0,3.058,1.757q23.722-.03,47.443-.013c.274,0,.549,0,.822-.021a2.75,2.75,0,0,0,2.389-2.784" transform="translate(0 0)" fill="#fff"/>
        <path id="Trazado_882938" data-name="Trazado 882938" d="M64.418,111.644v-3.2a18.516,18.516,0,0,1-3.235-.713A5.5,5.5,0,0,1,57.7,102.68a1.963,1.963,0,0,1,1.978-2.155,6.6,6.6,0,0,1,4.715,1.433V98.632c-.56,0-1.1.016-1.643,0a5.032,5.032,0,0,1-5.045-4.664,1.809,1.809,0,0,1,1.774-2.112c1.674-.071,3.361-.134,4.992,1.092,0-.793,0-1.4,0-2.012,0-.576.011-1.152,0-1.728-.015-.665.216-1.183.939-1.185s.965.488.954,1.168c-.018,1.177-.005,2.355-.005,3.646.329-.161.587-.279.837-.41a7.547,7.547,0,0,1,4.579-.491,1.65,1.65,0,0,1,1.352,1.722,4.944,4.944,0,0,1-4.248,4.886c-.8.111-1.624.1-2.476.15v3.261a6.8,6.8,0,0,1,4.571-1.436,2,2,0,0,1,2.146,2.232,5.761,5.761,0,0,1-5.341,5.482c-.433.025-.869,0-1.361,0v3.326c.225-.135.431-.243.62-.376,1.759-1.226,3.745-1.085,5.707-.869a1.731,1.731,0,0,1,1.335,1.843,5.75,5.75,0,0,1-5.586,5.75c-.678.026-1.358,0-2.085,0v2.839c.312.016.6.043.893.043,3.043,0,6.086,0,9.129.006.3,0,.678-.045.874.112a1.4,1.4,0,0,1,.583.937c-.023.3-.415.634-.722.835-.2.128-.533.046-.807.046q-22.535,0-45.069,0c-.247,0-.558.082-.726-.036-.321-.226-.763-.559-.778-.866s.376-.7.679-.95c.174-.141.527-.079.8-.08q4.523-.006,9.047,0h.947v-2.885c-.7,0-1.4.024-2.1,0A5.75,5.75,0,0,1,33.6,112.3a1.883,1.883,0,0,1,2-2.09c1.982-.051,3.967-.117,5.667,1.485v-3.368c-.747-.075-1.486-.091-2.2-.233a5.723,5.723,0,0,1-4.516-5.452,1.968,1.968,0,0,1,2.009-2.121,6.58,6.58,0,0,1,4.694,1.45V98.765a25.347,25.347,0,0,1-3.27-.435,4.824,4.824,0,0,1-3.425-4.368,1.824,1.824,0,0,1,1.932-2.12c1.646-.053,3.289-.069,4.827,1.1,0-1.351-.005-2.519,0-3.687,0-.817.364-1.291.967-1.238.727.064.928.557.92,1.215-.014,1.167,0,2.335,0,3.7a7.028,7.028,0,0,1,4.768-1.085,1.867,1.867,0,0,1,1.975,2.312,5.011,5.011,0,0,1-4.962,4.476c-.544.024-1.09,0-1.707,0v3.322a6.638,6.638,0,0,1,4.578-1.434,2.017,2.017,0,0,1,2.109,2.348,5.764,5.764,0,0,1-5.706,5.38c-.3.008-.6,0-.976,0v3.191c.038.012.108.054.13.037,1.724-1.383,3.757-1.358,5.795-1.249a1.841,1.841,0,0,1,1.709,2.033A5.734,5.734,0,0,1,45.4,117.9c-.682.031-1.366,0-2.12,0v2.839H64.4v-2.836c-.7,0-1.379.022-2.057,0a5.73,5.73,0,0,1-5.573-5.5,1.893,1.893,0,0,1,2.051-2.2c1.959-.061,3.9-.049,5.6,1.437m-21.155,4.264c3.438.48,5.873-1.131,5.642-3.692-3.283-.533-5.528.916-5.642,3.692m15.455-3.677c.039,2.673,2.482,4.367,5.7,3.616-.138-2.735-2.41-4.193-5.7-3.616M35.6,112.2c-.129,2.649,2.391,4.277,5.657,3.7-.018-2.674-2.2-4.117-5.657-3.7m30.838,3.7c3.289.551,5.808-1.085,5.643-3.667-3.114-.676-5.68.992-5.643,3.667M36.511,102.547a3.781,3.781,0,0,0,4.751,3.653c-.123-2.471-2.044-3.969-4.751-3.653m34.662.009c-2.663-.366-4.881,1.391-4.7,3.682a3.806,3.806,0,0,0,4.7-3.682m-23.149-.021c-2.789-.268-5.008,1.526-4.676,3.721,2.685.3,4.485-1.114,4.676-3.721m16.358,3.679c.06-2.39-2.123-4.081-4.718-3.655a3.783,3.783,0,0,0,4.718,3.655m-23.13-9.573c-.253-2.23-2.029-3.266-4.675-2.775.017,2.07,1.678,3.07,4.675,2.775M71.1,93.867c-2.664-.5-4.686.718-4.621,2.777,2.923.3,4.6-.7,4.621-2.777M43.32,96.609c2.7.484,4.652-.693,4.624-2.784-2.92-.287-4.633.744-4.624,2.784m16.388-2.772c.118,2.171,2.128,3.353,4.665,2.744-.079-2.072-1.824-3.1-4.665-2.744" transform="translate(-24.889 -73.531)" fill="#fff"/>
      </g>
    </g>
  </g>
</svg>
