<svg xmlns="http://www.w3.org/2000/svg" xmlns:xlink="http://www.w3.org/1999/xlink" width="101.8" height="101.8" viewBox="0 0 101.8 101.8">
  <defs>
    <clipPath id="clip-path">
      <rect id="Rectángulo_403979" data-name="Rectángulo 403979" width="67.849" height="67.936" fill="#fff"/>
    </clipPath>
  </defs>
  <g id="Grupo_1103294" data-name="Grupo 1103294" transform="translate(-258.711 -4662.389)">
    <g id="Grupo_156312" data-name="Grupo 156312" transform="translate(258.711 4662.389)">
      <path id="Elipse_5845" data-name="Elipse 5845" d="M50.9,0A50.9,50.9,0,1,1,0,50.9,50.9,50.9,0,0,1,50.9,0Z" transform="translate(0 0)" fill="#006d36"/>
    </g>
    <g id="Grupo_1103198" data-name="Grupo 1103198" transform="translate(275.687 4676.992)">
      <g id="Grupo_1103197" data-name="Grupo 1103197" clip-path="url(#clip-path)">
        <path id="Trazado_882939" data-name="Trazado 882939" d="M18.287,63.665A9.825,9.825,0,0,1,12.7,67.659a6.473,6.473,0,0,1-8.191-7.728,1.021,1.021,0,0,0-.493-1.281A8.647,8.647,0,0,1,.007,50.98a6.3,6.3,0,0,1,7.438-6.013c1.724.281,1.69.258,2.654-1.2a8.936,8.936,0,0,1,7.515-4.339,1.46,1.46,0,0,0,.9-.256,13.6,13.6,0,0,1,7.146-3.241c2.11-.4,4.264-.574,6.4-.849.224-.029.446-.068.705-.108v-3.6c-8.777,6.942-20.494,3.183-24.279-2.926a15.948,15.948,0,0,1,5.547-4.823,10.052,10.052,0,0,1-3.047-8.3h6.881l-.448-4.3h9.961a11.829,11.829,0,0,1,1-5.747A11.158,11.158,0,0,1,33.521.065,1.332,1.332,0,0,1,34.583.2a10.811,10.811,0,0,1,5.9,10.479,3.264,3.264,0,0,0,.02.351h9.945c-.148,1.383-.293,2.743-.453,4.238H56.77a9.426,9.426,0,0,1-2.734,8.165l5.451,4.712C55.676,34.746,43.588,38.2,35.042,31.3c0,1.191-.043,2.265.042,3.33.014.178.576.429.9.448a31.607,31.607,0,0,1,9.254,1.706A17.652,17.652,0,0,1,48.409,38.4a4.132,4.132,0,0,1,1.963,2.9,21,21,0,0,1,2.787-1.417,9.506,9.506,0,0,1,8.458,1.258c4.1,2.626,6.576,6.26,6.194,11.329a6.952,6.952,0,0,1-3.936,5.839,2.337,2.337,0,0,0-.989,1.1,12.9,12.9,0,0,1-9.469,8.288,7.761,7.761,0,0,1-6.7-1.344,1.333,1.333,0,0,0-1.418-.215,36.813,36.813,0,0,1-22.6.048,12.137,12.137,0,0,1-2.351-1.058,24.583,24.583,0,0,1-2.061-1.459M48.124,49.7a36.072,36.072,0,0,1-28.366.016,1.284,1.284,0,0,0-.062.333c0,3.684-.039,7.368.036,11.05a2.16,2.16,0,0,0,.881,1.535,15.235,15.235,0,0,0,3.548,1.727,35.83,35.83,0,0,0,16.447.78,15.107,15.107,0,0,0,6.237-2.189c.535-.367,1.237-1.009,1.249-1.539.091-3.909.026-7.822.008-11.733,0-.023-.039-.045.023.022m-18.4-23.6a1.588,1.588,0,0,0-.165.294c-.4,2.39-1.677,3.871-3.62,4.177-2.127.335-3.724-.583-4.877-2.763a.97.97,0,0,0-.628-.447,4.656,4.656,0,0,1-3.369-2.06.809.809,0,0,0-.688-.3A12.977,12.977,0,0,0,11.341,28.4c4.379,5.925,16.76,5.92,21.122-.066l-2.739-2.226m13.368,2.125A4.575,4.575,0,0,1,37.786,26.3l-2.374,2.059c5.054,6.283,16.923,5.731,21.079-.017a12.838,12.838,0,0,0-5.149-3.368c.307,2.765-.615,4.546-2.7,5.369-2.044.806-3.84.128-5.549-2.112m5.165,36.486c2.671,1.779,6.6,1.037,9.638-1.727,2.926-2.661,4.235-6.851,2.9-9.34-.476.072-.959.18-1.447.214-2.208.156-2.731.675-2.888,2.919a4.214,4.214,0,0,1-2.975,3.83c-.623.191-1.316.145-1.95.31-.414.108-1.07.349-1.118.62a5.28,5.28,0,0,1-2.16,3.174M35.015,16.461c4.622-3.3,4.169-11.148-.624-13.795a1.313,1.313,0,0,0-1.128.138A8.2,8.2,0,0,0,29.586,9.22a8.459,8.459,0,0,0,3.261,7.353V6.611h2.168Zm17.28,26.366c3.729.531,4.57,1.4,5.152,4.975.047.288.495.628.824.734a7.055,7.055,0,0,1,4.911,5.036c.2.717.284,1.468.442,2.318a5.393,5.393,0,0,0,2.066-4.606c-.089-4.435-4.242-9.039-8.659-9.589a5.926,5.926,0,0,0-4.736,1.131M19.8,45.349c-.206.9-.148,1.371.731,1.906a15.805,15.805,0,0,0,3.638,1.768,35.046,35.046,0,0,0,18.285.35,22.88,22.88,0,0,0,4.8-2.06,1.574,1.574,0,0,0,.849-1.982,36.026,36.026,0,0,1-28.307.018m3.871-.782a6.112,6.112,0,0,0,.677-.968c.7-1.714,1.955-2.223,3.756-2.027a43.383,43.383,0,0,0,4.656.034V37.269a28.386,28.386,0,0,0-7.795,1.073,18.4,18.4,0,0,0-3.833,1.571c-1.944,1.1-1.9,2.255.03,3.424.781.472,1.642.811,2.509,1.231m20.537.053a32.79,32.79,0,0,0,2.92-1.581c1.4-.943,1.428-1.985-.015-2.854a18.154,18.154,0,0,0-4.05-1.8,27.155,27.155,0,0,0-7.97-1.111v4.277c.412.02.766.049,1.121.051,1.722,0,3.445.027,5.166-.011a1.276,1.276,0,0,1,1.279.7c.435.738.947,1.43,1.55,2.326m6.167,14.2c.361-.033.586-.05.81-.076,2.726-.323,2.8-.4,3.173-3.154A4.316,4.316,0,0,1,58.1,51.774c.36-.059.72-.113,1.276-.2-.416-.267-.625-.425-.854-.543-2.574-1.329-5.829-.357-7.862,1.119a.711.711,0,0,0-.27.488c-.018,2.042-.012,4.084-.012,6.179m-12.834-41.3,5.714-3.151,1.053,1.9-5.884,3.3c4.941.749,9.527-2.4,9.531-6.34-2.18,0-4.362-.054-6.538.035a2.527,2.527,0,0,0-1.72.764,34.815,34.815,0,0,0-2.157,3.5m17.113,0c-1.921,0-3.769-.007-5.617.011a.868.868,0,0,0-.514.244c-1.2,1.11-2.391,2.234-3.637,3.4l.676.932a11.421,11.421,0,0,1,5.26.338,1.48,1.48,0,0,0,1.073-.139,7.31,7.31,0,0,0,2.758-4.79M9.72,65.489c3.48.824,7.424-2.191,7.7-5.792a8.341,8.341,0,0,0-.257-2.236.759.759,0,0,0-.637-.374,4.269,4.269,0,0,0-3.747,3.106c-.52,2.061-1.165,3.974-3.058,5.3m5.2-10.327c-2.19-1.016-5.3.122-7.03,2.435-1.621,2.17-1.775,4.78-.378,6.5a4.146,4.146,0,0,0,2.666-2.7c.2-.663.29-1.363.519-2.015a7.069,7.069,0,0,1,4.223-4.225m2.444-13.55A6.9,6.9,0,0,0,11.548,45.7a4.8,4.8,0,0,0,.353,5.333,4.65,4.65,0,0,0,2.922-3.775,6.008,6.008,0,0,1,2.009-3.664,1.655,1.655,0,0,0,.535-1.979M32.753,19.588l.309-.417a3.9,3.9,0,0,1-.735-.285A10.725,10.725,0,0,1,28.3,14.2a1.506,1.506,0,0,0-.872-.691c-2.5-.728-5.051-.264-7.921-.393l1.938,4.066c3.563-3.242,6.887-2.159,8.219,2.407ZM26.065,45.194a38.5,38.5,0,0,0,15.723-.024,1.738,1.738,0,0,0-1.981-1.395q-5.872.086-11.747,0a1.766,1.766,0,0,0-2,1.419M2.7,49.392c-1.517,2.5.546,6.624,2.889,7.559.546-.624,1.1-1.238,1.626-1.871a.868.868,0,0,0,.2-.519A5.122,5.122,0,0,0,2.7,49.392M16.383,22.648a4.7,4.7,0,0,1,3.738-4.037c-.468-.43-.8-1.009-1.168-1.027-1.893-.093-3.793-.043-5.756-.043a7.687,7.687,0,0,0,3.186,5.108M50.372,49.484l4.77-1.45c.2-1.872-.57-2.8-2.482-2.921-.587-.038-1.171-.136-1.84-.217-.69,1.457-.382,3.011-.447,4.588M18.6,22.9a2.187,2.187,0,1,0,2.313-2.1A2.2,2.2,0,0,0,18.6,22.9m28.438,5.544a2.173,2.173,0,1,0-2.144-2.169,2.2,2.2,0,0,0,2.144,2.169M41.79,26.256c.463.024.951-.182,1.09-.989.082-.473.406-.9.523-1.371a1.544,1.544,0,0,0-.041-1.033,2.112,2.112,0,0,0-2.605-.809,2.214,2.214,0,0,0-1.3,2.425,2.26,2.26,0,0,0,2.33,1.778M24.962,17.515a4.31,4.31,0,0,0-.964.359c-.993.6-1.007,1.133-.22,1.961a4.841,4.841,0,0,1,.995,1.449c.264.65.661.647,1.17.462a2.192,2.192,0,0,0-.981-4.231m.15,11.071a2.5,2.5,0,0,0,2.218-1.98,2.269,2.269,0,0,0-1.375-2.387c-.507-.189-.892-.186-1.18.444a4.362,4.362,0,0,1-1.147,1.572c-.717.577-.57,1.072-.018,1.523a9.008,9.008,0,0,0,1.5.828m7.653-6.771c-1.539.467-3.34-.79-4.515,1l4.515,2.68ZM4.681,47.494A7.185,7.185,0,0,1,9.4,53.538l1.141-.567c-1.437-1.948-1.528-2.228-1.8-4.9a.878.878,0,0,0-.429-.639,4.711,4.711,0,0,0-3.631.058m12.808-.768-.337-.059a8.334,8.334,0,0,1-2.946,5.8,12.377,12.377,0,0,0,2.743-.237.814.814,0,0,0,.517-.578c.042-1.642.024-3.285.024-4.928m17.6-21.2a3.6,3.6,0,0,0,2.493-3.562H35.085Z" transform="translate(0 0)" fill="#fff"/>
        <rect id="Rectángulo_403977" data-name="Rectángulo 403977" width="2.074" height="2.073" transform="translate(43.846 55.923)" fill="#fff"/>
        <rect id="Rectángulo_403978" data-name="Rectángulo 403978" width="2.034" height="2.106" transform="translate(43.872 60.292)" fill="#fff"/>
      </g>
    </g>
  </g>
</svg>
