<svg xmlns="http://www.w3.org/2000/svg" xmlns:xlink="http://www.w3.org/1999/xlink" width="89.871" height="89.871" viewBox="0 0 89.871 89.871">
  <defs>
    <clipPath id="clip-path">
      <rect id="Rect치ngulo_403980" data-name="Rect치ngulo 403980" width="79.951" height="71.493" fill="#593c03"/>
    </clipPath>
  </defs>
  <g id="Grupo_1103294" data-name="Grupo 1103294" transform="translate(-334.778 -5516.133)">
    <g id="Grupo_1103212" data-name="Grupo 1103212" transform="translate(0 135.133)">
      <rect id="Rect치ngulo_402006" data-name="Rect치ngulo 402006" width="89.871" height="89.871" transform="translate(334.778 5381)" fill="#ffad09"/>
      <g id="Grupo_1103205" data-name="Grupo 1103205" transform="translate(339.737 5390.253)">
        <g id="Grupo_1103204" data-name="Grupo 1103204" clip-path="url(#clip-path)">
          <path id="Trazado_882940" data-name="Trazado 882940" d="M12.248,180.495v-6.182c-.314-.181-.618-.333-.9-.521a3.818,3.818,0,1,1,5.792-4.236,3.656,3.656,0,0,1-1.615,4.241,1.53,1.53,0,0,0-.853,1.63c.038,1.553.022,3.107.033,4.661a1.469,1.469,0,0,0,.1.31H27.058c-.32-.512-.609-.935-.858-1.38-1.3-2.328-1.32-4.869-1.1-7.411a2.358,2.358,0,0,1,2.612-2.15,7.691,7.691,0,0,1,4.331,1.484c.271.194.536.4.665.495,1.271-.607,2.407-1.175,3.567-1.688a5.05,5.05,0,0,1,1.216-.259,2.641,2.641,0,0,1,3.262,2.893c-.1,1.656.163,3.35-.468,4.943-.4,1.01-.905,1.979-1.363,2.964.656.272,9.026.395,12.059.134a8,8,0,0,0-.4-.769,8.413,8.413,0,0,1-1.511-4.57c-.025-1.023-.046-2.047-.018-3.069a2.444,2.444,0,0,1,2.8-2.55,7.676,7.676,0,0,1,4.208,1.505c.241.179.48.361.788.592.272-.191.542-.376.807-.568a7.755,7.755,0,0,1,4.543-1.537,2.376,2.376,0,0,1,2.485,2.173c.072,1.883.3,3.8-.405,5.626-.406,1.047-.922,2.051-1.415,3.133a3.6,3.6,0,0,0,.637.1c2.27.009,4.54-.005,6.81.013a1.417,1.417,0,0,0,1.274-.548,2.616,2.616,0,0,1,2.2-.981c1.135.01,2.271-.022,3.4.011a2.705,2.705,0,0,1,2.737,2.628c.054.869.042,1.744.009,2.614s-.508,1.366-1.218,1.333c-.677-.032-1.039-.465-1.07-1.337-.023-.643-.029-1.289,0-1.932.029-.66-.213-.995-.91-.976-.87.023-1.741.028-2.61,0-.692-.023-.936.284-.929.954.021,1.933.007,3.866.007,5.8,0,2.919,0,5.837,0,8.755,0,1.123.053,1.17,1.13,1.185.794.011,1.59-.016,2.383.006.678.019.938-.274.93-.955-.024-2.2-.011-4.4-.007-6.595,0-1.262.307-1.74,1.1-1.76.833-.02,1.2.52,1.2,1.808,0,2.236.012,4.472,0,6.709a2.83,2.83,0,0,1-3.159,3.152c-.984.007-1.967,0-2.951,0a2.568,2.568,0,0,1-2.206-.962,1.653,1.653,0,0,0-1.6-.579q-14.415,0-28.831,0-5.9,0-11.8,0a7.357,7.357,0,0,1-1.02-.03,1.146,1.146,0,0,1-.011-2.285,8.628,8.628,0,0,1,1.133-.028H70.758v-7.447H59.12c-.1.605-.162,1.165-.287,1.711a4.072,4.072,0,0,1-3.77,3.219c-.452.032-.908.02-1.361.02H9.163v2.5h1.189q5.959,0,11.918,0a4.488,4.488,0,0,1,1.017.044,1.1,1.1,0,0,1,.927,1.129,1.084,1.084,0,0,1-.931,1.12,4.9,4.9,0,0,1-1.017.048c-4.162,0-8.324.008-12.486-.005a1.605,1.605,0,0,0-1.472.611,2.546,2.546,0,0,1-2.106.934c-1.059,0-2.119.014-3.178,0A2.8,2.8,0,0,1,.011,197.3c-.017-3.638,0-7.277,0-10.915,0-1.478-.018-2.957.005-4.434a2.755,2.755,0,0,1,2.98-2.974c1.059-.015,2.119.005,3.178,0a2.614,2.614,0,0,1,2.2.982,1.384,1.384,0,0,0,1.275.546c.826-.028,1.653-.008,2.608-.008m-3.1,11.173h1.09q21.848,0,43.695,0a5.728,5.728,0,0,0,1.015-.065c1.4-.253,1.894-1.095,1.5-2.631h-1.32q-15.662,0-31.324,0c-2.973,0-4.628-1.667-4.669-4.638-.007-.471,0-.942,0-1.391H14.684c0,1.7.006,3.324,0,4.948a4.841,4.841,0,0,1-.1,1.125,1.074,1.074,0,0,1-1.055.876,1.132,1.132,0,0,1-1.161-.9,3.135,3.135,0,0,1-.07-.9c-.006-1.44,0-2.88-.008-4.32a7.611,7.611,0,0,0-.094-.837H9.144Zm47.439-8.744H21.526a18.52,18.52,0,0,0,.012,1.958,1.646,1.646,0,0,0,1.665,1.671,7.922,7.922,0,0,0,1.018.049q15.552,0,31.1,0h1.257ZM2.311,189.677c0,2.425-.007,4.85,0,7.275,0,.95.094,1.029,1.038,1.054.643.017,1.286.006,1.929,0,1.462,0,1.465,0,1.466-1.42q0-4.319,0-8.639c0-1.894-.015-3.789.006-5.683.008-.669-.237-.983-.928-.953s-1.361,0-2.042.005c-1.469,0-1.472,0-1.473,1.424q0,3.467,0,6.934M59.066,186.5h11.7v-3.556h-11.7ZM32.9,180.341c0-1.078.016-2.132-.008-3.186a6.622,6.622,0,0,0-.167-1.232,5.031,5.031,0,0,0-5.284-3.971c0,1.155-.067,2.318.017,3.471a6.356,6.356,0,0,0,1.774,3.825,3.266,3.266,0,0,0,3.668,1.093m23.953,0c0-.947.012-1.853,0-2.758a10.772,10.772,0,0,0-.1-1.473,5.017,5.017,0,0,0-5.4-4.119c0,1.044-.083,2.107.019,3.152a6.916,6.916,0,0,0,1.969,4.239,3.241,3.241,0,0,0,3.525.958m2.394-.191c2.633-1.488,4.139-6.075,2.853-8.283a4.4,4.4,0,0,0-3.756,1.781c1.153,1.98.825,4.214.9,6.5M38.316,171.88a4.8,4.8,0,0,0-3.989,1.7c1.251,2.065.777,4.343.962,6.672,3.157-2.15,3.3-5.133,3.027-8.373m-24.783-2.7a1.4,1.4,0,0,0-1.5,1.357,1.45,1.45,0,0,0,1.441,1.549,1.521,1.521,0,0,0,1.47-1.436,1.459,1.459,0,0,0-1.413-1.471" transform="translate(0 -128.884)" fill="#593c03"/>
          <path id="Trazado_882941" data-name="Trazado 882941" d="M24.153,6.616V4.029c-.332-.023-.658-.065-.984-.065-2.081-.006-4.162,0-6.242,0-.265,0-.531.012-.794-.009-.784-.063-1.266-.524-1.254-1.182a1.181,1.181,0,0,1,1.294-1.138q3.461-.038,6.923-.005a2.086,2.086,0,0,0,1.961-.78,2.538,2.538,0,0,1,1.772-.8C30.95-.025,35.074.005,39.2.012a2.255,2.255,0,0,1,1.938,1.007,1.344,1.344,0,0,0,1.329.608q2.269-.035,4.539,0a1.366,1.366,0,0,0,1.335-.617A2.366,2.366,0,0,1,50.394,0q6.071,0,12.143,0A2.331,2.331,0,0,1,64.6,1a1.439,1.439,0,0,0,1.443.623q6.015-.015,12.03,0a4.406,4.406,0,0,1,1.017.049A1.1,1.1,0,0,1,80,2.813a1.093,1.093,0,0,1-.954,1.107,5.457,5.457,0,0,1-1.018.04q-6.015,0-12.03,0c-.184,0-.368.029-.638.051v2.6h1.229q5.675,0,11.349,0a7.214,7.214,0,0,1,1.019.03,1.146,1.146,0,0,1,0,2.286,7.545,7.545,0,0,1-1.02.025c-3.972,0-7.944.007-11.917-.005a1.45,1.45,0,0,0-1.435.641,2.229,2.229,0,0,1-1.956.966q-6.128,0-12.256,0a2.406,2.406,0,0,1-2.12-1.1,1.08,1.08,0,0,0-1.043-.505c-1.664.017-3.329.013-4.993,0a.955.955,0,0,0-.947.443,2.571,2.571,0,0,1-2.319,1.174q-5.958-.015-11.917,0a2.339,2.339,0,0,1-2.093-.922,1.643,1.643,0,0,0-1.641-.7q-10.5.014-21,.005a9.786,9.786,0,0,1-1.021-.016,1.155,1.155,0,1,1,.038-2.31c.338-.033.68-.016,1.021-.016H24.153ZM26.614,2.4a44.952,44.952,0,0,0,.013,5.772H39.242A19.159,19.159,0,0,0,39.165,2.4Zm36.2.083a95.314,95.314,0,0,0-12.776.108c0,1.512-.008,3.057,0,4.6.007,1.032.036,1.06,1.1,1.062q5.378.009,10.756,0a8.164,8.164,0,0,0,.913-.106ZM41.865,6.528h5.753V4.045H41.865Z" transform="translate(-0.1 0)" fill="#593c03"/>
          <path id="Trazado_882942" data-name="Trazado 882942" d="M213.4,125.014a4.191,4.191,0,0,1-3.895-5.8,25.356,25.356,0,0,1,2.425-4.2,1.723,1.723,0,0,1,2.9-.107,38.138,38.138,0,0,1,2.633,4.592c1.023,2.067-.708,5.487-4.06,5.515m.216-7.941-.364-.017c-.538,1.024-1.12,2.028-1.6,3.079a1.682,1.682,0,0,0,.675,2.161,1.792,1.792,0,0,0,2.191.009,1.722,1.722,0,0,0,.711-2.17c-.472-1.05-1.071-2.044-1.615-3.062" transform="translate(-161.687 -88.214)" fill="#593c03"/>
          <path id="Trazado_882943" data-name="Trazado 882943" d="M243.344,68.676c-3,.018-5.09-3.245-3.969-5.569a36.238,36.238,0,0,1,2.507-4.409,1.773,1.773,0,0,1,3.047.048,27.654,27.654,0,0,1,2.37,4.1,4.192,4.192,0,0,1-3.955,5.828m.192-7.993-.325.019c-.553,1.058-1.169,2.089-1.639,3.183a1.682,1.682,0,0,0,.719,2.083,1.815,1.815,0,0,0,2.215-.021,1.689,1.689,0,0,0,.669-2.09c-.482-1.087-1.087-2.119-1.639-3.174" transform="translate(-184.8 -44.703)" fill="#593c03"/>
          <path id="Trazado_882944" data-name="Trazado 882944" d="M183.28,68.7a4.2,4.2,0,0,1-3.9-5.892,28.155,28.155,0,0,1,2.328-4.017,1.812,1.812,0,0,1,3.138,0c.871,1.321,1.618,2.728,2.363,4.127,1.226,2.3-.7,5.8-3.93,5.784m.032-8.213c-.56.958-.986,1.663-1.384,2.382a4.11,4.11,0,0,0-.441,1.029,2.178,2.178,0,0,0-.033,1.078,1.87,1.87,0,0,0,2.4,1.282,1.826,1.826,0,0,0,1.165-2.538c-.436-1.026-1.037-1.982-1.707-3.233" transform="translate(-138.374 -44.725)" fill="#593c03"/>
          <path id="Trazado_882945" data-name="Trazado 882945" d="M123.074,68.71a4.2,4.2,0,0,1-3.819-6.02,27.839,27.839,0,0,1,2.289-3.906,1.81,1.81,0,0,1,3.13.032,29.2,29.2,0,0,1,2.23,3.81,4.2,4.2,0,0,1-3.831,6.084m.194-7.96-.343,0c-.542,1.023-1.132,2.024-1.613,3.076A1.65,1.65,0,0,0,122,65.992a1.8,1.8,0,0,0,2.2,0,1.647,1.647,0,0,0,.68-2.165c-.48-1.051-1.068-2.054-1.608-3.077" transform="translate(-91.87 -44.736)" fill="#593c03"/>
          <path id="Trazado_882946" data-name="Trazado 882946" d="M157.551,120.916a4.4,4.4,0,0,1-4.458,4.173,4.164,4.164,0,0,1-4.119-4.473,10.154,10.154,0,0,1,1.13-3.05,16.179,16.179,0,0,1,1.385-2.21c1-1.438,2.455-1.46,3.4,0a42.486,42.486,0,0,1,2.157,3.724,8.906,8.906,0,0,1,.5,1.839m-4.347-4.1c-.679,1.27-1.282,2.268-1.756,3.324a1.69,1.69,0,0,0,.619,2.2,1.794,1.794,0,0,0,2.29-.006,1.672,1.672,0,0,0,.581-2.2c-.472-1.056-1.068-2.057-1.734-3.318" transform="translate(-115.139 -88.294)" fill="#593c03"/>
          <path id="Trazado_882947" data-name="Trazado 882947" d="M32.171,88.252a12.354,12.354,0,0,1,7.145,2.379,2.683,2.683,0,0,1,.59.522,1.106,1.106,0,0,1-.011,1.462,1,1,0,0,1-1.411.266c-.415-.262-.815-.548-1.238-.794a9.371,9.371,0,0,0-10.078.025c-.423.248-.825.532-1.245.785a1,1,0,0,1-1.4-.315,1.017,1.017,0,0,1-.029-1.357,3.226,3.226,0,0,1,.664-.607,12.3,12.3,0,0,1,7.01-2.367" transform="translate(-18.747 -68.19)" fill="#593c03"/>
          <path id="Trazado_882948" data-name="Trazado 882948" d="M39.92,107.5a8.4,8.4,0,0,1,5.019,1.583c.8.58,1.013,1.205.612,1.8s-1.111.7-1.894.143a5.7,5.7,0,0,0-4.607-1.046,12.684,12.684,0,0,0-2.2.839c-.241.1-.438.3-.675.413a1.138,1.138,0,0,1-1.58-.4,1.091,1.091,0,0,1,.326-1.512,8.172,8.172,0,0,1,3.9-1.711c.41-.063.827-.082,1.1-.108" transform="translate(-26.606 -83.059)" fill="#593c03"/>
          <path id="Trazado_882949" data-name="Trazado 882949" d="M6.129,9.468H2.058a6.839,6.839,0,0,1-.791-.016A1.2,1.2,0,0,1,.13,8.274,1.207,1.207,0,0,1,1.316,7.139a3.991,3.991,0,0,1,.452-.012h8.707a3.517,3.517,0,0,1,.452.015,1.192,1.192,0,0,1,1.138,1.179,1.158,1.158,0,0,1-1.187,1.125c-1.582.035-3.166.011-4.749.011v.01" transform="translate(-0.1 -5.506)" fill="#593c03"/>
          <path id="Trazado_882950" data-name="Trazado 882950" d="M47.636,125.357a4.455,4.455,0,0,1,2.855.923,1.229,1.229,0,0,1,.433,1.682,1.144,1.144,0,0,1-1.605.309,2.831,2.831,0,0,0-3.282.009,1.1,1.1,0,0,1-1.594-.338,1.141,1.141,0,0,1,.358-1.6,4.468,4.468,0,0,1,2.834-.989" transform="translate(-34.208 -96.859)" fill="#593c03"/>
          <path id="Trazado_882951" data-name="Trazado 882951" d="M56.539,146.066a1.2,1.2,0,0,1-1.165,1.148,1.243,1.243,0,0,1-1.175-1.15,1.2,1.2,0,0,1,1.178-1.131,1.168,1.168,0,0,1,1.163,1.133" transform="translate(-41.895 -111.987)" fill="#593c03"/>
          <path id="Trazado_882952" data-name="Trazado 882952" d="M124.957,23.353a1.261,1.261,0,0,1-1.194,1.14,1.214,1.214,0,0,1-1.129-1.192,1.156,1.156,0,0,1,1.177-1.115,1.207,1.207,0,0,1,1.147,1.167" transform="translate(-94.796 -17.142)" fill="#593c03"/>
          <path id="Trazado_882953" data-name="Trazado 882953" d="M158.329,22.2a1.1,1.1,0,0,1,1.072,1.193,1.132,1.132,0,1,1-2.26-.111,1.111,1.111,0,0,1,1.188-1.082" transform="translate(-121.47 -17.152)" fill="#593c03"/>
          <path id="Trazado_882954" data-name="Trazado 882954" d="M142.235,23.3A1.253,1.253,0,0,1,141.1,24.5a1.164,1.164,0,0,1-1.166-1.132,1.083,1.083,0,0,1,1.1-1.168,1.19,1.19,0,0,1,1.2,1.108" transform="translate(-108.171 -17.15)" fill="#593c03"/>
          <path id="Trazado_882955" data-name="Trazado 882955" d="M227.239,22.2a1.126,1.126,0,0,1,1.1,1.182A1.207,1.207,0,0,1,227.15,24.5a1.239,1.239,0,0,1-1.111-1.209,1.146,1.146,0,0,1,1.2-1.091" transform="translate(-174.728 -17.15)" fill="#593c03"/>
          <path id="Trazado_882956" data-name="Trazado 882956" d="M261.668,24.494a1.181,1.181,0,0,1-1.093-1.2,1.12,1.12,0,0,1,1.171-1.1,1.133,1.133,0,0,1,1.1,1.179,1.179,1.179,0,0,1-1.175,1.121" transform="translate(-201.424 -17.148)" fill="#593c03"/>
          <path id="Trazado_882957" data-name="Trazado 882957" d="M244.385,24.494a1.2,1.2,0,0,1-1.134-1.178,1.162,1.162,0,0,1,1.169-1.123,1.11,1.11,0,0,1,1.12,1.156,1.173,1.173,0,0,1-1.156,1.145" transform="translate(-188.034 -17.148)" fill="#593c03"/>
        </g>
      </g>
    </g>
  </g>
</svg>
