<svg xmlns="http://www.w3.org/2000/svg" xmlns:xlink="http://www.w3.org/1999/xlink" width="90" height="90" viewBox="0 0 90 90">
  <defs>
    <clipPath id="clip-path">
      <rect id="Rectángulo_403984" data-name="Rectángulo 403984" width="83.781" height="77.282" fill="#593c03"/>
    </clipPath>
  </defs>
  <g id="Grupo_1103295" data-name="Grupo 1103295" transform="translate(-755 -5516.133)">
    <g id="Grupo_1103211" data-name="Grupo 1103211" transform="translate(0 135.133)">
      <rect id="Rectángulo_402006" data-name="Rectángulo 402006" width="90" height="90" transform="translate(755 5381)" fill="#ffad09"/>
      <g id="Grupo_1103207" data-name="Grupo 1103207" transform="translate(758.109 5387.359)">
        <g id="Grupo_1103206" data-name="Grupo 1103206" clip-path="url(#clip-path)">
          <path id="Trazado_882958" data-name="Trazado 882958" d="M101.4,13.144a11.908,11.908,0,0,1,10.241,4.329,10.713,10.713,0,0,0,.121-2.36c.016-.711,0-1.422,0-2.229a12.131,12.131,0,0,1-8.861-5.8,10.67,10.67,0,0,1-1.5-7.058,11.885,11.885,0,0,1,10.221,4.3c.295-1.527.019-2.9.2-4.332h2.4V4.43a12.571,12.571,0,0,1,10.441-4.4,11.6,11.6,0,0,1-2.618,8.556,11.623,11.623,0,0,1-7.761,4.251v4.633a12.522,12.522,0,0,1,10.377-4.322,11.8,11.8,0,0,1-10.373,12.8v4.624a12.957,12.957,0,0,1,6.156-3.91,13.879,13.879,0,0,1,4.218-.394,11.807,11.807,0,0,1-10.372,12.8v1.564c1.477.114,2.971.037,4.46.051,1.548.014,3.1,0,4.645,0h9.106v10.29h-3.879V71.9l-2.566.12c-.2,1.7.03,3.4-.122,5.055-.9.231-24.389.289-25.96.061V72H97.543a72.077,72.077,0,0,1-.1-10.443H99.76v7.919H126.1V51.061H99.8c-.146,2.543.015,5.069-.094,7.686H97.347V50.993H93.415c-.006-3.469-.007-6.818,0-10.271h18.265V39.093a12.024,12.024,0,0,1-8.493-5.348,11.044,11.044,0,0,1-1.86-7.323A11.393,11.393,0,0,1,111.6,30.439a5.767,5.767,0,0,0,.166-2.2c.03-.71.007-1.423.007-2.234a12.17,12.17,0,0,1-8.914-5.9,10.68,10.68,0,0,1-1.452-6.967M95.955,43.183v5.3h34.172c0-1.481,0-2.9,0-4.318,0-.307-.043-.613-.071-.987ZM123.5,72.118c-1.153-.229-20.137-.2-21.049.03v2.569c.309.026.543.064.777.064q10.047-.018,20.094-.045c.03,0,.062-.042.09-.067s.055-.057.087-.092Zm-1.45-43.286c-3.922.493-7.935,4.686-7.445,7.7,4.376-.633,7.485-4.778,7.445-7.7m-7.536-5.408c4.233-.866,8.044-4.835,7.452-7.69a8.888,8.888,0,0,0-7.452,7.69m.04-13.177c3.941-.53,7.742-4.394,7.461-7.584-3.391.1-7.4,3.926-7.461,7.584M104.078,28.876c.055,3.716,4.135,7.441,7.476,7.571-.055-3.96-4.432-7.542-7.476-7.571M111.6,10.248c-.146-3.687-4.579-8.014-7.6-7.508a8.971,8.971,0,0,0,7.6,7.508m-.05,13.08c.052-3.757-4.59-7.8-7.553-7.481.476,4.194,4.534,7.378,7.553,7.481" transform="translate(-71.157)" fill="#593c03"/>
          <path id="Trazado_882959" data-name="Trazado 882959" d="M146.845,238.406a10.369,10.369,0,0,1-5.824-1.424,8.945,8.945,0,0,1-2.007-1.646,4.9,4.9,0,0,1-.051-6.709,8.144,8.144,0,0,1,4.069-2.558,12.217,12.217,0,0,1,9.249.728,6.393,6.393,0,0,1,3.222,3.361,4.787,4.787,0,0,1-.466,4.54,7.826,7.826,0,0,1-4.239,3.1,10.323,10.323,0,0,1-3.953.612m-.056-3.76a2.668,2.668,0,1,0-.085-5.333,2.667,2.667,0,0,0,.085,5.333m-4.4-5.507c-1.5.684-2.317,1.808-2.247,2.969a3.1,3.1,0,0,0,2.221,2.618,5.737,5.737,0,0,1,.026-5.587m8.951.015a14.1,14.1,0,0,1,.562,2.81,14.328,14.328,0,0,1-.55,2.81c2.635-1.32,2.77-4.181-.011-5.62" transform="translate(-104.865 -171.773)" fill="#593c03"/>
          <path id="Trazado_882960" data-name="Trazado 882960" d="M10.346,83.278l-1.616.169c.047.886.878,1.083,1.154,1.729L8.159,86.743c-.587-.191-.776-1.171-1.714-1.017-.049.516-.1,1.014-.148,1.568h-2.3c-.077-.554-.151-1.076-.228-1.633-.834.073-1.04.819-1.678,1.162L.542,85.068c.2-.51,1.006-.73,1.112-1.617L0,83.274V81.006l1.546-.139c-.029-.6-.029-.6-1.113-1.87l1.64-1.682,1.613,1.464.321-1.844H6.292l.142,1.486c.581-.012.581-.012,1.829-1.057l1.588,1.7c-.362.476-.739.964-1.1,1.462-.03.042.028.148.069.331L10.346,81ZM6.563,82.044a1.414,1.414,0,0,0-1.38-1.352,1.388,1.388,0,1,0,.062,2.774,1.415,1.415,0,0,0,1.318-1.422" transform="translate(0 -58.606)" fill="#593c03"/>
          <path id="Trazado_882961" data-name="Trazado 882961" d="M25.516,59.795,23.6,58.067c.955-.942,1.83-1.838,2.751-2.686a1.371,1.371,0,0,1,.861-.289q8.918-.018,17.835,0a1.568,1.568,0,0,1,.327.1v2.4H44.106c-5.153,0-10.305.015-15.457-.017a2.141,2.141,0,0,0-1.863.785c-.4.493-.84.948-1.27,1.427" transform="translate(-17.978 -41.962)" fill="#593c03"/>
          <path id="Trazado_882962" data-name="Trazado 882962" d="M256.8,100.877l1.8,1.711c-.9.92-1.757,1.849-2.685,2.7a1.752,1.752,0,0,1-1.087.294c-2.457.025-4.914.013-7.371.013H236.911v-2.52h1.282c4.993,0,9.987-.028,14.98.023a2.793,2.793,0,0,0,2.581-1.067,14.315,14.315,0,0,1,1.041-1.153" transform="translate(-180.471 -76.845)" fill="#593c03"/>
          <path id="Trazado_882963" data-name="Trazado 882963" d="M323.332,51.069a27.2,27.2,0,0,1,3.625,6.267A3.8,3.8,0,0,1,324.745,62a3.809,3.809,0,0,1-4.885-5.167,28.507,28.507,0,0,1,3.472-5.768m.164,4.639-.342-.023c-.386.813-.815,1.61-1.142,2.446a1.259,1.259,0,0,0,.637,1.509,1.286,1.286,0,0,0,1.451-.066,1.238,1.238,0,0,0,.5-1.545c-.331-.789-.732-1.549-1.1-2.321" transform="translate(-243.377 -38.903)" fill="#593c03"/>
          <path id="Trazado_882964" data-name="Trazado 882964" d="M253.081,68.472v-2.36c2.59-.162,5.16-.064,7.782-.063v2.422Z" transform="translate(-192.788 -50.291)" fill="#593c03"/>
          <path id="Trazado_882965" data-name="Trazado 882965" d="M77.009,85.251V83.006h7.7a6.805,6.805,0,0,1,.089,2.159,46.305,46.305,0,0,1-7.787.086" transform="translate(-58.663 -63.231)" fill="#593c03"/>
          <rect id="Rectángulo_403981" data-name="Rectángulo 403981" width="5.141" height="2.368" transform="translate(13.108 23.678)" fill="#593c03"/>
          <path id="Trazado_882966" data-name="Trazado 882966" d="M87.937,101.344V99.189a8.293,8.293,0,0,1,2.582-.147c.822-.034,1.647-.007,2.549-.007v2.377a17.594,17.594,0,0,1-5.131-.067" transform="translate(-66.987 -75.425)" fill="#593c03"/>
          <path id="Trazado_882967" data-name="Trazado 882967" d="M291.333,85h-5.089V82.784a8.264,8.264,0,0,1,2.523-.127c.824-.037,1.651-.008,2.566-.008Z" transform="translate(-218.051 -62.939)" fill="#593c03"/>
          <path id="Trazado_882968" data-name="Trazado 882968" d="M258.353,83v2.308c-.875.013-1.729.031-2.583.038-.824.007-1.648,0-2.543,0V83Z" transform="translate(-192.9 -63.225)" fill="#593c03"/>
          <path id="Trazado_882969" data-name="Trazado 882969" d="M299.733,68.483h-2.511V66.171a8.289,8.289,0,0,1,2.511-.117Z" transform="translate(-226.414 -50.289)" fill="#593c03"/>
          <path id="Trazado_882970" data-name="Trazado 882970" d="M57.613,85.314H55.087V83.019h2.426a7.406,7.406,0,0,1,.1,2.295" transform="translate(-41.963 -63.241)" fill="#593c03"/>
          <path id="Trazado_882971" data-name="Trazado 882971" d="M148.678,190.07v-2.364h2.468v2.265a8.894,8.894,0,0,1-2.468.1" transform="translate(-113.258 -142.988)" fill="#593c03"/>
          <rect id="Rectángulo_403982" data-name="Rectángulo 403982" width="2.461" height="2.333" transform="translate(40.704 44.698)" fill="#593c03"/>
          <rect id="Rectángulo_403983" data-name="Rectángulo 403983" width="2.472" height="2.306" transform="translate(45.92 44.707)" fill="#593c03"/>
        </g>
      </g>
    </g>
  </g>
</svg>
