<svg xmlns="http://www.w3.org/2000/svg" xmlns:xlink="http://www.w3.org/1999/xlink" width="90" height="90" viewBox="0 0 90 90">
  <defs>
    <clipPath id="clip-path">
      <rect id="Rect치ngulo_403985" data-name="Rect치ngulo 403985" width="83.965" height="78.691" transform="translate(-2 -2)" fill="#593c03" stroke="#593c03" stroke-width="0.5"/>
    </clipPath>
  </defs>
  <g id="Grupo_1103296" data-name="Grupo 1103296" transform="translate(-1175 -5513.133)">
    <g id="Grupo_1103210" data-name="Grupo 1103210" transform="translate(1 132.133)">
      <rect id="Rect치ngulo_402006" data-name="Rect치ngulo 402006" width="90" height="90" transform="translate(1174 5381)" fill="#ffad09"/>
      <g id="Grupo_1103209" data-name="Grupo 1103209" transform="translate(1177.711 5388.654)">
        <g id="Grupo_1103208" data-name="Grupo 1103208" clip-path="url(#clip-path)">
          <path id="Trazado_882972" data-name="Trazado 882972" d="M13.441,33.638a16.85,16.85,0,0,0,.074-1.924,2.851,2.851,0,0,1,2.2-3.088c.538-.2,1.088-.366,1.682-.565a6.455,6.455,0,0,0-1.643-3.248,1.18,1.18,0,0,0-.894-.259,4.222,4.222,0,0,1-3.445-1.138A5.03,5.03,0,0,0,8.3,22.251a11.9,11.9,0,0,1-5.99-1.537A8.063,8.063,0,0,1,.606,19.266a2.113,2.113,0,0,1,.614-3.392c1.826-1.109,1.851-1.25.5-2.854a4.107,4.107,0,0,1-.594-4.443c.805-1.516,2.435-1.926,4.384-1.305A4.916,4.916,0,0,1,8.12,9.332a1.539,1.539,0,0,0,1.569.746,27.1,27.1,0,0,1,3.255-.017,4.058,4.058,0,0,1,3.877,4.481,4.892,4.892,0,0,1-.244,1.223,13.259,13.259,0,0,0-.329,6.561,2.7,2.7,0,0,0,.351,1.053c.577.862,1.216,1.682,1.874,2.577a3.5,3.5,0,0,0,.649-3.245,18.015,18.015,0,0,1-.871-4.143,6.229,6.229,0,0,1,.8-3.864,3.856,3.856,0,0,0,.545-2.256,10.111,10.111,0,0,1,.471-3.706,2.464,2.464,0,0,1,4.177-1.133,8.5,8.5,0,0,1,1.215,1.721,6.8,6.8,0,0,1,.417.953,20.351,20.351,0,0,1,7-2.348,7.012,7.012,0,0,1,2.616-.067c1.914.348,2.588,1.38,1.922,3.232a5.525,5.525,0,0,1-2.39,2.974,22.651,22.651,0,0,1-3.259,1.565A2.418,2.418,0,0,0,30.305,16.9c-.345.759-.634,1.544-1,2.292a17.439,17.439,0,0,1-1.419,2.637,6.633,6.633,0,0,1-5.378,2.743c-1.777.073-1.785.08-2.4,1.691-.207.544-.357,1.11-.555,1.735,1.153.576,2.539.661,3.385,1.777s.4,2.428.653,3.735a7.462,7.462,0,0,0,.938.116c4.014.008,8.028-.008,12.041.019a1.652,1.652,0,0,0,1.464-.741c1.261-1.635,1.287-1.623.19-3.342a11.677,11.677,0,0,0-3.407-3.457c-.436-.291-1.053-.511-.839-1.22s.875-.559,1.381-.565c1.118-.013,2.237.052,3.431.088a2.964,2.964,0,0,0-.612-1.406,17.334,17.334,0,0,0-4.75-5.271c-.415-.3-1.055-.537-.818-1.233.219-.645.858-.583,1.385-.615a8.068,8.068,0,0,1,4.572,1.044c.32.182.642.362,1.2.677-.166-1.221-.254-2.241-.449-3.241a43.334,43.334,0,0,0-3.8-11.22c-.094-.187-.264-.375-.261-.561a1.117,1.117,0,0,1,.235-.76,1.047,1.047,0,0,1,.786-.136,1.824,1.824,0,0,1,.622.4,21.744,21.744,0,0,1,6.721,8.127c.162.33.336.655.626,1.218.294-.565.5-.937.683-1.32A21.534,21.534,0,0,1,51.47,2.156c.418-.317.861-.853,1.423-.408.6.472.226,1.078-.032,1.59a41.862,41.862,0,0,0-3.578,10.381c-.251,1.211-.421,2.439-.669,3.908.536-.282.856-.429,1.154-.611a7.823,7.823,0,0,1,4.546-1.134,3.833,3.833,0,0,1,1.1.2.655.655,0,0,1,.289,1.106,5.323,5.323,0,0,1-.869.712,17.348,17.348,0,0,0-4.919,5.775,6.791,6.791,0,0,0-.288.764c.953-.051,1.816-.165,2.672-.123.81.039,1.8-.322,2.391.9-.387.326-.762.691-1.184.987a11.019,11.019,0,0,0-4.082,4.986c.524.679,1.008,1.361,1.556,1.986a1.292,1.292,0,0,0,.83.441c3.219.029,6.438.02,9.658.006a2.646,2.646,0,0,0,.7-.256c-.238-.906-.418-1.8-.707-2.653a25.855,25.855,0,0,0-4.971-9.328,2.016,2.016,0,0,1-.364-.506.681.681,0,0,1,.689-1,2.872,2.872,0,0,1,.947.285,15.506,15.506,0,0,1,6.4,5.278c.182.258.4.491.719.877A6.522,6.522,0,0,0,65,25.554c.009-1.039,0-2.077,0-3.154-.475-.137-.864-.27-1.262-.36-2.451-.551-3.652-2.344-4.436-4.513-.24-.664-.051-.937.63-1.288.253-.13.524-.224.893-.378-.2-.321-.375-.58-.532-.849-.439-.755-.922-1.491-1.292-2.28-.429-.914-.246-1.282.664-1.643.307-.121.625-.212.959-.323-.531-.938-1.1-1.8-1.526-2.725-.7-1.527-.455-2,1.169-2.38a13.745,13.745,0,0,1,1.582-.183c.047-.37.112-.73.135-1.093a5.689,5.689,0,0,1,2-3.913c.677-.619,1.059-.623,1.748-.044a5.78,5.78,0,0,1,1.949,3.138c.116.48.219.963.319,1.408.72.114,1.382.175,2.02.33.936.227,1.126.483.887,1.419-.266,1.042-.665,2.049-1.042,3.181.087.04.255.115.422.193.779.364.9.5.7,1.338-.286,1.162-.679,2.3-1.064,3.571-.058-.1-.033.009.021.026,1.649.5,1.659.5,1.322,2.147-.122.6-.3,1.185-.51,2.011.462-.317.762-.5,1.035-.713A18.372,18.372,0,0,1,77.039,15.6a6.065,6.065,0,0,1,.967-.258c.372-.065.846-.128.942.339a1.338,1.338,0,0,1-.26,1c-.867,1.014-1.87,1.917-2.694,2.963A35.93,35.93,0,0,0,69.683,32.62a9.094,9.094,0,0,0-.142,1.016h1.431c1.171,0,2.342-.009,3.512,0a3.963,3.963,0,0,1,4.2,3.89c.029.332.013.669.013,1q0,15.553,0,31.107a9.2,9.2,0,0,1-.039,1.252,4.143,4.143,0,0,1-4.135,3.786c-.375.026-.752.008-1.129.008q-31.233,0-62.465-.01a8.7,8.7,0,0,1-2.224-.259,3.827,3.827,0,0,1-2.881-3.794c-.022-2.759-.008-5.519-.008-8.279,0-8.153.013-16.306-.01-24.459a4.121,4.121,0,0,1,1.828-3.632,3.485,3.485,0,0,1,2.127-.62c1.165.024,2.33.006,3.678.006m49.454,5.5a4.683,4.683,0,0,1,1.231.674,12.643,12.643,0,0,0,3.365,2.447,1.773,1.773,0,0,1,.787,2.376c-.369.973-.685,1.969-1.113,2.916a5.814,5.814,0,0,0-.237,4.154,10.9,10.9,0,0,1,.43,1.437,2.467,2.467,0,0,0,2.413,2.281c.166.02.333.034.5.044.477.031.856.269.837.745s-.4.686-.88.705a3.994,3.994,0,0,1-3.547-1.484c-.192-.244-.38-.492-.566-.734a7.876,7.876,0,0,0-2.408,2.069,3.85,3.85,0,0,1-1.5,1.059.744.744,0,0,1-1.1-.252c-.257-.512.022-.843.474-1.119a3.107,3.107,0,0,0,1.147-.914A2.727,2.727,0,0,1,64.3,54.065a2.263,2.263,0,0,0,.913-.826c.565-.734.331-1.246-.6-1.355a2.873,2.873,0,0,0-2.374.9c-.546.517-1.064,1.064-1.62,1.57a.711.711,0,0,1-1.107.015.721.721,0,0,1,.084-1.105c.5-.508,1-1.008,1.5-1.51a4.317,4.317,0,0,1,3.433-1.524.971.971,0,0,0,.386-.126c.13-.648.208-1.228.369-1.785s.406-1.092.617-1.635c.271-.7.593-1.383.806-2.1.243-.817.075-1.1-.7-1.5a1.1,1.1,0,0,0-.458-.192c-.9.033-1.327-.525-1.69-1.239-.12-.236-.43-.374-.758-.642a2.779,2.779,0,0,0-.082.576,16.459,16.459,0,0,1-.11,5.735,3.385,3.385,0,0,1-.406,1.167.837.837,0,0,1-.718.3.869.869,0,0,1-.524-.58,2.41,2.41,0,0,1,.112-.98,13.764,13.764,0,0,0,.1-5.842,3.641,3.641,0,0,0-.32-.746,3.692,3.692,0,0,0-3.087.906,3.936,3.936,0,0,1-.773.626.871.871,0,0,1-.783-.051,1.229,1.229,0,0,1-.19-.881c.029-.21.276-.405.453-.578a4.954,4.954,0,0,1,3.584-1.543c.567,0,1.04-.134,1.067-.774.043-1.029.012-2.061.012-3.268-2.962.006-5.888-.021-8.974.022l.347.751a31.276,31.276,0,0,1,1.6,3.524c.993,3.119.269,5.5-2.58,7.186-.238.141-.453.32-.685.487a3.128,3.128,0,0,0,2.008,2.161c.508.19,1.035.333,1.532.548A2.109,2.109,0,0,1,56.038,52.5c-.145.563-.371,1.106-.565,1.656A1.782,1.782,0,0,0,57,56.717c.164.025.334,0,.5.017a.618.618,0,0,1,.649.625c.016.422-.15.785-.615.78a5.02,5.02,0,0,1-1.709-.2,3.1,3.1,0,0,1-1.9-3.87c.164-.6.418-1.18.551-1.787a.962.962,0,0,0-.736-1.245c-.828-.265-1.631-.606-2.568-.961a13.533,13.533,0,0,1-1.131,1.42,1.049,1.049,0,0,1-.869.217.634.634,0,0,1-.37-.924,4.145,4.145,0,0,1,.511-.854c.271-.364.578-.7.892-1.077l-.565-1.2-6.531.91a5.156,5.156,0,0,1,3.054,2.825c.226.461.851.738,1.318,1.065.2.137.513.127.669.288a.985.985,0,0,1,.32.724c-.054.228-.355.443-.6.563-.153.076-.4-.018-.6-.062a3.638,3.638,0,0,1-2.626-2.123,2.589,2.589,0,0,0-1.812-1.653,3.269,3.269,0,0,0,.616,2.491,3.71,3.71,0,0,1,.69,3.309c-.171.554-.4,1.09-.627,1.626a1.635,1.635,0,0,0,.781,2.318c.219.116.523.129.68.292a.984.984,0,0,1,.3.73.912.912,0,0,1-.593.512,1.634,1.634,0,0,1-.858-.085,3.161,3.161,0,0,1-1.895-3.966,8.272,8.272,0,0,0,.589-1.375,3.69,3.69,0,0,0,.005-1.815,29.83,29.83,0,0,0-1.49-3.052c-1.18.009-2.324.1-2.914,1.4a.568.568,0,0,1-.231.286c-.215.093-.508.248-.666.169a1.09,1.09,0,0,1-.5-.633,1.148,1.148,0,0,1,.175-.7,3.156,3.156,0,0,1,2.933-1.981c1.289-.021,1.317-.089,1.446-1.343a.491.491,0,0,0-.068-.241l-4.924-1.743a7.644,7.644,0,0,0-1.7,2.82,2.826,2.826,0,0,0,.095,2.641c.424.717.746,1.5,1.2,2.193.805,1.232,1.73,2.279,3.472,1.868.222-.052.666.316.8.59.077.163-.194.662-.42.764a2.554,2.554,0,0,1-1.81.254,5.167,5.167,0,0,1-2.756-1.851c-.33-.421-.642-.856-.983-1.314a2.9,2.9,0,0,0-2.162,2.392,6.2,6.2,0,0,1-.388,1.316A4.472,4.472,0,0,1,27.553,60.9c-.477.01-.832-.14-.93-.636a.734.734,0,0,1,.638-.913,4.732,4.732,0,0,1,.619-.086,2.628,2.628,0,0,0,2.5-2.269,5.1,5.1,0,0,1,2.75-3.943c.1-.053.157-.184.228-.27-.481-1.323-.691-1.413-1.852-.706-.533.325-1.025.718-1.534,1.083a3.784,3.784,0,0,1-2.466.755c-.433-.022-.758-.183-.8-.625a.676.676,0,0,1,.729-.813,3.81,3.81,0,0,0,2.247-1A6.025,6.025,0,0,1,32.2,50.147a1,1,0,0,0,.645-.5,19.1,19.1,0,0,0,.61-1.893c-.636-.057-1.12-.137-1.6-.136-1.212,0-2.424.047-3.636.062-.463.006-.831-.136-.845-.693a.663.663,0,0,1,.689-.733c1.331-.077,2.664-.152,4-.155a21.709,21.709,0,0,1,2.263.225l.84-1.134a5.865,5.865,0,0,1-.726-5.979c.424-1.083.971-2.118,1.454-3.179.113-.248.19-.513.288-.785a99.01,99.01,0,0,0-12.668.066c0,.544.01,1.123,0,1.7-.064,3.256-.011,6.521-.238,9.766a12.3,12.3,0,0,1-4.03,7.858c-.594.592-.9.605-1.492.019A12.6,12.6,0,0,1,13.6,46.2c-.156-3.212-.053-6.437-.072-9.656,0-.445-.05-.89-.084-1.458-1.239,0-2.36-.025-3.479.006a2.612,2.612,0,0,0-2.648,2.353,7.722,7.722,0,0,0-.038,1.126q0,15.491,0,30.982a7.8,7.8,0,0,0,.054,1.25A2.519,2.519,0,0,0,9.91,73.064c.334.015.669.005,1,.005H73.505c.293,0,.588-.025.878,0a2.575,2.575,0,0,0,2.736-2.718c-.046-10.829-.02-21.658-.027-32.487a2.482,2.482,0,0,0-2.674-2.77c-1.379-.031-2.76-.013-4.139,0a5.272,5.272,0,0,0-.879.193c.4.725.729,1.33,1.057,1.938a2.429,2.429,0,0,0,2.866,1.454,2.1,2.1,0,0,1,2,.806,6.009,6.009,0,0,1,1.369,2.777.96.96,0,0,1-.558,1.248,1.778,1.778,0,0,0-1.094,2.438.955.955,0,0,1-.127.8,4.963,4.963,0,0,0-1.741,2.682.611.611,0,0,1-.907.394.983.983,0,0,1-.432-.781,3.588,3.588,0,0,1,.475-1.532,5.144,5.144,0,0,0,1.117-2.933c0-.606.613-1.225.994-1.81a4.106,4.106,0,0,1,.732-.652,12.731,12.731,0,0,0-.969-1.6c-.441-.538-.916-.463-1.351.087a2.6,2.6,0,0,0-.376,1.917c.029.475-.123.831-.675.85-.535.018-.757-.3-.768-.783C70.99,41.769,71,40.944,71,40a.842.842,0,0,0-.155-.144c-1.508-1.14-1.512-1.143-3.051.035-.376.288-.821.421-1.106.047a1.127,1.127,0,0,1,0-1.013,3.981,3.981,0,0,1,.969-.956c.281-.234.6-.417.912-.627a17.438,17.438,0,0,0-.581-1.7.918.918,0,0,0-.608-.5c-1.365-.046-2.733-.023-4.162-.023-.116,1.421-.22,2.7-.328,4.03M44.833,46.785c1.125-.212,2.651-.43,4.136-.806a9.073,9.073,0,0,0,2.391-1.057,3.552,3.552,0,0,0,1.849-3.32,8.069,8.069,0,0,0-.937-3.342c-1.716-3.546-4.339-6.405-7.037-9.2-.657-.681-1.045-.636-1.785.119a45.3,45.3,0,0,0-5.861,7.147,13.659,13.659,0,0,0-1.86,4.078,3.888,3.888,0,0,0,1.956,4.679c2.082,1.211,4.4,1.458,7.148,1.7m7.785-29.171a3.458,3.458,0,0,0-.519.047c-2.876.869-4.3,3-4.983,5.764a3.453,3.453,0,0,1-.224.967c-.147.238-.511.519-.733.484-.243-.038-.5-.386-.624-.657a1.152,1.152,0,0,1,.049-.733c.307-.992.646-1.974.963-2.962a7.351,7.351,0,0,0,.444-1.536,47.525,47.525,0,0,1,2.49-11.593c.171-.488.339-.977.569-1.641-.333.163-.473.189-.545.273-3.53,4.112-5.6,8.685-4.48,14.259.156.78.027,1.115-.45,1.247-.515.142-.907-.195-1.081-.933a1.948,1.948,0,0,1-.032-.248,21.386,21.386,0,0,1-.1-5.125,4.821,4.821,0,0,0-.181-2.087,19.623,19.623,0,0,0-4.066-6.993,9.308,9.308,0,0,0-.8-.675c.29.808.47,1.313.652,1.818a41.9,41.9,0,0,1,2.377,10.464,8.506,8.506,0,0,0,.852,3.355,13.593,13.593,0,0,1,.907,2.713.636.636,0,0,1-.538.842.687.687,0,0,1-.865-.517c-.177-.556-.319-1.125-.533-1.667-.86-2.179-2.14-3.972-4.5-4.731a5.317,5.317,0,0,0-.814-.1c.347.379.533.6.736.8a18.118,18.118,0,0,1,4.1,6.241A5.689,5.689,0,0,1,41.077,26a.652.652,0,0,1-.852.769,5.092,5.092,0,0,1-.809-.322,4.841,4.841,0,0,0-2.03-.5l3.01,4c.3-.288.572-.535.83-.8.5-.5.965-1.048,1.494-1.52A2.48,2.48,0,0,1,45.94,27.5c.392.3.7.719,1.069,1.052.418.375.671.96,1.272,1.095l2.789-3.656a8.048,8.048,0,0,0-2.288.615c-.406.166-.787.318-1.172.013-.419-.331-.261-.733-.112-1.136a18.087,18.087,0,0,1,2.783-5.16c.7-.875,1.466-1.7,2.338-2.708M15.155,40.827a21.451,21.451,0,0,1,2.276.344.915.915,0,0,1,.534.7,1.1,1.1,0,0,1-.53.736,2.047,2.047,0,0,1-.856.093c-.446.03-.892.056-1.3.082-.831,3.46.98,8.824,3.38,10.108a11.112,11.112,0,0,0,2.952-5.931c-.593-.023-1.081-.033-1.567-.064-.731-.047-1.049-.285-1.086-.788-.041-.555.327-.887,1.07-.937.567-.038,1.135-.05,1.713-.074V38.7c-.32-.037-.561-.078-.8-.091-.292-.015-.585.008-.877-.011-.758-.049-1.126-.363-1.092-.912.031-.5.366-.766,1.068-.811.566-.037,1.133-.052,1.781-.08,0-1.89,0-3.639,0-5.388a1.272,1.272,0,0,0-.956-1.187,6.289,6.289,0,0,0-4.405-.124c-1.392.439-1.626.993-1.154,2.487.648.051,1.317.06,1.969.171a.77.77,0,0,1,.726.868.806.806,0,0,1-.842.763c-.292.013-.585,0-.876.017-.362.02-.723.056-1.123.089Zm-.867-20.607.25-.112a15.936,15.936,0,0,1,.625-4.94,2.635,2.635,0,0,0-2.436-3.648,10.672,10.672,0,0,0-2.872.051,2.561,2.561,0,0,1-2.882-1.225A4.042,4.042,0,0,0,4.745,8.61a1.749,1.749,0,0,0-2.07.41,2.143,2.143,0,0,0-.251,2.357,4.481,4.481,0,0,0,.6.8,10.682,10.682,0,0,1,.891,1.2,2.148,2.148,0,0,1-.525,2.918,11.321,11.321,0,0,1-1.256.816c-.685.442-.757.806-.22,1.406a4.315,4.315,0,0,0,.871.71A8.576,8.576,0,0,0,7.267,20.62a8.022,8.022,0,0,1,5.542,1.941,1.472,1.472,0,0,0,1.491.43c-.244-.384-.413-.7-.629-.985a20.645,20.645,0,0,0-5.882-5.2,3.365,3.365,0,0,1-.93-.616.957.957,0,0,1-.138-.863c.122-.21.528-.306.824-.344.17-.021.367.172.551.271a21.3,21.3,0,0,1,5.418,4.211c.247.26.515.5.774.751m7.287,2.824a5.351,5.351,0,0,0,.911.057,5.969,5.969,0,0,0,4.862-3.295c.462-.932.851-1.9,1.242-2.866a4.077,4.077,0,0,1,2.92-2.825,5.5,5.5,0,0,0,.94-.335,6.319,6.319,0,0,0,2.983-2.195c.354-.529.979-1.154.572-1.79s-1.252-.607-1.96-.491c-1.109.182-2.219.389-3.3.68-1.928.518-3.934.932-4.988,2.965a.838.838,0,0,1-.753.245.946.946,0,0,1-.526-.6,5.938,5.938,0,0,1-.069-1.119,4.02,4.02,0,0,0-.945-2.527c-.77-.837-1.615-.652-1.969.414a11.593,11.593,0,0,0-.464,3.706,3.317,3.317,0,0,1-.316,1.675,7.188,7.188,0,0,0-.749,5.437c.09.457.252.9.44,1.559.388-.554.627-.886.856-1.225A16.8,16.8,0,0,1,25.1,16.435a1.965,1.965,0,0,1,.74-.443.923.923,0,0,1,.755.229.849.849,0,0,1,.07.783,3.175,3.175,0,0,1-.811.762,15.781,15.781,0,0,0-3.516,3.88c-.261.4-.464.848-.761,1.4M74.745,18.7l-.222-.179a5.19,5.19,0,0,0-.541.273,16.253,16.253,0,0,0-6.591,8.268c-.406,1.132-.643,2.325-.944,3.494-.1.4-.312.758-.743.678-.267-.049-.515-.344-.712-.578a1.8,1.8,0,0,1-.2-.587,13.836,13.836,0,0,0-3.514-5.7c-.285-.277-.6-.523-.9-.783.508,1.666,1.26,3.176,1.856,4.746.615,1.623,1.079,3.3,1.622,5h4.083A39.317,39.317,0,0,1,74.745,18.7m-9.7-11.973c.384-.48,1.033-.935,1.131-1.487a3.518,3.518,0,0,0-1.222-3.268,3.7,3.7,0,0,0-1.42,3.1c-.016.907.663,1.26,1.511,1.653m-4.558.521c.8,2.205,2.07,3.244,3.725,3.09.037-.84.391-1.754-.5-2.4a3.331,3.331,0,0,0-3.229-.694m.606,10.305c.614,2.023,2.12,3.176,3.8,2.891,0-.891.165-1.829-.773-2.43a3.031,3.031,0,0,0-3.026-.461m8.171-6.034a3.387,3.387,0,0,0-3.012,1.368,2.149,2.149,0,0,0,.084,2.42,3.736,3.736,0,0,0,2.928-3.788m-3.147-1.174a3.424,3.424,0,0,0,2.857-3.525c-2.029-.039-3.67,1.052-2.857,3.525m3.472,6.587c-2.229-.4-3.513,1.05-2.9,3.273,1.647-.19,2.654-1.328,2.9-3.273m-5.1-1.689c-.3-.844.055-1.755-.866-2.272a2.955,2.955,0,0,0-2.775-.439,3.418,3.418,0,0,0,3.64,2.711m4.175,6.237-2.115.635v2.317l.2.078,1.916-3.03" transform="translate(0 0)" fill="#593c03" stroke="#593c03" stroke-width="0.5"/>
          <path id="Trazado_882973" data-name="Trazado 882973" d="M56.848,251.808c1.217.632,2.318.011,3.462-.484,1.687-.73,3.937.308,4.923,1.31a.742.742,0,0,1-.987,1.109,7.786,7.786,0,0,0-1.156-.734,2.954,2.954,0,0,0-3.389.3,1.612,1.612,0,0,1-1.706.339,3.29,3.29,0,0,0-3.969,1.268c-.124.167-.24.341-.37.5-.309.385-.748.511-1.073.163a1.071,1.071,0,0,1-.15-.986,5.077,5.077,0,0,1,2.864-2.466,14.026,14.026,0,0,1,1.55-.324" transform="translate(-39.23 -188.08)" fill="#593c03" stroke="#593c03" stroke-width="0.5"/>
          <path id="Trazado_882974" data-name="Trazado 882974" d="M156.791,261.088a2.286,2.286,0,0,0,1.878-.352,4.041,4.041,0,0,1,4.492.176c.143.086.362.171.392.293.074.3.179.7.041.92-.124.195-.554.267-.846.26-.222-.005-.431-.235-.658-.34a2.556,2.556,0,0,0-3.121.391,1.2,1.2,0,0,1-1.322.41,2.515,2.515,0,0,0-3,1.226c-.092.14-.166.291-.264.426-.26.359-.548.651-1.038.362a.763.763,0,0,1-.255-1.1,4.229,4.229,0,0,1,2.025-2.143,14.067,14.067,0,0,1,1.678-.532" transform="translate(-114.582 -194.862)" fill="#593c03" stroke="#593c03" stroke-width="0.5"/>
          <path id="Trazado_882975" data-name="Trazado 882975" d="M248.2,249.537a8.784,8.784,0,0,1,1.858.64,3.131,3.131,0,0,0,1.862.511,3.974,3.974,0,0,1,3.759,2.454.807.807,0,0,1-.155,1.127c-.35.27-.774.121-1.143-.373-.1-.134-.183-.28-.277-.418a3.166,3.166,0,0,0-.29-.408,2.3,2.3,0,0,0-2.47-.8,1.439,1.439,0,0,1-1.586-.411,2.369,2.369,0,0,0-2.993-.379,5.1,5.1,0,0,1-.552.294c-.415.141-.859.212-1.066-.3a.817.817,0,0,1,.409-1.061,5.607,5.607,0,0,1,2.645-.877" transform="translate(-183.585 -186.925)" fill="#593c03" stroke="#593c03" stroke-width="0.5"/>
        </g>
      </g>
    </g>
  </g>
</svg>
