<svg xmlns="http://www.w3.org/2000/svg" width="76.883" height="80.334" viewBox="0 0 76.883 80.334">
  <g id="Grupo_1103298" data-name="Grupo 1103298" transform="translate(13455.05 11912.252)">
    <g id="aplicacion" transform="translate(-13455.05 -11912.252)">
      <path id="Trazado_881732" data-name="Trazado 881732" d="M18.644,83.449,77.227,87a38.439,38.439,0,1,0-58.583-3.551Z" transform="translate(-10.998 -18.545)" fill="#73c3f9"/>
      <path id="Trazado_881733" data-name="Trazado 881733" d="M162.082,45.716c.167,9.05.241,18.062.273,24.982h28.4V7a7.024,7.024,0,0,0-7-7H159.214a4.073,4.073,0,0,0-1.321,2.6,4.329,4.329,0,0,0,1.514,3.329c1.719,1.719,2.413,25.667,2.674,39.789Z" transform="translate(-134.839 0)" fill="#3e3e75"/>
      <path id="Trazado_881734" data-name="Trazado 881734" d="M65.069,70.7H79.833c-.1-21.294-.6-62.521-3.017-64.938-3.268-3.268,0-5.759,0-5.759H66.73a7.024,7.024,0,0,0-7,7V64.9A38.652,38.652,0,0,0,65.069,70.7Z" transform="translate(-52.08 0)" fill="#272759"/>
      <path id="Trazado_881735" data-name="Trazado 881735" d="M187.165,27.044h-2.434a3.048,3.048,0,0,0-2.5,1.308,3.048,3.048,0,0,1-2.5,1.308H161.961l.927,1.131a8.538,8.538,0,0,0-.68,5.8,5.381,5.381,0,0,0,2.864,3.193c4.951,2.51,5.653,11.152,5.69,11.666l-4.4,30.406c-.377.587-4.071,6.583-2.369,13.236a15.494,15.494,0,0,0,4.149,7.09,38.723,38.723,0,0,0,14.271.533l7.514-3.9V29.8a2.769,2.769,0,0,0-2.761-2.761Z" transform="translate(-138.255 -22.801)" fill="#e9efff"/>
      <path id="Trazado_881736" data-name="Trazado 881736" d="M103.213,81.937l4.412-30.482s-.561-9.218-5.82-11.885-2.011-8.809-2.011-8.809l-.9-1.1H96.969a3.047,3.047,0,0,1-2.5-1.308,3.047,3.047,0,0,0-2.5-1.308H89.531A2.769,2.769,0,0,0,86.77,29.8V92.49a38.354,38.354,0,0,0,18.427,9.781C95.727,93.037,103.213,81.937,103.213,81.937Z" transform="translate(-74.881 -22.801)" fill="#d3dcfb"/>
      <path id="Trazado_881737" data-name="Trazado 881737" d="M165.762,260.451a3.694,3.694,0,0,1-2.583-1.045l-.033-.028c-.011-.008-1.081-.779-2.143-4.461a2.349,2.349,0,0,1,.228-2.214,3.554,3.554,0,0,1,2.564-.943,10.256,10.256,0,1,0,3.92,8.059c0-.187-.006-.372-.016-.556A2.874,2.874,0,0,1,165.762,260.451Z" transform="translate(-125.822 -210.402)" fill="#ff4155"/>
      <path id="Trazado_881738" data-name="Trazado 881738" d="M235.59,262.188c-1.253.091-3.54.633-2.729,3.443,1.1,3.8,2.236,4.589,2.236,4.589s2.486,2.5,4.7.043A10.252,10.252,0,0,0,235.59,262.188Z" transform="translate(-197.907 -221.05)" fill="#ff7186"/>
      <circle id="Elipse_11636" data-name="Elipse 11636" cx="6.24" cy="6.24" r="6.24" transform="translate(22.799 49.416) rotate(-45)" fill="#cc0053"/>
      <path id="Trazado_881739" data-name="Trazado 881739" d="M93.882,22.648H91.057a1.949,1.949,0,0,1-1.6-.836,4.15,4.15,0,0,0-3.406-1.781H83.619a3.865,3.865,0,0,0-3.861,3.861V85.482q1.058,1.1,2.2,2.1V23.893a1.662,1.662,0,0,1,1.66-1.66h2.434a1.948,1.948,0,0,1,1.6.836,4.149,4.149,0,0,0,3.406,1.78h2.824a1.1,1.1,0,0,0,0-2.2Z" transform="translate(-68.969 -16.889)" fill="#3e3e75"/>
      <path id="Trazado_881740" data-name="Trazado 881740" d="M334.405,264.169a1.1,1.1,0,0,0-1.1,1.1V301.1q1.116-.371,2.2-.807V265.269A1.1,1.1,0,0,0,334.405,264.169Z" transform="translate(-282.734 -222.72)" fill="#59558e"/>
      <g id="Grupo_1102906" data-name="Grupo 1102906" transform="translate(23.812 5.76)">
        <path id="Trazado_881741" data-name="Trazado 881741" d="M177.791,38.908H163.863a1.1,1.1,0,1,1,0-2.2h13.928a1.1,1.1,0,1,1,0,2.2Z" transform="translate(-162.763 -36.708)" fill="#59558e"/>
      </g>
      <g id="Grupo_1102907" data-name="Grupo 1102907" transform="translate(37.74 3.143)">
        <path id="Trazado_881742" data-name="Trazado 881742" d="M265.462,60.539a1.1,1.1,0,0,1-1.1-1.1V23.894a1.662,1.662,0,0,0-1.66-1.66h-2.434a1.948,1.948,0,0,0-1.6.836,4.149,4.149,0,0,1-3.406,1.78h-2.631a1.1,1.1,0,1,1,0-2.2h2.631a1.949,1.949,0,0,0,1.6-.836,4.149,4.149,0,0,1,3.406-1.781H262.7a3.865,3.865,0,0,1,3.861,3.861V59.439A1.1,1.1,0,0,1,265.462,60.539Z" transform="translate(-251.532 -20.033)" fill="#8080bc"/>
      </g>
      <path id="Trazado_881743" data-name="Trazado 881743" d="M223.541,162.074c-.46-2.026,2.509-3.937,4.125-4.813a6.966,6.966,0,0,0-7.969,6.131,1.25,1.25,0,0,0,.79,1.3,6.96,6.96,0,0,0,5.562-.228A2.819,2.819,0,0,1,223.541,162.074Z" transform="translate(-186.945 -132.52)" fill="#88ce65"/>
      <g id="Grupo_1102908" data-name="Grupo 1102908" transform="translate(26.765 16.278)">
        <path id="Trazado_881744" data-name="Trazado 881744" d="M187.088,138.613a1.043,1.043,0,0,1-1.043-1.043V112.839a8.4,8.4,0,0,0-3.972-7.163,1.043,1.043,0,1,1,1.1-1.769,10.469,10.469,0,0,1,4.953,8.932v24.732a1.042,1.042,0,0,1-1.043,1.043Z" transform="translate(-181.583 -103.749)" fill="#6faf46"/>
      </g>
      <path id="Trazado_881745" data-name="Trazado 881745" d="M228.57,313.688a15.3,15.3,0,0,0-2.115-7.161L219.337,294.2a3.029,3.029,0,0,0-4.126-1.105l-.249.144a3.029,3.029,0,0,0-1.106,4.126l-1.016-1.76a3.22,3.22,0,0,0-4.018-1.4,3.172,3.172,0,0,0-1.5,4.495l-.319-.553a3.22,3.22,0,0,0-4.018-1.4,3.172,3.172,0,0,0-1.5,4.494l-5.03-8.712a3.22,3.22,0,0,0-4.018-1.4,3.172,3.172,0,0,0-1.5,4.495l8.4,14.542a.583.583,0,0,1,.017.551l1.528,2.494a1.6,1.6,0,0,1-.164,1.913,1.553,1.553,0,0,1-1.84.419,5.96,5.96,0,0,1-2.076-1.521,8.6,8.6,0,0,0,3.773,8.439c2.286,1.465.313.468,5.934,2.695A38.351,38.351,0,0,0,228.57,313.688Z" transform="translate(-162.341 -245.234)" fill="#ffc7ab"/>
      <path id="Trazado_881746" data-name="Trazado 881746" d="M192.352,290.835l1.277-.737a1.544,1.544,0,0,1,2.1.564l1.385,2.4a1.544,1.544,0,0,1-.564,2.1l-1.277.737a1.544,1.544,0,0,1-2.1-.564l-1.385-2.4A1.544,1.544,0,0,1,192.352,290.835Z" transform="translate(-163.249 -244.408)" fill="#fce4d9"/>
      <path id="Trazado_881747" data-name="Trazado 881747" d="M234.622,416.667l-1.779-2.9a.583.583,0,0,1-.231.808,3.723,3.723,0,0,0-2.225,2.6c-.054.268-.094.537-.122.805a6.194,6.194,0,0,0,2.011,1.414A1.887,1.887,0,0,0,234.622,416.667Z" transform="translate(-195.861 -348.844)" fill="#ffaa7b"/>
      <path id="Trazado_881748" data-name="Trazado 881748" d="M159.426,199.507a2.3,2.3,0,0,1-1.974-.8c-.562-.653-1.446-1.585-2.555-2.694a3.685,3.685,0,0,1-1.05-3.915,7.965,7.965,0,0,0-1.932.013,1.421,1.421,0,0,0-1.223,1.223,7.92,7.92,0,0,0,8.884,8.884A1.421,1.421,0,0,0,160.8,201a7.975,7.975,0,0,0-.006-2.094A2.307,2.307,0,0,1,159.426,199.507Z" transform="translate(-128.717 -161.915)" fill="#88ce65"/>
      <path id="Trazado_881749" data-name="Trazado 881749" d="M217.449,110.785a.7.7,0,0,0-.764-.377,3.9,3.9,0,0,0-2.739,5.552.7.7,0,0,0,.764.377,3.9,3.9,0,0,0,2.739-5.552Z" transform="translate(-181.763 -93.073)" fill="#aedf75"/>
      <path id="Trazado_881750" data-name="Trazado 881750" d="M387.633,81.606H377.148A4.025,4.025,0,0,0,376,84.366a2.816,2.816,0,0,0,1.342,2.092c1.135.8,1.176,1.23,1.141,1.379-.085.359-.8.543-1.039.579l-.055.008-.045.031a2.171,2.171,0,0,0-.949,1.554,1.685,1.685,0,0,0,.96,1.336c.486.3.733.613.736.933,0,.466-.519.908-.731,1.046a1.646,1.646,0,0,0-.842,1.1,2.1,2.1,0,0,0,.794,1.769c.5.5.73.962.661,1.33a1.071,1.071,0,0,1-.587.671l-.044.025a3.617,3.617,0,0,0-1.487,2.515,3.026,3.026,0,0,0,1.253,2.336h10.53A5.484,5.484,0,0,0,393.1,97.6V87.074a5.484,5.484,0,0,0-5.469-5.468Z" transform="translate(-318.604 -68.802)" fill="#ffdd40"/>
      <path id="Trazado_881751" data-name="Trazado 881751" d="M409.217,245.982c0,6.638,4.908,14.237,8.072,18.446a38.257,38.257,0,0,0,6.329-21.134,38.861,38.861,0,0,0-.229-4.2C419.095,238.6,409.217,238.316,409.217,245.982Z" transform="translate(-346.736 -201.4)" fill="#95d6f9"/>
      <path id="Trazado_881752" data-name="Trazado 881752" d="M173.612,194.517a7.884,7.884,0,0,0-4.932-2.289,3.906,3.906,0,0,0,1.114,4.1c1.352,1.352,2.117,2.186,2.543,2.681a2.539,2.539,0,0,0,2.177.88,2.569,2.569,0,0,0,1.377-.556A7.884,7.884,0,0,0,173.612,194.517Z" transform="translate(-143.782 -162.067)" fill="#aedf75"/>
      <path id="Trazado_881753" data-name="Trazado 881753" d="M249.112,159.117a1.25,1.25,0,0,0-.79-1.3,7.018,7.018,0,0,0-1.879-.442c-1.7.961-4.423,2.85-3.954,4.914a3.034,3.034,0,0,0,2.363,2.507,6.945,6.945,0,0,0,4.26-5.678Z" transform="translate(-206.122 -132.683)" fill="#aedf75"/>
      <path id="Trazado_881754" data-name="Trazado 881754" d="M314.789,81.606h-7.821a5.484,5.484,0,0,0-5.468,5.468V97.6a5.484,5.484,0,0,0,5.468,5.468h7.821c-3.125-2.431,0-4.659,0-4.659s1.671-.713,0-2.383,0-2.5,0-2.5,1.909-1.21,0-2.383,0-2.5,0-2.5,2.811-.41,0-2.383S314.789,81.606,314.789,81.606Z" transform="translate(-255.919 -68.802)" fill="#ffb332"/>
      <g id="Grupo_1102909" data-name="Grupo 1102909" transform="translate(50.357 17.464)">
        <path id="Trazado_881755" data-name="Trazado 881755" d="M350.114,113.685H333.132a1.192,1.192,0,1,1,0-2.383h16.982a1.192,1.192,0,1,1,0,2.383Z" transform="translate(-331.94 -111.302)" fill="#ff9100"/>
      </g>
      <g id="Grupo_1102910" data-name="Grupo 1102910" transform="translate(50.357 22.344)">
        <path id="Trazado_881756" data-name="Trazado 881756" d="M350.114,144.787H333.132a1.192,1.192,0,1,1,0-2.383h16.982a1.192,1.192,0,1,1,0,2.383Z" transform="translate(-331.94 -142.404)" fill="#ff9100"/>
      </g>
      <g id="Grupo_1102911" data-name="Grupo 1102911" transform="translate(50.357 27.223)">
        <path id="Trazado_881757" data-name="Trazado 881757" d="M350.114,175.887H333.132a1.192,1.192,0,1,1,0-2.383h16.982a1.192,1.192,0,1,1,0,2.383Z" transform="translate(-331.94 -173.504)" fill="#ff9100"/>
      </g>
    </g>
  </g>
</svg>
