<svg xmlns="http://www.w3.org/2000/svg" width="76.883" height="76.883" viewBox="0 0 76.883 76.883">
  <g id="Grupo_1103297" data-name="Grupo 1103297" transform="translate(13572.176 11910.383)">
    <g id="remolacha" transform="translate(-13572.176 -11910.383)">
      <path id="Trazado_881640" data-name="Trazado 881640" d="M51.5,0A38.455,38.455,0,0,0,15.674,24.467C13.983,28.8,19.093,38.932,36.445,44.146,63.869,52.385,89.923,39.5,89.923,39.5q.014-.528.014-1.059A38.442,38.442,0,0,0,51.5,0Z" transform="translate(-13.055)" fill="#ffe046"/>
      <path id="Trazado_881641" data-name="Trazado 881641" d="M76.765,84.827q.075-.968.1-1.949H67.2a5.992,5.992,0,0,1-4.578-2.061l-.019-.022a7.388,7.388,0,0,1-1.722-6.218l.162-.876a1.741,1.741,0,0,1,2.034-1.386A3.9,3.9,0,0,0,66.41,65.6a3.332,3.332,0,0,1-1.091-2.443,3.916,3.916,0,0,0-1.823-3.2,4.98,4.98,0,0,1-1.878-2,3.911,3.911,0,0,0-1.438-1.608,3.333,3.333,0,0,1-1.518-2.2,3.9,3.9,0,0,0-7.717.815v.014A1.085,1.085,0,0,1,50.233,56a3.9,3.9,0,0,0-2.511,4.2,4.1,4.1,0,0,0,3.657,3.359q.1.005.205.005a1.709,1.709,0,0,1,1.733,1.694v1.1A1.178,1.178,0,0,1,51,66.662a1.61,1.61,0,0,0-3.109.835l3.122,11.626a4.945,4.945,0,0,0-2.582,1.568,6.289,6.289,0,0,1-4.742,2.187H38.867a6.128,6.128,0,0,1-4.438-1.916q-.059-.063-.117-.128a7.249,7.249,0,0,1-1.628-6.1l.194-1.048a1.73,1.73,0,0,1,2.033-1.37q.112.02.227.034a3.9,3.9,0,0,0,3.1-6.745,3.33,3.33,0,0,1-1.09-2.4c0-.013,0-.027,0-.04a3.917,3.917,0,0,0-1.826-3.2,4.952,4.952,0,0,1-1.874-2,3.911,3.911,0,0,0-1.44-1.611,3.333,3.333,0,0,1-1.518-2.2,3.9,3.9,0,0,0-7.717.815v.014A1.085,1.085,0,0,1,22.066,56a3.9,3.9,0,0,0-2.511,4.2,4.1,4.1,0,0,0,3.657,3.359q.1.005.205.005a1.709,1.709,0,0,1,1.733,1.694v1.1a1.178,1.178,0,0,1-2.316.306,1.61,1.61,0,0,0-3.109.835l2.97,11.061c-.026,0-.054.01-.082.016a6.316,6.316,0,0,1-7.9-5.454q-.15-1.691-.151-3.422,0-.127,0-.253c.043-6.637-9.082-8.51-11.632-2.383A38.307,38.307,0,0,0,0,81.456c-.011,1.135.032,2.259.118,3.371H76.765ZM56.374,71.063c.069.018.138.035.208.049l.046.009a1.743,1.743,0,0,1,1.407,2.023l-.69,3.729a3.371,3.371,0,0,0-.971-.4Zm-28.167,0c.069.018.138.035.208.049l.046.009a1.743,1.743,0,0,1,1.407,2.023L29.191,76.8a3.484,3.484,0,0,0-.984-.642Z" transform="translate(0.001 -43.377)" fill="#fcb54c"/>
      <g id="Grupo_1102897" data-name="Grupo 1102897" transform="translate(0.092 9.259)">
        <path id="Trazado_881642" data-name="Trazado 881642" d="M46.3,255.06a8.655,8.655,0,0,0,6.706,3.162h49.211a2.534,2.534,0,0,1,.667.091,38.323,38.323,0,0,0,11.55-24.92h-12.88a6.081,6.081,0,0,1-4.738-2.248,4.4,4.4,0,0,0-3.433-1.643c-.048,0-.1,0-.145,0a3.4,3.4,0,0,0-6.623,0l-.1,0a4.936,4.936,0,0,0-3.793,1.772,6.094,6.094,0,0,1-4.685,2.12H73.219a6.146,6.146,0,0,1-4.974-2.556,4.4,4.4,0,0,0-3.572-1.825c-.048,0-.1,0-.145,0a3.4,3.4,0,0,0-6.623,0l-.1,0a4.938,4.938,0,0,0-3.906,1.911,6.244,6.244,0,0,1-4.912,2.47H44.311v16.136a8.6,8.6,0,0,0,1.894,5.416Z" transform="translate(-37.733 -201.578)" fill="#a55a3c"/>
        <path id="Trazado_881643" data-name="Trazado 881643" d="M38.958,269.2a38.321,38.321,0,0,0,27.508-11.591,2.858,2.858,0,0,0-3.426-4.5l-.169.093a1.136,1.136,0,0,1-1.293-1.853l.041-.035c5.507-4.674,5.328-12.441-.209-16.207a3.741,3.741,0,0,1-1.559-3.777,4.505,4.505,0,0,0-2.785-1.756l-.566,3.057v-3.125a3.651,3.651,0,0,0-.387,0,3.4,3.4,0,0,0-5.5-1.817l1.557,5.8c-7.237,1.8-10.591,9.91-5.335,16.318l.047.057a4.383,4.383,0,0,1-3.833,7.187,33.482,33.482,0,0,1-9.076-2.341,2.007,2.007,0,0,1-.545-3.372l.023-.02c5.526-4.69,5.326-12.5-.268-16.246a3.525,3.525,0,0,1-1.533-3.564l.005-.028a5.766,5.766,0,0,0-2.7-2.232l-.627,3.39V229.08a4.315,4.315,0,0,0-.928-.066,3.4,3.4,0,0,0-5.157-2.071L24,233.483a10.509,10.509,0,0,0-7.034,5.611,10.356,10.356,0,0,0-9.177-5.7c-1.748-.007-4.063-.018-7.185-.008A38.441,38.441,0,0,0,38.958,269.2Z" transform="translate(-0.608 -201.577)" fill="#783c28"/>
        <g id="Grupo_1102888" data-name="Grupo 1102888" transform="translate(12.599)">
          <g id="Grupo_1102881" data-name="Grupo 1102881" transform="translate(8.991 8.302)">
            <path id="Trazado_881644" data-name="Trazado 881644" d="M156.222,120.5c0-.013,0-.027,0-.04a3.9,3.9,0,1,0-7.8.231,3.9,3.9,0,0,0-.936,7.721l.046.009a1.743,1.743,0,0,1,1.407,2.023l-4.9,26.463,3.007.556,4.9-26.463a1.743,1.743,0,0,1,2.038-1.386q.111.02.225.034a3.9,3.9,0,0,0,3.1-6.745A3.331,3.331,0,0,1,156.222,120.5Z" transform="translate(-144.04 -116.665)" fill="#489160"/>
          </g>
          <g id="Grupo_1102882" data-name="Grupo 1102882" transform="translate(3.539)">
            <path id="Trazado_881645" data-name="Trazado 881645" d="M118.8,64.636,118.8,64.6a3.9,3.9,0,0,0-7.717.815v.014a1.089,1.089,0,0,1-.716,1.021A3.9,3.9,0,0,0,111.471,74q.115.007.228.008a1.743,1.743,0,0,1,1.752,1.734v26.912h3.058V75.739a1.743,1.743,0,0,1,1.752-1.734h.046a3.9,3.9,0,0,0,2.006-7.2,3.33,3.33,0,0,1-1.51-2.165Z" transform="translate(-107.82 -61.51)" fill="#a0c83d"/>
          </g>
          <g id="Grupo_1102883" data-name="Grupo 1102883" transform="translate(3.689 14.406)">
            <path id="Trazado_881646" data-name="Trazado 881646" d="M116.308,182.341a1.61,1.61,0,0,1-1.554-1.192l-5.883-21.907a1.61,1.61,0,1,1,3.109-.835l5.883,21.906a1.611,1.611,0,0,1-1.556,2.027Z" transform="translate(-108.816 -157.214)" fill="#489160"/>
          </g>
          <g id="Grupo_1102884" data-name="Grupo 1102884" transform="translate(5.178 31.564)">
            <path id="Trazado_881647" data-name="Trazado 881647" d="M124.229,271.2a11.365,11.365,0,0,0-5.521,1.409v13.227c2.748,2.766,4.534,10.938,5.016,14.836a.508.508,0,0,0,1.009,0,17.688,17.688,0,0,1,6.144-11.3,11.24,11.24,0,0,0,4.051-8.341c0-5.429-4.79-9.831-10.7-9.831Z" transform="translate(-118.708 -271.205)" fill="#fff5aa"/>
          </g>
          <g id="Grupo_1102887" data-name="Grupo 1102887" transform="translate(0 32.239)">
            <g id="Grupo_1102885" data-name="Grupo 1102885">
              <path id="Trazado_881648" data-name="Trazado 881648" d="M93.916,291.046a11.852,11.852,0,0,1-2.251-2.557.613.613,0,0,1,.513-.948H93.3a.966.966,0,1,0,0-1.932H91.5a1.509,1.509,0,0,1-1.486-1.247,9.618,9.618,0,0,1-.146-1.658h0a1.509,1.509,0,0,1,1.509-1.509h5.16a.966.966,0,1,0,0-1.932H91.819a.8.8,0,0,1-.687-1.194,9.757,9.757,0,0,1,.744-1.1.8.8,0,0,0-.906-1.234,9.873,9.873,0,0,0-6.662,9.105,11.24,11.24,0,0,0,4.051,8.341,17.688,17.688,0,0,1,6.144,11.3.508.508,0,0,0,1.009,0,17.4,17.4,0,0,1,.932-3.852,8.667,8.667,0,0,0-2.527-9.587Z" transform="translate(-84.307 -275.688)" fill="#ffe046"/>
            </g>
            <g id="Grupo_1102886" data-name="Grupo 1102886" transform="translate(11.263 13.961)">
              <path id="Trazado_881649" data-name="Trazado 881649" d="M164.643,368.439h-4.549a.966.966,0,1,0,0,1.932h4.549a.966.966,0,1,0,0-1.932Z" transform="translate(-159.128 -368.439)" fill="#ffe046"/>
            </g>
          </g>
        </g>
        <g id="Grupo_1102896" data-name="Grupo 1102896" transform="translate(40.765)">
          <g id="Grupo_1102889" data-name="Grupo 1102889" transform="translate(8.992 8.302)">
            <path id="Trazado_881650" data-name="Trazado 881650" d="M343.344,120.5c0-.013,0-.027,0-.04a3.9,3.9,0,1,0-7.8.231,3.9,3.9,0,0,0-.936,7.721l.046.009a1.743,1.743,0,0,1,1.407,2.023l-4.9,26.463,3.007.556,4.9-26.463a1.743,1.743,0,0,1,2.038-1.386q.111.02.225.034a3.9,3.9,0,0,0,3.1-6.745A3.33,3.33,0,0,1,343.344,120.5Z" transform="translate(-331.162 -116.665)" fill="#489160"/>
          </g>
          <g id="Grupo_1102890" data-name="Grupo 1102890" transform="translate(3.539)">
            <path id="Trazado_881651" data-name="Trazado 881651" d="M305.925,64.636l-.008-.039a3.9,3.9,0,0,0-7.717.815v.014a1.089,1.089,0,0,1-.716,1.021A3.9,3.9,0,0,0,298.593,74q.115.007.228.008a1.743,1.743,0,0,1,1.752,1.734v26.912h3.058V75.739a1.743,1.743,0,0,1,1.752-1.734h.046a3.9,3.9,0,0,0,2.006-7.2,3.329,3.329,0,0,1-1.51-2.164Z" transform="translate(-294.942 -61.51)" fill="#a0c83d"/>
          </g>
          <g id="Grupo_1102891" data-name="Grupo 1102891" transform="translate(3.689 14.406)">
            <path id="Trazado_881652" data-name="Trazado 881652" d="M303.43,182.341a1.61,1.61,0,0,1-1.554-1.192l-5.883-21.907a1.61,1.61,0,0,1,3.109-.835l5.883,21.906a1.611,1.611,0,0,1-1.556,2.027Z" transform="translate(-295.938 -157.214)" fill="#489160"/>
          </g>
          <g id="Grupo_1102892" data-name="Grupo 1102892" transform="translate(5.008 31.564)">
            <path id="Trazado_881653" data-name="Trazado 881653" d="M310.392,271.2a11.347,11.347,0,0,0-5.691,1.507l.387,10.781c2.844,2.788,4.306,13.206,4.8,17.183a.508.508,0,0,0,1.009,0,17.688,17.688,0,0,1,6.144-11.3,11.241,11.241,0,0,0,4.051-8.341c0-5.429-4.79-9.831-10.7-9.831Z" transform="translate(-304.701 -271.205)" fill="#fff5aa"/>
          </g>
          <g id="Grupo_1102895" data-name="Grupo 1102895" transform="translate(0 32.239)">
            <g id="Grupo_1102893" data-name="Grupo 1102893">
              <path id="Trazado_881654" data-name="Trazado 881654" d="M281.037,291.046a11.851,11.851,0,0,1-2.251-2.557.613.613,0,0,1,.513-.948h1.12a.966.966,0,0,0,0-1.932h-1.8a1.509,1.509,0,0,1-1.486-1.247,9.617,9.617,0,0,1-.146-1.658h0A1.509,1.509,0,0,1,278.5,281.2h5.16a.966.966,0,1,0,0-1.932H278.94a.8.8,0,0,1-.687-1.194,9.758,9.758,0,0,1,.744-1.1.8.8,0,0,0-.906-1.234,9.873,9.873,0,0,0-6.662,9.105,11.24,11.24,0,0,0,4.051,8.341,17.688,17.688,0,0,1,6.144,11.3.508.508,0,0,0,1.009,0,17.4,17.4,0,0,1,.932-3.852,8.667,8.667,0,0,0-2.526-9.587Z" transform="translate(-271.428 -275.688)" fill="#ffe046"/>
            </g>
            <g id="Grupo_1102894" data-name="Grupo 1102894" transform="translate(11.263 13.961)">
              <path id="Trazado_881655" data-name="Trazado 881655" d="M351.765,368.439h-4.549a.966.966,0,1,0,0,1.932h4.549a.966.966,0,1,0,0-1.932Z" transform="translate(-346.25 -368.439)" fill="#ffe046"/>
            </g>
          </g>
        </g>
      </g>
    </g>
  </g>
</svg>
